<svg width="96" height="126" viewBox="0 0 96 126" fill="none" xmlns="http://www.w3.org/2000/svg">
<path d="M38.8178 53.6346C38.4857 54.0774 38.3431 54.634 38.4214 55.1819C38.4997 55.7298 38.7924 56.2242 39.2352 56.5563C41.7687 58.4414 44.8425 59.4594 48.0004 59.4594C51.1583 59.4594 54.2321 58.4414 56.7656 56.5563C56.9849 56.3919 57.1696 56.1859 57.3092 55.9501C57.4489 55.7142 57.5407 55.4532 57.5794 55.1819C57.6182 54.9106 57.6031 54.6343 57.5351 54.3688C57.4671 54.1033 57.3474 53.8538 57.183 53.6346C57.0186 53.4153 56.8126 53.2306 56.5767 53.091C56.3409 52.9514 56.0799 52.8595 55.8086 52.8208C55.5373 52.782 55.261 52.7971 54.9955 52.8651C54.73 52.9331 54.4805 53.0528 54.2613 53.2172C52.4521 54.5648 50.2563 55.2928 48.0004 55.2928C45.7445 55.2928 43.5487 54.5648 41.7395 53.2172C41.2967 52.8851 40.7401 52.7425 40.1922 52.8208C39.6443 52.8991 39.1499 53.1918 38.8178 53.6346Z" fill="black"/>
<path d="M66.3861 64.7374C65.8226 64.7165 65.2591 64.6957 64.6957 64.6957H63.7148C67.7993 60.862 70.3383 55.6652 70.8522 50.087H70.9565C73.1705 50.087 75.2938 49.2075 76.8593 47.642C78.4249 46.0764 79.3044 43.9531 79.3044 41.7392C79.2982 39.9075 78.6813 38.1302 77.5513 36.6887C78.8018 32.4159 79.039 27.9104 78.2442 23.5299C77.4494 19.1493 75.6444 15.0144 72.9725 11.4532C70.3007 7.89207 66.8355 5.00276 62.852 3.01464C58.8685 1.02653 54.4764 -0.00565624 50.0244 2.33121e-05H44.5774C41.0137 0.00292767 37.4992 0.831556 34.3096 2.42089L32.3478 3.40176C30.7788 4.19128 29.0356 4.57087 27.2804 4.50519C25.5252 4.43951 23.8152 3.93068 22.3096 3.02611L17.76 0.292197C17.4812 0.128996 17.1684 0.0327414 16.846 0.0110126C16.5237 -0.0107161 16.2008 0.0426741 15.9026 0.16698C15.5993 0.288495 15.3293 0.480648 15.1151 0.727471C14.901 0.974294 14.7488 1.26866 14.6713 1.58611L14.3583 2.85915C13.7945 5.13429 14.0104 7.53279 14.9715 9.67064C15.9326 11.8085 17.5832 13.562 19.6591 14.6505C18.3175 14.642 17.034 14.1016 16.0904 13.1478C15.769 12.826 15.3513 12.6179 14.9008 12.5554C14.4502 12.4928 13.9916 12.5791 13.5946 12.8012C13.1977 13.0233 12.8842 13.369 12.7018 13.7857C12.5194 14.2024 12.4782 14.6673 12.5843 15.1096L13.0852 17.1339C13.4845 18.721 14.249 20.1928 15.3179 21.432C16.3868 22.6712 17.7305 23.6435 19.2417 24.2713C18.8281 24.7626 18.4646 25.2939 18.1565 25.8574C17.4921 27.0721 17.0861 28.4111 16.964 29.7902C16.8419 31.1693 17.0063 32.5588 17.447 33.8713L18.407 36.7513C17.3022 38.1798 16.7005 39.9333 16.6957 41.7392C16.6957 43.9531 17.5752 46.0764 19.1407 47.642C20.7062 49.2075 22.8295 50.087 25.0435 50.087H25.1478C25.6617 55.6652 28.2007 60.862 32.2852 64.6957H31.3044C30.7409 64.6957 30.1774 64.7165 29.593 64.7374C21.598 65.1751 14.0745 68.6598 8.5701 74.4748C3.06566 80.2898 -0.00129678 87.993 4.11325e-07 96V123.13C4.11325e-07 123.684 0.219876 124.215 0.611256 124.606C1.00264 124.998 1.53346 125.217 2.08696 125.217H93.9131C94.4665 125.217 94.9974 124.998 95.3888 124.606C95.7801 124.215 96 123.684 96 123.13V96C96.001 87.9896 92.9312 80.2835 87.4223 74.4679C81.9135 68.6524 74.3849 65.17 66.3861 64.7374ZM70.9565 45.9131V37.5652C72.0635 37.5652 73.1252 38.005 73.9079 38.7878C74.6907 39.5705 75.1304 40.6322 75.1304 41.7392C75.1304 42.8461 74.6907 43.9078 73.9079 44.6906C73.1252 45.4733 72.0635 45.9131 70.9565 45.9131ZM25.0435 45.9131C23.9365 45.9131 22.8748 45.4733 22.0921 44.6906C21.3093 43.9078 20.8696 42.8461 20.8696 41.7392C20.8696 40.6322 21.3093 39.5705 22.0921 38.7878C22.8748 38.005 23.9365 37.5652 25.0435 37.5652V45.9131ZM25.2522 33.3913H25.0435C23.9621 33.3912 22.8913 33.6039 21.8922 34.0174L21.3913 32.5565C21.1392 31.787 21.0476 30.9738 21.1224 30.1675C21.1971 29.3611 21.4365 28.5787 21.8258 27.8685C22.2151 27.1584 22.746 26.5358 23.3856 26.0391C24.0252 25.5424 24.7599 25.1822 25.5443 24.9809C26.0378 24.8572 26.469 24.5576 26.7571 24.1384C27.0452 23.7191 27.1702 23.2091 27.1087 22.7042C27.0472 22.1992 26.8033 21.7341 26.423 21.3963C26.0427 21.0585 25.5522 20.8712 25.0435 20.8696H23.207C22.318 20.8685 21.4395 20.678 20.6299 20.311C19.8202 19.944 19.098 19.4087 18.5113 18.7409C20.6877 19.0346 22.8969 18.5305 24.7304 17.3218L26.1913 16.3618C26.5075 16.1472 26.7611 15.8525 26.9261 15.5079C27.0911 15.1632 27.1616 14.7809 27.1304 14.4C27.0894 14.0191 26.9453 13.6565 26.7137 13.3513C26.482 13.0461 26.1716 12.8098 25.8157 12.6678L22.1426 11.207C20.993 10.7355 20.0078 9.93571 19.31 8.90759C18.6122 7.87948 18.2328 6.66858 18.2191 5.42611L20.16 6.59481C22.2631 7.86865 24.6555 8.58678 27.1125 8.6817C29.5694 8.77662 32.0101 8.2452 34.2052 7.13741L36.1878 6.15654C38.7938 4.85676 41.6653 4.17816 44.5774 4.17394H50.0244C53.6936 4.17335 57.3162 4.99599 60.6254 6.58126C63.9345 8.16653 66.8458 10.474 69.1448 13.3337C71.4438 16.1935 73.0719 19.5326 73.9092 23.105C74.7464 26.6775 74.7715 30.3922 73.9826 33.9757C73.0175 33.5998 71.9922 33.4018 70.9565 33.3913H70.7478C70.2606 31.0375 68.9782 28.9229 67.1161 27.4028C65.254 25.8827 62.9255 25.0497 60.5217 25.0435H35.4783C33.0745 25.0497 30.746 25.8827 28.8839 27.4028C27.0218 28.9229 25.7394 31.0375 25.2522 33.3913ZM29.2174 48V35.4783C29.2223 33.8193 29.8836 32.2297 31.0566 31.0567C32.2297 29.8836 33.8193 29.2224 35.4783 29.2174H60.5217C62.1807 29.2224 63.7703 29.8836 64.9434 31.0567C66.1164 32.2297 66.7777 33.8193 66.7826 35.4783V48C66.7826 52.9815 64.8037 57.7589 61.2813 61.2813C57.7589 64.8038 52.9815 66.7826 48 66.7826C43.0185 66.7826 38.2411 64.8038 34.7187 61.2813C31.1963 57.7589 29.2174 52.9815 29.2174 48ZM63.047 68.8696C60.2713 78.9496 54.4278 85.5652 48 85.5652C41.5722 85.5652 35.7287 78.9496 32.953 68.8696H38.4835C41.4678 70.2441 44.7144 70.9559 48 70.9559C51.2856 70.9559 54.5322 70.2441 57.5165 68.8696H63.047ZM20.8696 121.044H4.17391V104.348H20.8696V121.044ZM91.8261 121.044H75.1304V104.348H91.8261V121.044ZM91.8261 100.174H73.0435C72.49 100.174 71.9592 100.394 71.5678 100.785C71.1764 101.177 70.9565 101.707 70.9565 102.261V121.044H25.0435V102.261C25.0435 101.707 24.8236 101.177 24.4322 100.785C24.0408 100.394 23.51 100.174 22.9565 100.174H4.17391V96C4.17474 89.2585 6.68719 82.7591 11.2211 77.7699C15.7549 72.7807 21.985 69.6597 28.6957 69.0157C31.8261 81.4748 39.4435 89.7392 48 89.7392C56.5565 89.7392 64.1739 81.4748 67.3044 69.0157C74.0134 69.6638 80.241 72.7861 84.7741 77.7744C89.3071 82.7626 91.821 89.2597 91.8261 96V100.174Z" fill="black"/>
<path d="M56.3473 43.8263C56.9008 43.8263 57.4317 43.6064 57.823 43.215C58.2144 42.8237 58.4343 42.2928 58.4343 41.7393V39.6524C58.4343 39.0989 58.2144 38.5681 57.823 38.1767C57.4317 37.7853 56.9008 37.5654 56.3473 37.5654C55.7938 37.5654 55.263 37.7853 54.8716 38.1767C54.4802 38.5681 54.2604 39.0989 54.2604 39.6524V41.7393C54.2604 42.2928 54.4802 42.8237 54.8716 43.215C55.263 43.6064 55.7938 43.8263 56.3473 43.8263Z" fill="black"/>
<path d="M39.6515 43.8263C40.205 43.8263 40.7358 43.6064 41.1272 43.215C41.5186 42.8237 41.7385 42.2928 41.7385 41.7393V39.6524C41.7385 39.0989 41.5186 38.5681 41.1272 38.1767C40.7358 37.7853 40.205 37.5654 39.6515 37.5654C39.098 37.5654 38.5672 37.7853 38.1758 38.1767C37.7844 38.5681 37.5645 39.0989 37.5645 39.6524V41.7393C37.5645 42.2928 37.7844 42.8237 38.1758 43.215C38.5672 43.6064 39.098 43.8263 39.6515 43.8263Z" fill="black"/>
</svg>
