<svg width="100" height="151" viewBox="0 0 100 151" fill="none" xmlns="http://www.w3.org/2000/svg">
<path d="M31.9672 131.679L32.2696 139.631C32.2696 139.631 24.289 142.608 24.2018 144.083L39.6397 144.051L39.6772 131.643L31.9672 131.679Z" fill="#263238"/>
<path d="M37.0423 138.951C37.3412 139.032 37.5483 139.368 37.4796 139.67C37.4109 139.972 37.0713 140.186 36.771 140.11C36.4707 140.034 36.2096 139.639 36.3116 139.347C36.4136 139.054 36.8257 138.825 37.0994 138.971" fill="#E0E0E0"/>
<path d="M39.64 144.051L39.5947 142.8L24.81 143.299C24.81 143.299 24.1231 143.599 24.202 144.083L39.64 144.051Z" fill="#455A64"/>
<path d="M32.0193 139.553C32.0221 139.628 32.3991 139.661 32.7702 139.903C33.148 140.135 33.34 140.461 33.4091 140.431C33.4784 140.416 33.3653 139.966 32.9104 139.681C32.4584 139.393 32.0028 139.484 32.0193 139.553Z" fill="white"/>
<path d="M30.4014 140.226C30.3846 140.299 30.7112 140.426 30.9681 140.745C31.234 141.056 31.2992 141.4 31.3746 141.397C31.4453 141.409 31.4965 140.967 31.1699 140.577C30.8468 140.185 30.4032 140.154 30.4014 140.226Z" fill="white"/>
<path d="M29.4861 142.166C29.5548 142.182 29.6588 141.805 29.4643 141.393C29.2727 140.979 28.917 140.817 28.8854 140.879C28.843 140.941 29.0722 141.162 29.2268 141.503C29.389 141.841 29.4111 142.159 29.4861 142.166Z" fill="white"/>
<path d="M32.1514 137.733C32.1833 137.802 32.5288 137.697 32.955 137.725C33.3818 137.745 33.7136 137.887 33.7529 137.822C33.7963 137.768 33.4722 137.489 32.9697 137.464C32.4675 137.433 32.1143 137.674 32.1514 137.733Z" fill="white"/>
<path d="M49.7985 131.729L50.6343 141.32L49.1082 149.096C48.9982 149.657 49.3857 150.193 49.9524 150.265C50.2695 150.305 50.5845 150.191 50.8008 149.955C52.1765 148.455 57.2104 142.912 57.1102 142.214C56.9938 141.405 56.8999 132.039 56.8999 132.039L49.7985 131.729Z" fill="#263238"/>
<path d="M49.9525 150.264L57.0685 141.564L57.0945 141.972C57.1169 142.323 57.0156 142.672 56.8047 142.955C56.2405 143.711 54.6376 145.764 50.8296 149.954C50.6085 150.197 50.278 150.315 49.9525 150.264Z" fill="#455A64"/>
<g opacity="0.6">
<path d="M54.8982 138.592C54.668 138.774 54.613 139.143 54.7851 139.38C54.9575 139.618 55.3324 139.677 55.5655 139.499C55.7985 139.321 55.8784 138.88 55.6807 138.664C55.4831 138.447 55.0391 138.401 54.8551 138.63" fill="white"/>
</g>
<path d="M51.8791 145.926C51.8265 145.956 51.5777 145.466 50.9886 145.233C50.4069 144.981 49.8848 145.151 49.869 145.092C49.8592 145.069 49.9759 144.987 50.1988 144.94C50.4196 144.893 50.7465 144.904 51.0696 145.037C51.3923 145.172 51.631 145.396 51.7533 145.586C51.8784 145.775 51.9026 145.917 51.8791 145.926Z" fill="white"/>
<path d="M51.2774 147.257C51.2343 147.301 50.9059 147.008 50.3999 146.898C49.8964 146.776 49.4734 146.896 49.4541 146.837C49.4233 146.79 49.8725 146.557 50.4476 146.692C51.0233 146.821 51.3257 147.227 51.2774 147.257Z" fill="white"/>
<path d="M53.047 144.196C53.005 144.244 52.5021 143.792 51.7301 143.551C50.962 143.298 50.2899 143.374 50.2839 143.31C50.265 143.26 50.9701 143.081 51.7946 143.35C52.6216 143.61 53.0915 144.166 53.047 144.196Z" fill="white"/>
<path d="M53.0365 141.259C53.0144 141.318 52.4695 141.13 51.7774 141.15C51.0846 141.159 50.5485 141.37 50.5239 141.312C50.4945 141.266 51.0285 140.951 51.7728 140.938C52.5168 140.919 53.0642 141.212 53.0365 141.259Z" fill="white"/>
<path d="M52.8624 138.437C52.8361 138.495 52.2821 138.209 51.5546 138.289C50.8254 138.353 50.3383 138.742 50.3015 138.69C50.2843 138.671 50.3817 138.544 50.5948 138.402C50.8061 138.26 51.1418 138.118 51.5339 138.079C51.9261 138.041 52.2828 138.114 52.5183 138.212C52.7552 138.309 52.8754 138.415 52.8624 138.437Z" fill="white"/>
<path d="M51.5373 137.751C51.5251 137.752 51.4949 137.625 51.5009 137.389C51.5072 137.155 51.5528 136.808 51.7287 136.419C51.8212 136.233 51.9144 135.997 52.1744 135.853C52.3037 135.781 52.5038 135.793 52.6258 135.913C52.7467 136.029 52.7926 136.185 52.8055 136.337C52.8346 136.948 52.3489 137.571 51.6687 137.702C50.9851 137.822 50.3357 137.469 50.0295 136.96C49.9611 136.828 49.9089 136.663 49.973 136.496C50.0358 136.328 50.2271 136.25 50.3659 136.265C50.6539 136.289 50.8445 136.442 51.0198 136.553C51.3681 136.798 51.5909 137.065 51.7231 137.258C51.8562 137.452 51.9028 137.574 51.892 137.58C51.8597 137.607 51.619 137.124 50.9367 136.678C50.7653 136.576 50.567 136.446 50.3603 136.44C50.2597 136.437 50.1759 136.482 50.1454 136.565C50.1136 136.645 50.1416 136.764 50.2001 136.868C50.4584 137.284 51.0523 137.606 51.6288 137.495C52.2031 137.39 52.6293 136.841 52.6103 136.35C52.604 136.232 52.5651 136.115 52.4971 136.049C52.4306 135.983 52.3349 135.971 52.2483 136.012C52.0661 136.099 51.954 136.309 51.8622 136.484C51.5037 137.215 51.5804 137.758 51.5373 137.751Z" fill="white"/>
<path d="M13.5074 72.7589C13.5074 72.7589 11.0162 73.5161 10.3865 73.9345C9.75711 74.353 7.99412 76.0091 6.9835 76.3241C6.9835 76.3241 6.89029 77.1704 7.82662 77.047C8.76296 76.9237 10.0217 76.3959 10.5291 76.0185C11.0365 75.6411 11.299 76.0515 11.1763 76.4895C11.0537 76.9272 9.69684 79.7113 9.69684 79.7113C9.69684 79.7113 7.65878 82.6289 7.79894 83.0799C7.93911 83.5313 8.50434 83.6273 8.76471 83.4531C8.95254 83.3277 10.9356 80.984 10.9356 80.984L11.703 79.6044C11.703 79.6044 9.59697 84.0836 9.789 84.5549C9.98104 85.0262 10.3658 84.9985 10.6437 84.8853C10.9212 84.7721 11.8299 82.7852 11.8299 82.7852L13.2494 80.2023L11.4188 85.4211C11.4188 85.4211 11.3127 85.938 11.7195 86.0953C12.1263 86.2527 12.5931 85.7716 12.5931 85.7716L14.9809 80.5632C14.9809 80.5632 13.793 83.5061 13.9545 83.7349C14.1707 84.0415 14.4546 84.0604 14.6252 83.8617C14.9721 83.457 16.1468 80.847 16.1468 80.847L18.1148 75.7862L19.2165 73.3995L14.2222 71.3652L13.5074 72.7589Z" fill="#FFBF9D"/>
<path d="M26.113 33.9199L22.4328 51.9836L13.4357 72.7442L18.1289 75.2981C18.1289 75.2981 29.3737 57.5091 29.5044 55.2268C29.6355 52.9445 33.5627 36.697 33.5627 36.697L26.113 33.9199Z" fill="#FFBF9D"/>
<path d="M77.4334 41.102C77.4334 41.102 69.9497 56.4482 66.7689 57.8895C63.5878 59.3308 62.0813 57.3165 60.9694 56.8399C59.8571 56.3634 54.462 43.8774 54.462 43.8774L60.3993 39.0927L65.3641 48.6134L73.6359 38.2695L77.4334 41.102Z" fill="#FFBF9D"/>
<path d="M47.1354 29.2509L47.3534 11.3596C47.5524 6.91062 45.1296 3.08643 40.6767 3.01074L40.2646 3.02756C36.1195 3.19892 32.7992 6.52305 32.6369 10.6689C32.4855 14.5261 32.3682 18.7897 32.4789 20.8509C32.7081 25.118 37.0057 25.6058 37.0057 25.6058C37.0151 25.6058 37.0323 28.2035 37.0299 29.4573L40.4661 34.2252L40.4665 34.48L47.1354 29.2509Z" fill="#FFBF9D"/>
<path d="M37.0057 25.6054C37.0057 25.6054 39.7033 25.652 42.4969 23.7324C42.4969 23.7324 41.2921 26.9973 37.0159 26.7888L37.0057 25.6054Z" fill="#FF9A6C"/>
<path d="M34.8125 14.5872C34.8142 14.9096 35.0889 15.1738 35.4257 15.1781C35.7618 15.1823 36.0333 14.9247 36.0312 14.6023C36.0295 14.2799 35.7548 14.0153 35.4187 14.0108C35.0819 14.0069 34.8104 14.2648 34.8125 14.5872Z" fill="#263238"/>
<path d="M33.6227 12.5173C33.7016 12.5936 34.1494 12.2327 34.8054 12.2075C35.4604 12.1728 35.9559 12.4903 36.0238 12.4072C36.0575 12.3704 35.9744 12.2299 35.7586 12.0859C35.5459 11.9426 35.1877 11.809 34.7791 11.828C34.3705 11.8472 34.0331 12.0116 33.8417 12.1738C33.6466 12.3368 33.5842 12.4833 33.6227 12.5173Z" fill="#263238"/>
<path d="M40.5594 14.5879C40.5611 14.9103 40.8359 15.1745 41.1726 15.1787C41.5087 15.1829 41.7802 14.9257 41.7785 14.6029C41.7764 14.2805 41.502 14.016 41.166 14.0118C40.8288 14.0076 40.5573 14.2655 40.5594 14.5879Z" fill="#263238"/>
<path d="M40.0607 12.4036C40.1396 12.48 40.5881 12.1191 41.2438 12.0939C41.8987 12.0592 42.3942 12.3767 42.4622 12.2933C42.4955 12.2561 42.4135 12.1159 42.1966 11.9719C41.9842 11.8282 41.6261 11.6951 41.2171 11.7137C40.8086 11.7329 40.4711 11.8976 40.2798 12.0595C40.0849 12.2228 40.0222 12.3696 40.0607 12.4036Z" fill="#263238"/>
<path d="M37.9154 17.5417C37.9168 17.5042 37.5061 17.4506 36.8417 17.3934C36.6735 17.3833 36.5134 17.3563 36.4804 17.2431C36.4359 17.1236 36.4987 16.9403 36.5719 16.742C36.7128 16.3299 36.8599 15.8982 37.0145 15.4458C37.6274 13.6008 38.064 12.087 37.9894 12.0628C37.9147 12.039 37.3576 13.5146 36.7447 15.3592C36.5975 15.8141 36.457 16.2476 36.3231 16.6621C36.2677 16.8552 36.1675 17.0756 36.2635 17.3234C36.3136 17.4467 36.4405 17.5326 36.5491 17.5567C36.6578 17.5851 36.7524 17.583 36.8354 17.5848C37.5016 17.5932 37.914 17.5792 37.9154 17.5417Z" fill="#263238"/>
<path d="M39.7636 10.3591C39.8596 10.5228 40.489 10.3206 41.2634 10.2719C42.0372 10.2077 42.689 10.3164 42.7604 10.1405C42.7913 10.0567 42.6543 9.91127 42.376 9.78687C42.0999 9.66247 41.6794 9.57311 41.2151 9.60675C40.7511 9.64109 40.3481 9.79038 40.0927 9.95367C39.8351 10.1173 39.7205 10.281 39.7636 10.3591Z" fill="#263238"/>
<path d="M33.5131 10.5887C33.6536 10.7341 34.1838 10.5652 34.8265 10.541C35.4681 10.4979 36.0158 10.61 36.1371 10.4506C36.19 10.3735 36.1003 10.2263 35.8588 10.0914C35.6209 9.95685 35.226 9.85243 34.7844 9.8752C34.3432 9.89868 33.9641 10.0438 33.7444 10.2025C33.5215 10.3619 33.4511 10.5175 33.5131 10.5887Z" fill="#263238"/>
<path d="M47.1355 14.5352C47.207 14.5009 50.0331 13.5463 50.0605 16.4692C50.0878 19.3921 47.1477 18.8167 47.1421 18.7326C47.1362 18.6489 47.1355 14.5352 47.1355 14.5352Z" fill="#FFBF9D"/>
<path d="M48.0245 17.6169C48.0371 17.6074 48.0756 17.6519 48.1622 17.6908C48.2463 17.7283 48.391 17.7536 48.5428 17.695C48.8504 17.5787 49.1059 17.0864 49.115 16.5593C49.1199 16.2933 49.0617 16.0407 48.9657 15.8318C48.8743 15.6188 48.7348 15.4709 48.5792 15.4446C48.424 15.4103 48.315 15.5045 48.2799 15.5872C48.2417 15.6692 48.2607 15.7274 48.2453 15.7327C48.2372 15.74 48.1822 15.6843 48.2046 15.5634C48.2162 15.5052 48.2498 15.4359 48.3178 15.3791C48.3872 15.3213 48.4902 15.2911 48.5985 15.302C48.8242 15.3157 49.0288 15.521 49.1346 15.7502C49.2527 15.9804 49.3242 16.2643 49.3186 16.5632C49.3053 17.1522 49.0092 17.7063 48.5876 17.8324C48.3823 17.8881 48.2102 17.8275 48.1212 17.7595C48.0304 17.6873 48.0143 17.6225 48.0245 17.6169Z" fill="#FF9A6C"/>
<path d="M39.9762 17.9483C39.8756 17.942 39.8715 18.6131 39.2947 19.0868C38.7189 19.562 38.004 19.4835 37.9981 19.5774C37.9886 19.6195 38.1568 19.7085 38.4589 19.718C38.755 19.7295 39.1881 19.6363 39.541 19.3465C39.8928 19.056 40.0453 18.6667 40.0694 18.3916C40.0961 18.1113 40.0221 17.9445 39.9762 17.9483Z" fill="#263238"/>
<path d="M26.7381 6.82341C26.7826 6.65065 26.9063 6.50768 27.0587 6.41516C27.3913 6.21367 27.7771 6.2354 28.15 6.22523C29.0772 6.2 29.9946 5.95225 30.8167 5.52333C30.5269 5.38036 30.2553 5.20585 30.024 4.98018C29.5464 4.51446 29.2664 3.79574 29.4756 3.16217C29.5149 3.04338 29.5825 2.91827 29.7016 2.88008C29.8909 2.81945 30.0591 3.00413 30.1929 3.15061C30.6338 3.63209 31.0382 3.83604 31.6868 3.76315C32.0898 3.71794 32.4791 3.62298 32.7941 3.42183C32.8067 3.40852 32.8176 3.3938 32.8302 3.38048C32.9806 3.22209 33.127 3.07036 33.2718 2.92388L33.2728 2.92248L33.2725 2.92353C34.3598 1.82039 35.2965 1.05401 36.2658 0.651024C37.6864 0.0602077 40.07 -0.199457 41.5621 0.173745C43.0546 0.547299 44.4044 1.73909 44.6283 3.26099C45.4546 2.54612 46.7074 2.53771 47.7282 2.93474L47.7534 2.92318C48.8899 3.31355 49.5462 4.5022 49.8935 5.65264C49.9124 5.71572 49.9289 5.77949 49.9471 5.84257C50.3364 6.44495 50.8627 6.95867 51.4869 7.3126C51.5969 7.37498 51.723 7.45172 51.7381 7.57752C51.7528 7.70192 51.6484 7.8067 51.5475 7.88099C51.2784 8.07828 50.9637 8.20969 50.636 8.27207C50.7425 8.54505 50.8673 8.81032 51.0201 9.06297C51.1504 9.27779 51.305 9.53535 51.196 9.76172C51.1115 9.93694 50.8911 10.0109 50.6987 9.98494C50.5064 9.95901 50.3347 9.85459 50.1693 9.75261C50.2989 10.0533 50.4286 10.3543 50.5582 10.655C50.1496 10.731 49.7253 10.703 49.3261 10.587C49.098 11.6691 48.94 13.67 48.6705 14.4045C47.8946 14.4269 47.7054 14.3446 47.3154 14.4791C46.8115 14.653 47.0147 15.5465 46.3531 15.2995C46.0164 15.1737 45.4872 13.9087 45.3709 13.5684C44.6007 11.3106 44.3259 8.88566 44.5681 6.51258C44.0936 6.01813 43.5231 5.6162 42.8979 5.33586L42.9491 5.38071C41.7492 4.97912 40.3931 4.5863 39.2654 5.16029C38.3908 5.60568 37.8844 6.52415 37.2351 7.26004C36.0044 8.65438 34.6023 9.40709 32.7451 9.50802C32.5923 10.8004 32.5667 12.911 32.5173 14.1158L31.4618 11.7174L31.4611 11.7273C31.3763 11.5871 31.3062 11.4455 31.2383 11.3036L31.2148 11.2605V11.2552C31.1068 11.0275 31.0042 10.7993 30.8682 10.574C30.8643 10.5775 30.8608 10.581 30.8566 10.5845C30.2108 11.1673 29.2394 10.2986 29.7461 9.59107C29.8467 9.45055 29.9673 9.32544 30.1057 9.22137C29.8106 9.50486 29.3677 9.64398 28.9752 9.52834C28.5827 9.4127 28.2751 9.02057 28.3045 8.61233C28.3245 8.33374 28.5207 8.08284 28.7706 7.97C28.2442 8.01661 27.7039 7.90797 27.2417 7.65111C26.9389 7.48256 26.6403 7.20327 26.7381 6.82341Z" fill="#263238"/>
<path d="M43.288 3.76758C43.2796 3.77879 43.4685 3.87866 43.7215 4.15515C43.972 4.43023 44.2555 4.91101 44.3943 5.56771C44.4654 5.89431 44.5117 6.2598 44.5159 6.65368C44.5222 7.04755 44.4952 7.46982 44.47 7.91451C44.4461 8.35955 44.4199 8.82947 44.4539 9.31761C44.471 9.56115 44.5029 9.80926 44.5586 10.0563C44.6151 10.2995 44.6823 10.5634 44.8688 10.7705C45.0173 10.9394 45.263 11.0126 45.4746 10.9664C45.6881 10.9261 45.8769 10.8101 46.0143 10.6534C46.2859 10.3293 46.35 9.92104 46.4141 9.56115L46.3244 9.57307C46.4748 9.89406 46.6289 10.2112 46.855 10.4631C47.0771 10.7169 47.3831 10.8826 47.6921 10.9068C47.846 10.9191 48.0009 10.8924 48.1323 10.8244C48.2661 10.7575 48.3629 10.6443 48.4287 10.5259C48.4915 10.405 48.5233 10.2729 48.5153 10.1457C48.5065 10.0188 48.4557 9.89896 48.3744 9.81451L48.3296 9.85551C48.6639 10.2277 49.0143 10.4253 49.2564 10.5346C49.3787 10.5893 49.4762 10.6215 49.5424 10.6422C49.609 10.6611 49.644 10.6688 49.6447 10.6664C49.6454 10.6636 49.6121 10.6503 49.5476 10.6264C49.4835 10.6009 49.3885 10.5641 49.2701 10.5052C49.035 10.3885 48.6958 10.1849 48.3751 9.81591L48.3303 9.85691C48.476 10.0079 48.4872 10.2753 48.366 10.4922C48.3047 10.5991 48.216 10.6997 48.0979 10.7565C47.9809 10.8157 47.8397 10.8388 47.6991 10.8262C47.4153 10.8013 47.1301 10.6454 46.9219 10.4043C46.7088 10.1635 46.5592 9.85481 46.4106 9.53312L46.3476 9.3968L46.3209 9.54539C46.2568 9.90457 46.1881 10.2967 45.9404 10.589C45.8174 10.7295 45.6443 10.8342 45.4575 10.8689C45.2704 10.9075 45.072 10.8479 44.9424 10.7028C44.7794 10.5234 44.7111 10.2736 44.6561 10.0346C44.6014 9.79314 44.5695 9.55064 44.552 9.31095C44.5173 8.83087 44.5415 8.3641 44.5625 7.91976C44.5849 7.47508 44.6091 7.05106 44.5993 6.65193C44.5912 6.25314 44.5401 5.88274 44.4637 5.55194C44.314 4.88684 44.0148 4.40009 43.7506 4.12852C43.4835 3.85553 43.288 3.76758 43.288 3.76758Z" fill="#455A64"/>
<path d="M30.1028 8.07976C30.1018 8.08082 30.1133 8.09098 30.1375 8.1085C30.1666 8.12917 30.202 8.15441 30.2451 8.18524C30.2921 8.21958 30.352 8.25988 30.4277 8.29948C30.502 8.34083 30.5868 8.39164 30.6895 8.43369C31.0889 8.61802 31.7281 8.79814 32.5243 8.74207C33.3127 8.68881 34.2568 8.39865 35.095 7.75948C35.9427 7.13537 36.6824 6.22146 37.2837 5.1779C37.589 4.65646 37.8364 4.12242 38.1104 3.62902C38.3827 3.13527 38.684 2.67796 39.0513 2.31598C39.4143 1.95188 39.8373 1.68101 40.2753 1.5538C40.4936 1.48617 40.7141 1.469 40.9243 1.47145C41.1356 1.48021 41.3357 1.52051 41.5207 1.57903C41.8908 1.69853 42.1907 1.89897 42.4189 2.10572C42.6477 2.31457 42.8022 2.53604 42.9088 2.72632C43.1078 3.1174 43.1215 3.3697 43.1369 3.36515C43.1386 3.36515 43.1373 3.34973 43.133 3.32029C43.1271 3.2849 43.1201 3.2418 43.1113 3.18958C43.0889 3.07535 43.0377 2.90995 42.9435 2.70845C42.8404 2.51186 42.6876 2.28233 42.4571 2.06472C42.2275 1.84921 41.9234 1.63931 41.5432 1.51175C41.3532 1.44937 41.1465 1.40557 40.9278 1.39436C40.7099 1.38945 40.4782 1.40592 40.2526 1.4739C39.7977 1.60216 39.3597 1.8797 38.9868 2.2501C38.6087 2.61944 38.3003 3.08411 38.0249 3.58136C37.7474 4.07826 37.5 4.61091 37.1972 5.12779C36.6004 6.16364 35.8715 7.06704 35.04 7.68554C34.2168 8.31875 33.2956 8.60926 32.519 8.67163C31.7362 8.73576 31.105 8.56896 30.7052 8.39795C30.3022 8.22379 30.1102 8.0675 30.1028 8.07976Z" fill="#455A64"/>
<path d="M29.6921 6.2045C29.6886 6.21046 29.7436 6.24761 29.8466 6.30963C29.9486 6.37341 30.1049 6.4519 30.3036 6.53495C30.5019 6.61976 30.7472 6.69825 31.0254 6.76308C31.3044 6.823 31.6166 6.86611 31.9467 6.87452C32.2765 6.87942 32.5904 6.84928 32.8718 6.80128C33.1525 6.74801 33.4006 6.67968 33.6025 6.60329C33.8043 6.52829 33.9638 6.45646 34.0682 6.39654C34.1737 6.33872 34.2301 6.30402 34.2269 6.29806C34.2185 6.28124 33.9837 6.40529 33.5793 6.536C33.3778 6.60293 33.1318 6.66286 32.8561 6.71017C32.5792 6.75222 32.2719 6.7792 31.9485 6.77429C31.6254 6.76588 31.3195 6.72628 31.0447 6.67267C30.771 6.6138 30.5278 6.54407 30.3291 6.46907C29.9307 6.3219 29.7012 6.18803 29.6921 6.2045Z" fill="white"/>
<path d="M25.266 75.5471C25.2691 75.5457 25.273 75.544 25.2765 75.5426C25.3256 74.4759 25.423 73.2746 25.5428 72.3968C26.4819 72.6919 27.8931 73.0083 28.8792 73.1944C31.4597 73.6314 34.0953 73.6839 36.7704 73.4659L36.9481 73.4505C42.3643 72.9852 47.9392 71.4293 53.539 69.7402L54.3747 76.2129L56.4258 107.232L57.9158 138.83L48.6537 138.835C48.6537 138.835 45.3902 114.529 45.1365 111.164C44.854 107.42 40.4317 84.1809 40.4317 84.1809L39.6292 83.9787L40.1247 138.446H30.5336C30.5336 138.446 25.3424 79.9145 25.2635 77.8326C25.2327 77.0441 25.2376 76.2799 25.266 75.5471Z" fill="#263238"/>
<path d="M25.9878 67.7915L26.8429 52.8778L26.893 49.2607L21.3058 46.6115L25.0851 34.1798C25.6455 32.8286 26.6922 31.7149 28.0438 31.1553C28.1212 31.123 28.1976 31.094 28.2716 31.068L37.0055 27.9713C37.4628 29.3905 39.7511 30.3539 41.7485 30.4646C45.4364 30.5455 47.3872 27.3809 47.3872 27.3809C47.3872 27.3809 47.3977 27.384 47.4149 27.3896C47.8414 27.5231 52.2315 28.724 54.6638 30.0006C55.5581 30.371 57.4875 31.7265 58.7683 33.9201C60.5026 36.8907 63.9771 45.1327 63.9771 45.1327L54.4451 48.3314C54.3723 47.9879 54.271 47.5103 54.1574 46.9794C54.1588 46.9854 54.1603 46.992 54.1613 46.998L53.0123 59.4871L53.5526 66.6561C53.5526 66.6561 55.2042 68.6364 55.2939 69.9309V72.3551C49.6061 74.0708 42.0271 75.9063 36.5262 76.379C36.4659 76.3843 36.406 76.3895 36.3457 76.3944C33.5724 76.6205 30.8409 76.5626 28.1682 76.0934C28.0876 76.0794 28.0077 76.0622 27.9274 76.0475C26.9238 75.8618 25.9283 75.6186 24.9422 75.3088C24.9019 75.2962 24.8616 75.2854 24.8213 75.2724C24.8213 75.2724 25.0448 70.5073 25.5642 69.209C26.0842 67.9107 25.9878 67.7915 25.9878 67.7915Z" fill="#455A64"/>
<path d="M26.3693 36.4512C26.384 36.4512 26.3977 36.6488 26.4198 37.0055C26.4471 37.3994 26.4821 37.9075 26.5242 38.5173C26.6139 39.7939 26.7428 41.5579 26.8473 43.5091C26.9531 45.4609 27.0008 47.2313 26.9874 48.5135C26.9811 49.1544 26.964 49.6731 26.937 50.0308C26.9117 50.3886 26.8911 50.5856 26.8774 50.5849C26.8637 50.5842 26.8581 50.3858 26.8599 50.028C26.863 49.6706 26.8588 49.153 26.8473 48.5139C26.8245 47.2355 26.7551 45.4697 26.6493 43.5196C26.5452 41.5702 26.4383 39.8047 26.3844 38.525C26.356 37.8851 26.3434 37.3665 26.3427 37.008C26.3441 36.6492 26.3567 36.4512 26.3693 36.4512Z" fill="#263238"/>
<path d="M55.3747 36.7959C55.388 36.7984 55.3701 36.9743 55.3256 37.29C55.2737 37.6447 55.2086 38.0921 55.1304 38.6251C54.9647 39.7518 54.7477 41.3101 54.5526 43.0363C54.3584 44.7632 54.2235 46.3306 54.1345 47.466C54.0918 48.0032 54.056 48.4539 54.0276 48.8109C54.0006 49.1284 53.9793 49.304 53.9656 49.3033C53.9519 49.3026 53.9474 49.126 53.9505 48.8071C53.953 48.4879 53.9677 48.0267 53.9943 47.4569C54.0476 46.3173 54.1608 44.7446 54.3553 43.0139C54.5508 41.2838 54.7901 39.7251 54.9916 38.6027C55.0922 38.0413 55.1805 37.5882 55.2492 37.2767C55.3175 36.9645 55.3613 36.7935 55.3747 36.7959Z" fill="#263238"/>
<path d="M39.3053 78.8047C39.3053 78.8047 38.2642 79.3352 37.5434 79.7953C36.8226 80.2555 35.9949 81.4227 35.9949 81.4227L33.0096 84.2878L36.1224 86.7394L38.2274 83.0694L40.0633 82.167L39.3053 78.8047Z" fill="#AE7461"/>
<path d="M22.0116 102.456C21.9955 102.45 21.869 102.717 21.8123 103.188C21.753 103.655 21.8007 104.326 22.0733 105C22.3491 105.672 22.7843 106.185 23.1533 106.478C23.5227 106.774 23.7999 106.878 23.8069 106.862C23.823 106.833 23.5721 106.691 23.2381 106.381C22.9035 106.074 22.5061 105.573 22.2426 104.931C21.9826 104.287 21.9167 103.651 21.9412 103.198C21.9629 102.742 22.0432 102.465 22.0116 102.456Z" fill="#455A64"/>
<path d="M18.9985 133.581L18.6775 140.784L20.0662 146.554C20.1665 146.97 19.8931 147.384 19.4716 147.456C19.2354 147.496 18.996 147.421 18.8271 147.251C17.7499 146.172 13.9142 142.131 13.8981 141.745C13.8721 141.134 13.6948 134.038 13.6948 134.038L18.9985 133.581Z" fill="#455A64"/>
<path d="M19.4717 147.455L13.8708 141.171L13.8642 141.476C13.8841 141.788 13.9455 141.998 14.1123 142.203C14.5584 142.75 15.8231 144.236 18.8055 147.25C18.9786 147.426 19.2295 147.503 19.4717 147.455Z" fill="#263238"/>
<g opacity="0.6">
<path d="M15.4005 138.878C15.5785 139.007 15.6314 139.281 15.5101 139.464C15.3885 139.647 15.11 139.703 14.9298 139.578C14.7497 139.452 14.6758 139.124 14.817 138.956C14.9582 138.788 15.289 138.74 15.4337 138.905" fill="white"/>
</g>
<path d="M17.8924 144.27C17.9327 144.291 18.1033 143.916 18.5365 143.723C18.9636 143.516 19.36 143.626 19.3698 143.582C19.3764 143.564 19.2864 143.506 19.1182 143.479C18.9517 143.45 18.7071 143.469 18.4695 143.579C18.2323 143.69 18.0609 143.865 17.9751 144.011C17.8882 144.157 17.8745 144.264 17.8924 144.27Z" fill="white"/>
<path d="M18.3848 145.246C18.4184 145.278 18.6549 145.049 19.0299 144.95C19.4027 144.843 19.7234 144.919 19.736 144.875C19.7574 144.838 19.4139 144.678 18.9878 144.798C18.561 144.912 18.3476 145.226 18.3848 145.246Z" fill="white"/>
<path d="M16.9634 143.013C16.9964 143.048 17.3584 142.693 17.9281 142.488C18.4951 142.275 19.0004 142.31 19.0029 142.262C19.0155 142.224 18.4822 142.112 17.8738 142.34C17.263 142.561 16.9291 142.992 16.9634 143.013Z" fill="white"/>
<path d="M16.8782 140.815C16.8964 140.859 17.2983 140.701 17.8169 140.693C18.3356 140.678 18.7435 140.819 18.7599 140.775C18.7806 140.74 18.3706 140.521 17.8134 140.535C17.2559 140.544 16.8557 140.781 16.8782 140.815Z" fill="white"/>
<path d="M16.919 138.698C16.9404 138.74 17.3462 138.508 17.8928 138.545C18.4405 138.57 18.8172 138.845 18.8435 138.806C18.8558 138.791 18.7787 138.699 18.6147 138.599C18.4521 138.5 18.1963 138.404 17.9016 138.387C17.6069 138.371 17.3423 138.437 17.1695 138.518C16.9954 138.599 16.9085 138.681 16.919 138.698Z" fill="white"/>
<path d="M17.8885 138.142C17.8976 138.143 17.9161 138.046 17.9042 137.87C17.892 137.695 17.8471 137.437 17.7031 137.151C17.6281 137.015 17.5506 136.841 17.3516 136.742C17.2528 136.692 17.1032 136.707 17.0156 136.801C16.9286 136.892 16.8996 137.01 16.8947 137.124C16.8922 137.582 17.2752 138.033 17.7886 138.11C18.3041 138.178 18.7785 137.893 18.9919 137.502C19.0389 137.401 19.0725 137.276 19.0193 137.153C18.9671 137.029 18.8213 136.977 18.7179 136.992C18.5031 137.02 18.3654 137.14 18.2378 137.229C17.9852 137.424 17.8268 137.63 17.7336 137.778C17.64 137.928 17.6092 138.021 17.6176 138.025C17.6425 138.045 17.8075 137.675 18.3037 137.319C18.4288 137.238 18.5732 137.134 18.7274 137.124C18.8027 137.118 18.8669 137.149 18.8921 137.21C18.9184 137.269 18.9012 137.359 18.8605 137.439C18.6804 137.758 18.2462 138.017 17.8114 137.953C17.3782 137.893 17.0422 137.496 17.0404 137.127C17.0415 137.039 17.0667 136.95 17.1154 136.898C17.1631 136.847 17.2346 136.835 17.3004 136.863C17.4396 136.923 17.5303 137.076 17.6043 137.204C17.8965 137.74 17.8566 138.149 17.8885 138.142Z" fill="white"/>
<path d="M11.049 134.002L10.728 141.205L12.1168 146.975C12.217 147.391 11.9437 147.805 11.5221 147.877C11.2859 147.917 11.0466 147.842 10.8777 147.672C9.80045 146.593 5.96471 142.552 5.94859 142.166C5.92266 141.555 5.74534 134.459 5.74534 134.459L11.049 134.002Z" fill="#455A64"/>
<path d="M11.5216 147.876L5.92076 141.592L5.9141 141.897C5.93443 142.209 5.9954 142.419 6.1622 142.624C6.6083 143.172 7.87298 144.657 10.8554 147.671C11.0289 147.847 11.2798 147.924 11.5216 147.876Z" fill="#263238"/>
<g opacity="0.6">
<path d="M7.45038 139.299C7.62839 139.428 7.68131 139.702 7.56007 139.885C7.43847 140.068 7.15988 140.124 6.97976 139.998C6.79964 139.873 6.72571 139.545 6.86693 139.377C7.00815 139.209 7.33894 139.161 7.48367 139.326" fill="white"/>
</g>
<path d="M9.94267 144.691C9.98297 144.712 10.1536 144.338 10.5868 144.144C11.0139 143.938 11.4099 144.048 11.4201 144.004C11.4267 143.986 11.3367 143.928 11.1685 143.901C11.002 143.872 10.7574 143.891 10.5198 144.001C10.2826 144.111 10.1112 144.287 10.0254 144.432C9.93848 144.579 9.9248 144.685 9.94267 144.691Z" fill="white"/>
<path d="M10.435 145.668C10.4686 145.7 10.7052 145.47 11.0801 145.372C11.453 145.265 11.7736 145.341 11.7859 145.297C11.8076 145.26 11.4638 145.1 11.0381 145.22C10.6113 145.334 10.3979 145.648 10.435 145.668Z" fill="white"/>
<path d="M9.01371 143.434C9.04665 143.469 9.40865 143.114 9.97844 142.909C10.5454 142.696 11.0504 142.731 11.0532 142.683C11.0658 142.645 10.5325 142.533 9.92377 142.761C9.31333 142.982 8.97937 143.413 9.01371 143.434Z" fill="white"/>
<path d="M8.92808 141.236C8.9463 141.279 9.34824 141.122 9.86687 141.114C10.3855 141.099 10.7934 141.24 10.8099 141.196C10.8305 141.161 10.4209 140.941 9.86336 140.956C9.30619 140.965 8.906 141.202 8.92808 141.236Z" fill="white"/>
<path d="M8.96891 139.119C8.99029 139.161 9.39608 138.93 9.94274 138.966C10.4905 138.991 10.8672 139.267 10.8934 139.227C10.9057 139.212 10.829 139.12 10.6646 139.02C10.502 138.921 10.2462 138.825 9.95151 138.808C9.6568 138.792 9.39222 138.858 9.21911 138.939C9.0453 139.02 8.95875 139.103 8.96891 139.119Z" fill="white"/>
<path d="M9.93875 138.563C9.94786 138.563 9.96644 138.466 9.95453 138.29C9.94226 138.116 9.89741 137.857 9.75338 137.572C9.67839 137.436 9.60094 137.262 9.4019 137.163C9.30308 137.113 9.15345 137.128 9.06584 137.222C8.97894 137.313 8.94985 137.431 8.94495 137.545C8.94249 138.002 9.32551 138.454 9.83888 138.531C10.3544 138.599 10.8288 138.314 11.0422 137.923C11.0892 137.822 11.1228 137.697 11.0696 137.574C11.0174 137.45 10.8719 137.398 10.7682 137.413C10.5534 137.441 10.4157 137.561 10.2881 137.65C10.0355 137.844 9.87707 138.051 9.78421 138.199C9.69065 138.349 9.65981 138.442 9.66822 138.446C9.6931 138.466 9.85816 138.096 10.3544 137.741C10.4795 137.659 10.6238 137.556 10.778 137.545C10.8534 137.539 10.9175 137.57 10.9427 137.631C10.969 137.69 10.9518 137.78 10.9112 137.86C10.7311 138.179 10.2969 138.439 9.86201 138.375C9.42889 138.314 9.09282 137.917 9.09107 137.549C9.09212 137.46 9.11771 137.371 9.16607 137.319C9.21373 137.269 9.28521 137.256 9.35109 137.284C9.49021 137.344 9.58097 137.497 9.65491 137.625C9.94681 138.16 9.90651 138.569 9.93875 138.563Z" fill="white"/>
<path d="M22.9494 82.8141L29.6362 87.1955L35.1495 82.4434L37.0439 85.005C37.0439 85.005 32.7491 93.6089 30.1093 94.1798C27.5698 94.7289 21.3063 88.9637 21.3063 88.9637L22.9494 82.8141Z" fill="#AE7461"/>
<path d="M9.48775 62.0176C10.34 62.6424 10.7205 63.8405 10.3859 64.8427C10.0509 65.8449 9.02659 66.5735 7.97006 66.5605C7.09154 66.55 6.14925 65.8796 6.20567 65.0028C6.08267 65.8074 5.54266 66.5605 4.77979 66.8436C4.01656 67.1268 3.0599 66.8685 2.61697 66.1855C2.17403 65.5026 2.37797 64.4555 3.08898 64.0592C2.18524 64.1394 1.23769 63.8058 0.63601 63.1263C0.0343304 62.4469 -0.178371 61.425 0.167148 60.5857C0.512667 59.7465 1.43042 59.1602 2.33206 59.2653C1.94449 58.1545 2.54057 56.7945 3.61953 56.326C4.69884 55.8575 6.09913 56.3516 6.6458 57.393C7.24082 56.5061 8.48834 56.1252 9.47724 56.5285C10.4665 56.9315 11.092 58.076 10.8975 59.1262C11.687 59.5155 12.1205 60.5097 11.8689 61.3528C11.6169 62.1963 10.7093 62.7899 9.83571 62.6827" fill="#263238"/>
<path d="M6.71298 64.9595C6.36851 63.6595 6.60609 63.3511 7.2733 62.6236C7.97731 61.8558 8.9967 61.7921 9.60573 62.0482C9.72032 61.0271 9.71016 60.3017 10.623 59.7796C11.5877 59.228 12.0296 59.3377 13.1261 59.5048C13.9195 58.9701 14.9409 58.7339 15.9046 58.8625C16.8683 58.9911 17.7626 59.4824 18.3376 60.1994C19.5687 60.1437 20.7871 60.8375 21.2735 61.8712C21.5013 62.3559 21.5868 62.9113 21.9494 63.3192C22.2119 63.6143 22.4506 63.9146 22.5644 64.2867C22.7743 64.9736 22.7088 65.3016 22.4544 66.0431C22.2781 66.5561 21.8993 67.2944 22.2053 67.7419C23.3936 69.479 21.7371 71.4838 21.1708 71.6429L11.2503 75.3756C10.6363 75.9864 9.61133 76.2124 8.77697 75.9215C7.94261 75.6307 7.35145 74.8412 7.3504 74.0159C5.9925 73.2748 5.37015 71.5773 5.95465 70.2086C4.72466 69.171 4.74639 66.7295 6.71298 64.9595Z" fill="#263238"/>
<path d="M20.7261 66.2888C20.4759 63.8205 17.7822 61.4687 15.3923 61.842L10.6626 62.9966C8.93681 63.4178 7.75763 65.0627 7.87887 66.8793L8.7686 69.6666L9.27391 81.3669L8.88354 81.5299C8.88354 81.5299 9.76345 86.8192 14.1192 86.3114C18.0324 85.8552 16.9097 81.1171 16.9097 81.1153L16.7362 78.0421C16.7362 78.0421 20.6189 77.643 21.0927 73.4862C21.3278 71.4184 21.0044 69.0316 20.7261 66.2888Z" fill="#AE7461"/>
<path d="M19.8532 70.06C19.8738 70.3389 19.6611 70.588 19.378 70.6171C19.0952 70.6459 18.8489 70.4437 18.8282 70.1647C18.8075 69.8858 19.0202 69.6363 19.3027 69.6072C19.5861 69.5785 19.8325 69.781 19.8532 70.06Z" fill="#263238"/>
<path d="M20.1188 68.6122C20.0621 68.6763 19.7144 68.4142 19.2211 68.4264C18.728 68.4313 18.366 68.7054 18.3124 68.6434C18.2861 68.616 18.3439 68.5014 18.5016 68.3774C18.6569 68.254 18.9214 68.1314 19.2291 68.1261C19.5364 68.1212 19.795 68.2344 19.9436 68.3525C20.0957 68.4713 20.1469 68.5834 20.1188 68.6122Z" fill="#263238"/>
<path d="M15.3394 70.1958C15.3601 70.4747 15.147 70.7242 14.8639 70.7529C14.5811 70.7817 14.3348 70.5795 14.3141 70.3005C14.2934 70.0216 14.5061 69.7721 14.7889 69.743C15.0721 69.7139 15.3184 69.9168 15.3394 70.1958Z" fill="#263238"/>
<path d="M15.0427 68.7088C14.9859 68.773 14.6383 68.5109 14.1449 68.5231C13.6519 68.528 13.2899 68.8021 13.2362 68.74C13.21 68.7127 13.2678 68.5981 13.4255 68.4741C13.5807 68.3507 13.8453 68.2281 14.153 68.2228C14.4603 68.2179 14.7189 68.3307 14.8675 68.4492C15.0192 68.5676 15.0707 68.6801 15.0427 68.7088Z" fill="#263238"/>
<path d="M16.8105 72.5373C16.807 72.5124 17.1501 72.4455 17.7062 72.3572C17.8471 72.3375 17.9806 72.3074 18.0023 72.2296C18.0335 72.1466 17.9711 72.0292 17.8993 71.9027C17.7591 71.6388 17.6123 71.3627 17.4584 71.0729C17.2934 70.7712 16.4731 69.0621 16.4597 68.8939C16.5211 68.8722 17.0681 69.8127 17.681 70.9947C17.8288 71.2866 17.9701 71.5645 18.1043 71.8305C18.1614 71.9549 18.2571 72.094 18.1894 72.2664C18.1537 72.3523 18.0514 72.4192 17.9613 72.4437C17.8712 72.4707 17.7917 72.4767 17.722 72.484C17.1613 72.5401 16.8133 72.5622 16.8105 72.5373Z" fill="#263238"/>
<path d="M16.7656 78.0476C16.7656 78.0476 14.0712 78.3528 11.3294 76.8242C11.3294 76.8242 12.7939 79.7037 16.7971 79.13L16.7656 78.0476Z" fill="#6F4439"/>
<path d="M15.1295 67.2894C15.0728 67.4682 14.5906 67.3599 14.0148 67.4275C13.4384 67.4794 12.9664 67.6865 12.8984 67.5207C12.8682 67.4415 12.9569 67.2751 13.1517 67.1083C13.3448 66.9418 13.6476 66.7894 13.9931 66.7529C14.3386 66.7176 14.6491 66.8066 14.8516 66.932C15.0556 67.0575 15.1544 67.2046 15.1295 67.2894Z" fill="#263238"/>
<path d="M20.2093 66.8321C20.1245 66.9968 19.7081 66.8875 19.2281 66.939C18.7462 66.9709 18.3544 67.1496 18.243 67.002C18.1936 66.9295 18.2406 66.7694 18.4018 66.6036C18.5605 66.4386 18.8398 66.2854 19.1706 66.2567C19.5014 66.2283 19.8021 66.3313 19.9864 66.4669C20.1725 66.6022 20.2457 66.7522 20.2093 66.8321Z" fill="#263238"/>
<path d="M8.90519 69.867C8.90519 69.867 6.27034 69.0498 6.46588 71.5645C6.66177 74.0791 9.07796 73.3471 9.0769 73.2746C9.0755 73.202 8.90519 69.867 8.90519 69.867Z" fill="#AE7461"/>
<path d="M8.25522 72.3876C8.24366 72.3806 8.21492 72.422 8.14553 72.4622C8.0779 72.5015 7.95876 72.5348 7.82735 72.4966C7.56103 72.4216 7.31082 72.0186 7.26351 71.5666C7.23933 71.3381 7.26912 71.1163 7.3343 70.9288C7.39457 70.7382 7.50041 70.5997 7.62867 70.5647C7.75587 70.5226 7.85434 70.5945 7.88973 70.6628C7.92793 70.7304 7.91636 70.782 7.92967 70.7851C7.93703 70.7907 7.97908 70.7385 7.95105 70.6362C7.93703 70.5871 7.90374 70.5304 7.84242 70.4869C7.77969 70.4431 7.69138 70.4256 7.60167 70.4434C7.41385 70.4732 7.25791 70.6663 7.18677 70.872C7.10512 71.0795 7.06658 71.3293 7.09356 71.5858C7.14893 72.0911 7.43803 72.5435 7.80002 72.6178C7.97558 72.649 8.11505 72.5831 8.18478 72.5176C8.25557 72.4486 8.26398 72.3911 8.25522 72.3876Z" fill="#6F4439"/>
<path d="M16.5514 73.7651C16.5578 73.7865 16.4432 73.8475 16.2375 73.8583C16.0353 73.8702 15.7381 73.8152 15.4795 73.6232C15.2212 73.4305 15.0835 73.1613 15.0373 72.964C14.9889 72.7639 15.0145 72.6367 15.0369 72.6367C15.0642 72.6346 15.0856 72.7538 15.1592 72.9234C15.2311 73.0923 15.3677 73.3131 15.5881 73.4774C15.8089 73.6414 16.0595 73.7094 16.2417 73.7297C16.4256 73.7521 16.5455 73.7385 16.5514 73.7651Z" fill="#263238"/>
<g opacity="0.4">
<path d="M13.1623 71.5698C13.2629 71.4258 13.4619 71.3683 13.6322 71.3245C13.7713 71.3221 13.9122 71.32 14.0478 71.3511C14.1834 71.3823 14.3155 71.4507 14.3965 71.5638C14.4774 71.6774 14.496 71.84 14.4186 71.956C14.3572 72.0478 14.2493 72.0965 14.1435 72.1291C13.9676 72.1834 13.7815 72.2062 13.5975 72.1953C13.4304 72.1855 13.2496 72.1389 13.1507 72.0036C13.0474 71.8617 13.0617 71.7138 13.1623 71.5698Z" fill="#6F4439"/>
</g>
<g opacity="0.4">
<path d="M19.2432 71.4897C19.3437 71.3457 19.5428 71.2882 19.7131 71.2444C19.8522 71.242 19.9931 71.2399 20.1287 71.2711C20.2643 71.3022 20.3964 71.3706 20.4774 71.4838C20.5583 71.5973 20.5769 71.7599 20.4994 71.8759C20.4381 71.9677 20.3302 72.0164 20.2244 72.049C20.0484 72.1033 19.8624 72.1261 19.6784 72.1152C19.5109 72.1054 19.3304 72.0588 19.2316 71.9236C19.1282 71.7816 19.1426 71.6337 19.2432 71.4897Z" fill="#6F4439"/>
</g>
<path d="M7.14432 66.6189C7.1317 65.9394 7.39978 65.2757 7.79891 64.7259C8.1984 64.1761 8.40409 63.0803 8.95216 62.6787C10.1306 61.8156 11.7766 61.7784 13.2042 61.4701C14.6318 61.1617 16.8514 60.3273 18.1764 60.942L21.5163 64.639C21.3768 65.2753 20.4002 65.617 20.0095 65.3461C19.6187 65.0749 19.4095 64.5647 19.4982 64.0972C18.7535 64.4606 17.2961 64.0338 17.0217 63.252C16.2803 64.2668 15.1691 64.5864 14.0943 63.9343C14.1167 64.6057 13.7663 65.2774 13.2032 65.6433C12.64 66.0091 11.8838 66.0564 11.2793 65.7635C11.607 66.2621 11.8267 66.8698 11.7076 67.4546C11.5884 68.0395 11.0463 68.5592 10.4527 68.4996C10.7705 68.8427 11.0375 69.2474 11.1423 69.703C11.2474 70.1585 11.1724 70.6701 10.8732 71.0297C10.5739 71.3892 10.0332 71.5535 9.61096 71.3528C9.26999 71.1905 9.0643 70.8422 8.87892 70.5131C8.57931 69.9812 8.27969 69.4492 7.97973 68.9173C7.57534 68.1993 7.15974 67.4431 7.14432 66.6189Z" fill="#263238"/>
<path d="M5.7164 66.2825C5.72902 66.286 5.75775 66.1234 5.88951 65.8634C6.02092 65.609 6.27568 65.2463 6.73544 65.001L6.76978 64.9828L6.75786 64.945C6.60157 64.4435 6.61594 63.756 6.96601 63.1361C7.30067 62.5141 8.03411 62.0403 8.85656 62.0165C9.10992 62.0088 9.35977 62.0424 9.58509 62.1121L9.68567 62.1433L9.672 62.0389C9.57738 61.324 9.84686 60.6344 10.2534 60.1813C10.6609 59.7163 11.2062 59.5064 11.6593 59.4503C12.118 59.3918 12.4922 59.4706 12.7344 59.5491C12.9783 59.6297 13.1016 59.703 13.1076 59.6921C13.1097 59.6882 13.0802 59.6683 13.0217 59.6325C12.9635 59.5961 12.8728 59.5502 12.7508 59.5029C12.5087 59.4083 12.126 59.3122 11.6491 59.3606C11.1788 59.4061 10.6006 59.6157 10.1647 60.101C9.73157 60.5724 9.44072 61.2949 9.53884 62.0568L9.62574 61.9835C9.3857 61.9085 9.12043 61.8724 8.85201 61.8805C7.98295 61.9047 7.205 62.4132 6.85738 63.0748C6.49469 63.7322 6.49224 64.453 6.66781 64.9734L6.69059 64.9173C6.21331 65.1864 5.9631 65.5726 5.84255 65.8403C5.78123 65.9766 5.75004 66.0884 5.73217 66.1641C5.71675 66.2408 5.7122 66.2815 5.7164 66.2825Z" fill="#455A64"/>
<path d="M0.953185 89.4946C0.953185 89.4946 0.226401 96.7284 0.291229 99.1008C0.356058 101.474 0.871888 105.964 0.871888 105.964L3.30629 106.31L5.32263 89.2588L0.953185 89.4946Z" fill="#AE7461"/>
<path d="M0.92065 106.463C0.92065 106.463 0.532736 111.058 0.592308 111.744C0.651881 112.43 2.59149 114.101 3.09855 114.071C3.60562 114.042 3.69532 113.952 3.57583 113.475C3.57583 113.475 4.02997 113.385 3.90733 112.878C3.78468 112.37 2.88969 111.774 2.88969 111.774L2.25718 111.356L2.0245 109.267C2.0245 109.267 2.45797 111.42 2.93525 111.539C3.41253 111.659 3.65747 111.517 3.61226 110.67C3.57267 109.925 3.36733 108.044 3.36733 107.059C3.36733 106.075 3.21804 105.239 3.21804 105.239H0.950444L0.92065 106.463Z" fill="#AE7461"/>
<path d="M22.1504 84.506L23.57 103.897C23.57 103.897 18.4089 107.945 12.2947 107.101C6.18051 106.258 3.92868 102.129 3.92868 102.129C3.92868 102.129 4.7697 94.791 4.87588 91.9711C5.00484 88.545 4.81385 81.1913 4.81385 81.1913L9.19277 79.4883C9.19277 79.4883 11.1317 81.7846 13.5773 81.4475C16.0229 81.1104 16.825 79.4883 16.825 79.4883L19.2752 79.5542L22.1504 84.506Z" fill="#1C8583"/>
<path d="M19.2356 79.5537C19.2356 79.5537 20.815 79.5586 22.8264 80.7206C23.9103 81.3468 29.0048 85.5667 29.0048 85.5667C29.0048 85.5667 26.2897 93.3335 26.2897 93.2045L21.322 90.0475L19.2356 79.5537Z" fill="#1C8583"/>
<path d="M4.93008 81.1484C4.93008 81.1484 3.12435 81.3415 1.9266 84.1172C1.61857 84.8307 0.000305653 91.6163 0.000305653 91.6163L6.2617 92.3291L6.45514 83.4851L4.93008 81.1484Z" fill="#1C8583"/>
<path d="M22.0951 84.0899C22.0698 84.092 22.0838 84.5692 22.1262 85.3384C22.1686 86.1076 22.2401 87.1694 22.3302 88.3409C22.4202 89.5127 22.5121 90.5727 22.5874 91.3394C22.6627 92.1062 22.7223 92.5796 22.7472 92.5778C22.7724 92.5761 22.7588 92.0995 22.716 91.3303C22.6736 90.5611 22.6021 89.499 22.5121 88.3265C22.422 87.1543 22.3302 86.0939 22.2548 85.3272C22.1792 84.5605 22.1199 84.0874 22.0951 84.0899Z" fill="#263238"/>
<path d="M0.000529766 91.6164C-0.000871658 91.6291 0.172938 91.6606 0.488321 91.7076C0.838746 91.7552 1.28799 91.8158 1.82624 91.8891C2.95706 92.0345 4.52136 92.223 6.25176 92.42L6.35058 92.4312L6.35338 92.3313L6.35408 92.3026C6.40875 90.5603 6.52964 88.9778 6.52824 87.8294C6.53175 87.2554 6.51879 86.7907 6.49426 86.4701C6.47148 86.1498 6.44589 85.9736 6.43433 85.9746C6.42031 85.9757 6.42242 86.153 6.42312 86.4726C6.42557 86.7925 6.41926 87.2551 6.39928 87.8266C6.36774 88.9704 6.22688 90.5452 6.17151 92.2984L6.17081 92.3271L6.27243 92.2385C4.54203 92.0415 2.97528 91.8737 1.84096 91.7608C1.2999 91.7111 0.848551 91.6694 0.496374 91.6368C0.178188 91.6119 0.00193167 91.6038 0.000529766 91.6164Z" fill="#263238"/>
<path d="M3.7436 102.129L13.628 104.487L23.4673 100.947L23.7066 103.54C23.9733 106.43 23.899 109.339 23.4837 112.211C22.1833 121.204 19.6932 140.797 19.6932 140.797L12.9773 140.554L13.1693 136.851L14.0952 114.601C14.1106 114.227 13.6473 113.976 13.2517 114.143L13.1049 114.205L12.2474 133.043V140.555L5.52972 140.741C5.52972 140.741 5.17964 136.332 4.77 131.745C4.36035 127.159 3.48989 110.28 3.35848 108.644C3.22672 107.008 3.7436 102.129 3.7436 102.129Z" fill="#263238"/>
<path d="M23.729 106.423L23.4669 100.947L21.8437 100.199L20.8355 88.5586L8.43926 89.2093L7.26534 101.285L3.92824 102.129L3.35319 107.184L8.36392 111.135L15.6629 111.606L21.2697 110.738L23.729 106.423Z" fill="#263238"/>
<path d="M8.61413 79.7503C8.61413 79.7503 9.49475 82.5071 10.2867 86.878C10.7784 89.5913 10.5832 90.3843 10.5832 90.3843L8.42314 90.4709C8.42314 90.4709 8.50234 87.671 8.01665 85.2397C7.48225 82.566 6.56204 80.4557 6.56204 80.4557C7.02951 79.9834 8.68351 79.7398 8.61413 79.7503Z" fill="#263238"/>
<path d="M19.0589 79.4882C19.0589 79.4882 19.6932 80.7424 20.1841 85.327C20.4778 88.0691 20.6043 89.4438 20.6043 89.4438L18.8315 89.4946C18.8315 89.4946 18.6258 86.7417 18.3255 84.281C17.9779 81.4313 17.3327 79.4886 17.3327 79.4886C18.513 79.1893 19.0589 79.4882 19.0589 79.4882Z" fill="#263238"/>
<path d="M19.0554 91.651C19.0586 91.6479 19.0116 91.6468 18.9181 91.6479C18.8094 91.6503 18.6717 91.6531 18.5007 91.657C18.1128 91.6689 17.5752 91.6857 16.9021 91.7064C15.4958 91.7589 13.5264 91.8322 11.1922 91.9191L11.1141 91.9219V92.0007C11.1113 93.7469 11.1081 95.7201 11.1046 97.8097V97.8717L11.1625 97.8945C11.3033 97.9502 11.4554 98.0105 11.6078 98.0711C12.9079 98.5852 14.1638 99.0814 15.3448 99.5482L15.3823 99.5629L15.4177 99.5443C16.819 98.8025 18.1114 98.1185 19.2503 97.5157L19.2913 97.494L19.2895 97.4484C19.2247 95.6886 19.1714 94.2364 19.1336 93.2037C19.1122 92.7167 19.095 92.3291 19.0828 92.0456C19.0761 91.925 19.0705 91.8269 19.0663 91.747C19.0617 91.6811 19.0582 91.6486 19.0554 91.651C19.053 91.6538 19.0512 91.692 19.0505 91.7635C19.0505 91.8472 19.0509 91.9499 19.0509 92.0761C19.0544 92.3638 19.0589 92.7569 19.0645 93.2514C19.0835 94.2732 19.1101 95.7107 19.1427 97.4526L19.1819 97.3854C18.0392 97.9807 16.7426 98.6564 15.3364 99.3894L15.4093 99.3856C14.2294 98.9167 12.9745 98.4177 11.6751 97.9015C11.5227 97.8409 11.3706 97.781 11.2297 97.7249L11.2876 97.8097C11.2841 95.7205 11.2809 93.7469 11.2781 92.0007L11.1999 92.0824C13.5103 91.9625 15.4597 91.8616 16.8516 91.7894C17.5318 91.7502 18.0753 91.7186 18.4674 91.6959C18.6447 91.6839 18.7877 91.6745 18.9005 91.6671C18.9997 91.6598 19.0526 91.6545 19.0554 91.651Z" fill="#455A64"/>
<path d="M3.58247 106.793C3.59053 106.814 3.84669 106.742 4.23496 106.557C4.62253 106.374 5.13626 106.067 5.63772 105.642C6.13813 105.216 6.52429 104.758 6.76784 104.405C7.01208 104.052 7.12492 103.811 7.10599 103.8C7.05799 103.766 6.50572 104.674 5.51997 105.503C4.54193 106.342 3.55759 106.74 3.58247 106.793Z" fill="#455A64"/>
<path d="M45.1751 76.78C45.0812 76.8466 44.6606 77.4178 44.5885 78.4165C44.5163 79.4152 43.773 80.6589 43.773 80.6589C43.773 80.6589 42.0356 83.1616 41.4388 83.9392C40.8421 84.7168 40.2169 85.3511 39.7985 84.6775C39.3801 84.004 39.6321 83.4241 40.8021 82.0704L41.1518 81.0857L40.3452 81.2995L38.2552 83.2555C38.2552 83.2555 38.291 85.9545 37.8137 86.2369C37.3364 86.5194 37.1395 86.1956 37.1395 86.1956L36.7025 86.1816L36.1225 82.5617L38.0422 79.1216L41.7374 75.9369L43.7177 73.623L46.3679 76.3315L45.1751 76.78Z" fill="#FFBF9D"/>
<path d="M40.6511 81.9004C41.2769 82.0609 41.463 80.7054 41.3582 80.0288C41.3236 79.8041 41.217 79.5497 40.9949 79.5014C40.8074 79.4607 40.6181 79.597 40.533 79.7687C40.4482 79.9405 40.4429 80.1395 40.4398 80.3312C40.4633 80.1924 40.4871 80.0498 40.4577 79.9121C40.4286 79.7744 40.3336 79.6412 40.1966 79.6093C39.9849 79.5599 39.8003 79.76 39.7 79.9527C39.502 80.3326 39.4243 80.7619 39.3489 81.1838C39.3871 81.0373 39.4257 80.8866 39.4064 80.7366C39.3871 80.5866 39.296 80.4356 39.1509 80.3918C39.0129 80.3501 38.8604 80.4167 38.7623 80.5222C38.6642 80.6276 38.6109 80.7664 38.5654 80.9031C38.3046 81.6845 38.2275 82.5266 38.3425 83.342C38.736 83.3795 39.1425 83.177 39.3496 82.8402C39.6457 82.9429 39.9905 82.8921 40.2446 82.7085C40.499 82.5252 40.6556 82.214 40.6511 81.9004Z" fill="#AE7461"/>
<path d="M39.4136 80.764C39.3614 80.777 39.4494 81.2459 39.4249 81.8244C39.4059 82.4033 39.2833 82.8641 39.3341 82.881C39.3775 82.8995 39.5864 82.4419 39.6071 81.8311C39.6323 81.2206 39.4581 80.7486 39.4136 80.764Z" fill="#6F4439"/>
<path d="M40.5462 79.9583C40.4954 79.9702 40.5613 80.418 40.5956 80.9706C40.6328 81.5236 40.6251 81.976 40.6769 81.9813C40.725 81.9872 40.8157 81.5292 40.7779 80.9591C40.7421 80.3886 40.5932 79.946 40.5462 79.9583Z" fill="#6F4439"/>
<path d="M59.2368 17.2109C57.6179 18.4861 56.6941 20.5943 56.8536 22.6488C56.931 23.6468 57.2061 24.7861 56.5571 25.5479C55.9144 26.302 54.6522 26.2803 54.0362 27.0565C53.3108 27.9704 53.9184 29.33 53.6587 30.4675C53.4152 31.5353 52.2889 32.322 51.2026 32.1835C52.4761 33.2236 54.0414 33.9027 55.6709 34.1224C56.0875 33.5873 56.5042 33.0526 56.9212 32.5172C56.4474 33.0792 56.5732 33.9749 57.0323 34.5489C57.4913 35.1229 58.1996 35.4358 58.9004 35.658C62.2477 36.7198 66.0845 36.096 68.9229 34.0289" fill="#263238"/>
<path d="M78.001 26.0294C77.7511 25.2645 77.3313 24.5552 77.1631 23.7678C76.8015 22.076 77.6257 20.1714 76.805 18.6484C76.2208 17.5646 74.9761 17.0337 73.799 16.671C72.6223 16.3087 71.359 16.0013 70.4816 15.1375C69.8378 14.504 69.4716 13.6314 68.83 12.9957C67.9157 12.0899 66.5663 11.7829 65.2816 11.7037C63.9626 11.6228 62.5984 11.7496 61.4119 12.3317C60.2253 12.9141 59.2403 14.0071 59.0286 15.3117C58.9256 15.9477 59.0037 16.6146 58.8033 17.2271C58.5829 17.9006 58.0537 18.4245 57.7278 19.0535C57.0386 20.383 57.4121 22.1734 58.5755 23.1164L67.6323 34.8157C69.5347 35.5344 74.1449 34.665 75.6153 33.2601C77.0857 31.8549 78.6324 27.9627 78.001 26.0294Z" fill="#263238"/>
<path d="M58.8149 21.6305C59.1881 18.9747 61.2083 15.8359 63.8459 16.3216L71.9887 19.0588C72.7901 19.2063 72.2165 20.513 72.138 21.3243L70.3677 39.6876C70.381 39.6918 71.4676 40.4729 71.8605 40.3222C71.9624 40.2833 72.0539 40.3976 71.9919 40.4876C71.0138 41.9075 66.3977 48.115 61.6403 46.2199C60.5775 45.7966 61.7514 42.4475 61.627 41.207L61.7682 38.0378C61.8734 36.4199 61.9245 35.7569 61.9224 35.7716C61.9224 35.7716 58.5562 34.9435 58.1918 30.4402C58.0099 28.2007 58.4 24.5815 58.8149 21.6305Z" fill="#FFBF9D"/>
<path d="M59.8322 25.9239C59.7986 26.2246 60.025 26.5007 60.3383 26.5417C60.6508 26.5827 60.9322 26.3731 60.9659 26.0725C60.9995 25.7722 60.7731 25.4953 60.4606 25.4543C60.1473 25.4133 59.8659 25.6236 59.8322 25.9239Z" fill="#263238"/>
<path d="M65.3188 26.2677C65.2848 26.5683 65.5115 26.8445 65.8248 26.8855C66.1373 26.9265 66.4187 26.7169 66.4524 26.4162C66.486 26.1159 66.2596 25.8391 65.9471 25.7981C65.6338 25.7571 65.3524 25.967 65.3188 26.2677Z" fill="#263238"/>
<path d="M59.1772 23.8373C59.2393 23.9417 59.7702 23.606 60.4346 23.7031C61.1 23.7886 61.5258 24.2557 61.6123 24.1713C61.6544 24.1345 61.6029 23.9543 61.4186 23.7444C61.2374 23.5359 60.908 23.311 60.4938 23.2538C60.0792 23.1974 59.7032 23.325 59.4748 23.4778C59.2417 23.6302 59.1461 23.79 59.1772 23.8373Z" fill="#263238"/>
<path d="M65.1457 24.3302C65.2242 24.4262 65.7467 24.0474 66.4612 24.0779C67.1761 24.0971 67.6828 24.5124 67.7648 24.4216C67.8047 24.3813 67.7294 24.2107 67.5079 24.0232C67.291 23.8364 66.9157 23.6489 66.47 23.6328C66.0242 23.6177 65.6416 23.7786 65.4177 23.95C65.1899 24.122 65.1072 24.2871 65.1457 24.3302Z" fill="#263238"/>
<path d="M62.9047 28.5393C62.9099 28.5046 62.5336 28.4093 61.9214 28.2828C61.7658 28.2544 61.6197 28.212 61.6018 28.103C61.5734 27.9867 61.6519 27.823 61.742 27.6464C61.9186 27.2784 62.1033 26.8926 62.2974 26.4882C63.0718 24.8381 63.6451 23.4763 63.5785 23.4458C63.512 23.415 62.8297 24.728 62.0552 26.3782C61.8681 26.7854 61.689 27.1737 61.5187 27.5451C61.4455 27.7186 61.3281 27.9127 61.3901 28.1542C61.4234 28.2743 61.5317 28.3683 61.6302 28.4033C61.7283 28.4415 61.8163 28.4503 61.8937 28.4608C62.5136 28.5414 62.8998 28.574 62.9047 28.5393Z" fill="#263238"/>
<path d="M61.9221 35.7712C61.9221 35.7712 64.9 36.1941 68.0023 34.6396C68.0023 34.6396 66.2649 37.6466 61.844 36.8883L61.9221 35.7712Z" fill="#FF9A6C"/>
<path d="M64.7778 30.3309C64.6947 30.1883 64.6054 30.0394 64.4627 29.9563C64.3054 29.8649 64.1102 29.8694 63.9312 29.9027C63.6708 29.9514 63.4143 30.0611 63.2356 30.2566C63.0568 30.4522 62.9699 30.7427 63.06 30.9915C63.1287 31.2483 63.5117 31.3889 63.7738 31.4348C64.0356 31.4807 64.3072 31.4043 64.5391 31.2739C64.7336 31.1646 64.9208 30.9901 64.9309 30.7672C64.9379 30.6113 64.8566 30.4662 64.7778 30.3309Z" fill="#FF9A6C"/>
<path d="M64.652 29.466C64.5525 29.4527 64.4999 30.1189 63.8933 30.5481C63.2874 30.9792 62.5827 30.8495 62.5705 30.9424C62.5578 30.9834 62.7187 31.0839 63.0179 31.1151C63.3112 31.1477 63.7482 31.0864 64.1193 30.8239C64.4897 30.5604 64.6691 30.1851 64.713 29.9135C64.7596 29.6367 64.6975 29.466 64.652 29.466Z" fill="#263238"/>
<path d="M65.1997 21.927C65.2473 22.0987 65.8665 22.0665 66.58 22.2087C67.2966 22.3366 67.8612 22.5921 67.9684 22.4495C68.0164 22.3811 67.9274 22.2164 67.7049 22.0367C67.4844 21.8576 67.1249 21.6754 66.696 21.5941C66.2671 21.5135 65.8662 21.5517 65.5957 21.6382C65.3227 21.7252 65.1797 21.846 65.1997 21.927Z" fill="#263238"/>
<path d="M59.5557 21.5911C59.6685 21.74 60.163 21.6324 60.7447 21.6702C61.3274 21.6902 61.811 21.8465 61.9354 21.7095C61.9904 21.6426 61.9235 21.4968 61.7189 21.3482C61.517 21.2003 61.1708 21.0658 60.7706 21.0454C60.3704 21.0258 60.0147 21.1257 59.8013 21.2529C59.5848 21.3804 59.5063 21.5189 59.5557 21.5911Z" fill="#263238"/>
<path d="M73.7892 19.6991C73.3785 19.0666 72.6402 18.7414 71.9369 18.4702C68.9033 17.2991 65.7298 16.4906 62.5059 16.0684C62.1043 16.73 62.4754 17.6309 63.0817 18.1127C63.6875 18.5946 64.4662 18.7849 65.1912 19.0561C65.9162 19.3273 66.6595 19.745 66.9584 20.4592C67.2762 21.2189 67.0078 22.1184 67.2871 22.8929C67.7672 24.2256 69.6269 24.6555 70.0996 25.9906C70.457 27.0006 69.8722 28.0757 69.7257 29.1371C69.56 30.3398 70.0054 31.6111 70.8853 32.4476C71.5791 33.1071 72.5295 33.4771 73.4851 33.4953C73.7058 29.6712 73.9266 25.847 74.147 22.0228C74.1929 21.2263 74.2238 20.3681 73.7892 19.6991Z" fill="#263238"/>
<path d="M81.4933 29.3593C80.8895 28.8179 80.1323 28.3497 79.8915 27.5753C79.5408 26.4472 80.447 25.1216 79.8635 24.0941C79.3312 23.1571 77.7638 23.2048 77.269 22.2474C76.8828 21.4999 77.3261 20.8383 77.1796 20.1816C77.0328 19.5253 76.101 18.9492 75.4327 19.0277L70.2103 26.5969C69.7254 29.1361 69.2376 30.4876 69.7825 31.9727C70.0814 32.7875 70.4714 33.5815 70.5885 34.4415C70.7055 35.3014 70.4858 36.2756 69.7828 36.7844C72.9051 37.0294 75.8315 35.395 78.5357 33.8149C79.4896 33.2574 80.4438 32.6999 81.398 32.1427C81.6959 31.9685 82.006 31.7828 82.1844 31.4874C82.6038 30.7936 82.0975 29.9003 81.4933 29.3593Z" fill="#263238"/>
<path d="M78.6143 33.0501C78.6143 33.0501 78.5032 33.0914 78.2806 33.1142C78.0595 33.1366 77.7235 33.1464 77.3082 33.0452C76.8968 32.945 76.3975 32.7347 75.9514 32.3149C75.5053 31.9017 75.1457 31.2566 75.0585 30.4895C75.0161 30.1072 75.0417 29.6972 75.1608 29.2918C75.281 28.8846 75.507 28.5065 75.7408 28.1312C75.9713 27.7548 76.223 27.369 76.3389 26.9271C76.4535 26.4929 76.4546 25.9771 76.1718 25.6028C75.8879 25.2223 75.3602 25.1294 74.8707 24.9318C74.6243 24.8333 74.3699 24.6805 74.2049 24.4387C74.0402 24.1976 73.9844 23.9008 73.99 23.6198C73.9967 23.0479 74.2402 22.5254 74.345 21.9935C74.3983 21.7271 74.4179 21.4514 74.3499 21.1959C74.2837 20.9408 74.1229 20.7169 73.8993 20.5627C73.4486 20.2406 72.8732 20.1895 72.3196 20.1408C71.7627 20.1008 71.1803 19.9754 70.7101 19.6673C70.2345 19.3737 69.8533 18.9525 69.6087 18.4735C69.3665 17.9888 69.2789 17.4681 69.2022 16.9768C69.1268 16.4841 69.0592 16.0051 68.8963 15.573C68.733 15.143 68.4698 14.7698 68.1618 14.466C67.5321 13.8668 66.7366 13.5479 66.0014 13.488C65.2613 13.4256 64.5895 13.6215 64.0674 13.8909C63.5404 14.1604 63.1465 14.5003 62.8648 14.807C62.302 15.4307 62.1446 15.8873 62.1212 15.8722C62.1183 15.8708 62.1285 15.8435 62.1509 15.7913C62.1751 15.7398 62.2046 15.6592 62.2592 15.5621C62.3605 15.3638 62.534 15.081 62.8122 14.7596C63.0904 14.4404 63.485 14.0858 64.0205 13.8005C64.5513 13.516 65.2406 13.3033 66.0116 13.3597C66.7755 13.414 67.6032 13.7361 68.2662 14.3574C68.5907 14.6724 68.8707 15.0631 69.0455 15.5162C69.2197 15.9697 69.2901 16.4606 69.3676 16.9505C69.4457 17.4397 69.5347 17.9419 69.7636 18.3946C69.9948 18.8438 70.3554 19.2402 70.804 19.5156C71.2508 19.8044 71.781 19.9193 72.3367 19.9603C72.8845 20.0094 73.5002 20.056 74.0048 20.4145C74.2553 20.5862 74.4502 20.8532 74.5255 21.1493C74.6033 21.4454 74.5784 21.7485 74.5227 22.0282C74.4081 22.5916 74.173 23.0977 74.1681 23.6233C74.1625 23.8816 74.2129 24.1374 74.3503 24.3396C74.488 24.5418 74.7032 24.6767 74.9372 24.7713C75.1706 24.8698 75.4212 24.937 75.663 25.0397C75.9034 25.1385 76.1441 25.2836 76.305 25.5012C76.6319 25.9431 76.6165 26.5073 76.4935 26.9678C76.3642 27.4433 76.1007 27.8361 75.8687 28.2107C75.6325 28.5839 75.4121 28.948 75.295 29.3321C75.1783 29.7165 75.1496 30.1083 75.1864 30.4752C75.2624 31.2117 75.5988 31.8362 76.0222 32.2409C76.4455 32.6527 76.9266 32.8679 77.3261 32.9758C78.1415 33.1839 78.6164 33.0175 78.6143 33.0501Z" fill="white"/>
<path d="M82.7794 27.669C82.7794 27.669 82.8421 27.7454 82.8824 27.9241C82.9234 28.0997 82.9182 28.3895 82.7482 28.6985C82.6606 28.8489 82.533 29.0052 82.3487 29.1187C82.1658 29.2315 81.9328 29.3006 81.6819 29.2964C81.1846 29.3016 80.599 29.002 80.3141 28.428C80.1698 28.1477 80.0916 27.819 80.0916 27.4763C80.0923 27.1314 80.181 26.7821 80.3113 26.4443C80.5591 25.7686 81.009 25.1102 81.0189 24.3203C81.0276 23.9377 80.9379 23.5221 80.6565 23.247C80.3783 22.9649 79.9487 22.8962 79.5215 22.8924C79.0936 22.878 78.6272 22.9327 78.1695 22.7522C77.9449 22.6611 77.7424 22.495 77.6138 22.284C77.4827 22.0741 77.4144 21.8348 77.3853 21.5951C77.3278 21.108 77.4414 20.6475 77.4981 20.2067C77.5668 19.7659 77.5395 19.3317 77.4259 18.9199C77.1968 18.0985 76.6463 17.4086 75.9727 17.0129C75.2957 16.6047 74.5129 16.5609 73.8075 16.5185C73.0971 16.481 72.4114 16.4365 71.8311 16.2069C71.2508 15.9904 70.7847 15.6634 70.4318 15.3267C70.0747 14.9913 69.8329 14.6409 69.6654 14.3427C69.3343 13.7379 69.2936 13.3517 69.2936 13.3517C69.3157 13.3436 69.3826 13.7242 69.7268 14.3073C69.9009 14.595 70.1459 14.9321 70.5012 15.2524C70.8523 15.5744 71.311 15.8842 71.8752 16.0864C72.4369 16.3002 73.1024 16.337 73.8155 16.3681C74.5209 16.4049 75.3332 16.4396 76.0575 16.8686C76.7717 17.2835 77.3527 18.005 77.598 18.8726C77.72 19.304 77.7487 19.7774 77.6779 20.2309C77.619 20.6826 77.5121 21.1315 77.5661 21.5737C77.611 22.0138 77.8384 22.433 78.2389 22.5854C78.6332 22.7448 79.0866 22.7017 79.5257 22.7147C79.9588 22.7192 80.4508 22.79 80.7795 23.1243C81.1079 23.4516 81.1976 23.9163 81.1871 24.3249C81.179 24.7415 81.0553 25.1379 80.9011 25.4883C80.7497 25.8422 80.5808 26.1709 80.4526 26.4993C80.3229 26.8262 80.2367 27.157 80.2325 27.478C80.229 27.799 80.2987 28.1081 80.4294 28.3706C80.6867 28.9067 81.22 29.1895 81.6843 29.1958C81.917 29.2046 82.1336 29.145 82.3049 29.0455C82.477 28.9456 82.6007 28.803 82.6879 28.6639C82.8575 28.3776 82.8751 28.1025 82.847 27.9318C82.819 27.7566 82.7699 27.6732 82.7794 27.669Z" fill="#263238"/>
<path d="M49.8696 29.5346C49.8987 29.5325 49.7007 29.8338 49.8798 30.3511C49.9699 30.5943 50.1731 30.8907 50.5288 31.0092C50.8747 31.1276 51.3565 31.0362 51.675 30.6959C51.8345 30.5291 51.9273 30.2961 51.9435 30.042C51.9603 29.7879 51.9098 29.5188 51.824 29.2514C51.6582 28.7226 51.3201 28.1476 51.3716 27.4583C51.4094 26.7897 51.7483 26.1057 52.3212 25.6536C52.6047 25.4262 52.9369 25.2517 53.2944 25.141C53.6528 25.0257 54.0348 25.0001 54.4066 24.9812C54.7795 24.9619 55.146 24.9521 55.4863 24.8683C55.8244 24.7874 56.1317 24.6139 56.3266 24.3462C56.5221 24.0792 56.6076 23.747 56.6304 23.4221C56.6535 23.0941 56.6139 22.7721 56.5494 22.4588C56.4215 21.8347 56.2348 21.2285 56.2695 20.6317C56.3006 20.0388 56.526 19.5121 56.8273 19.1147C57.1294 18.7096 57.5201 18.4619 57.845 18.2551C58.1744 18.0487 58.4551 17.8707 58.6587 17.693C59.076 17.3405 59.1479 17.0213 59.1703 17.0356C59.1731 17.0367 59.1685 17.0552 59.157 17.0903C59.1433 17.1246 59.1307 17.18 59.0946 17.2434C59.0333 17.3752 58.9106 17.5585 58.706 17.7456C58.5041 17.9366 58.2234 18.1265 57.9003 18.3403C57.5797 18.5554 57.2104 18.8021 56.9304 19.1918C56.6497 19.5752 56.4429 20.0798 56.4201 20.639C56.3928 21.2011 56.5775 21.7895 56.7138 22.4255C56.7818 22.7437 56.827 23.0854 56.8039 23.434C56.7811 23.7803 56.6921 24.1461 56.4703 24.4517C56.2491 24.7593 55.8949 24.957 55.5297 25.0442C55.1625 25.1346 54.7865 25.1434 54.4154 25.163C54.0443 25.182 53.6833 25.2065 53.3473 25.3141C53.0109 25.4174 52.6983 25.5811 52.4323 25.7927C51.8958 26.2129 51.5783 26.8479 51.5384 27.4688C51.483 28.0989 51.7963 28.6508 51.9673 29.2062C52.0535 29.4859 52.1054 29.7729 52.0829 30.0525C52.0623 30.3307 51.9515 30.5992 51.7679 30.7842C51.4038 31.1581 50.8771 31.2447 50.4952 31.1052C50.103 30.9622 49.8977 30.6346 49.8122 30.3742C49.7235 30.1054 49.7477 29.879 49.782 29.7385C49.8223 29.597 49.8696 29.5346 49.8696 29.5346Z" fill="#263238"/>
<path d="M67.4598 139.684L67.4622 140.076C67.4622 140.076 60.6234 142.806 60.5627 144.066L74.1939 143.872L73.9419 139.488C71.9291 140.425 69.8094 140.557 67.4598 139.684Z" fill="#263238"/>
<path d="M74.1939 143.872L74.1333 142.817L61.0908 143.389C61.0908 143.389 60.4877 143.653 60.5627 144.066L74.1939 143.872Z" fill="#455A64"/>
<path d="M67.4149 140.113C67.4181 140.177 67.7514 140.201 68.0822 140.404C68.4182 140.598 68.5913 140.874 68.6523 140.848C68.7133 140.834 68.6081 140.451 68.2034 140.213C67.8008 139.971 67.3995 140.054 67.4149 140.113Z" fill="white"/>
<path d="M65.9941 140.705C65.9797 140.768 66.2698 140.873 66.5001 141.142C66.7384 141.405 66.8 141.698 66.8663 141.694C66.929 141.703 66.9693 141.326 66.6763 140.997C66.3865 140.665 65.9944 140.643 65.9941 140.705Z" fill="white"/>
<path d="M65.2068 142.371C65.2675 142.384 65.3554 142.061 65.1788 141.711C65.005 141.36 64.6889 141.225 64.6619 141.279C64.6251 141.332 64.8301 141.519 64.9703 141.808C65.1175 142.095 65.1406 142.366 65.2068 142.371Z" fill="white"/>
<path d="M72.1112 132.265L73.192 142.441L78.2458 139.427L76.9976 131.762L72.1112 132.265Z" fill="#263238"/>
<path d="M78.1859 139.023C78.1859 139.023 74.8039 142.336 72.9544 140.511L72.6166 141.509L71.3477 148.516C71.2657 148.97 71.5341 149.437 72.0026 149.562C72.3636 149.658 72.7403 149.55 72.9793 149.291C74.2604 147.901 78.947 142.769 78.8342 142.142L78.6488 140.467C78.6103 140.12 78.2623 139.294 78.2623 139.219L78.1859 139.023Z" fill="#263238"/>
<path d="M72.1755 149.592L78.7799 141.558L78.8146 141.924C78.8907 142.317 78.7221 142.491 78.5469 142.764C78.0283 143.572 76.553 145.409 73.0077 149.288C72.8013 149.514 72.4881 149.628 72.1755 149.592Z" fill="#455A64"/>
<path d="M73.9167 145.63C73.8669 145.658 73.6171 145.224 73.0484 145.028C72.4859 144.817 71.9901 144.984 71.9736 144.932C71.9634 144.911 72.0735 144.834 72.2858 144.786C72.4957 144.738 72.809 144.739 73.1216 144.85C73.4335 144.963 73.6672 145.159 73.7888 145.326C73.9125 145.494 73.9388 145.621 73.9167 145.63Z" fill="white"/>
<path d="M73.3722 146.845C73.3319 146.886 73.0109 146.631 72.5238 146.545C72.0392 146.448 71.6373 146.568 71.6173 146.515C71.5868 146.474 72.0112 146.251 72.5645 146.358C73.1189 146.459 73.4178 146.817 73.3722 146.845Z" fill="white"/>
<path d="M74.9935 144.038C74.9546 144.083 74.4626 143.688 73.7183 143.492C72.9772 143.284 72.3359 143.371 72.3285 143.313C72.3093 143.268 72.98 143.088 73.7754 143.308C74.5727 143.521 75.0356 144.01 74.9935 144.038Z" fill="white"/>
<path d="M72.7852 139.366C72.8129 139.366 72.837 139.787 72.8531 140.45V140.454L72.8521 140.462C72.7796 140.928 72.6783 141.524 72.5612 142.171C72.4225 142.938 72.2872 143.629 72.181 144.129C72.0749 144.629 71.9971 144.936 71.9736 144.932C71.9501 144.928 71.9851 144.613 72.0605 144.109C72.1362 143.604 72.2522 142.909 72.3909 142.143C72.508 141.495 72.6226 140.901 72.7182 140.439L72.7172 140.45C72.733 139.787 72.7575 139.366 72.7852 139.366Z" fill="#455A64"/>
<path d="M81.0433 87.5157C82.7586 79.5085 77.4763 71.3232 77.4763 71.3232L63.7334 82.1493C63.7334 82.1493 60.8234 114.552 62.543 118.754C64.2622 122.956 72.5112 140.102 72.5112 140.102L78.8363 138.619C78.8363 138.619 76.4927 124.646 74.6148 121.1C73.2628 118.548 71.0509 117.335 72.0826 114.008C73.1146 110.682 79.6399 94.0669 81.0433 87.5157Z" fill="#263238"/>
<path d="M52.6606 74.8445C52.656 74.841 52.6462 74.8337 52.6469 74.834C53.2493 72.5801 54.9996 68.0593 55.964 66.0254C55.964 66.0254 60.2574 69.4175 64.1752 70.2014C68.0929 70.9853 76.8217 67.3405 76.8217 67.3405L78.3744 72.9183L65.8229 81.1851C66.2903 82.1197 67.3472 84.7973 66.6467 88.878C65.7636 94.0208 67.5298 108.248 70.1089 117.353C72.688 126.458 72.8534 139.974 72.8534 139.974C71.1332 140.919 69.2423 140.657 67.4601 139.684C67.4601 139.684 66.1915 136.295 64.4758 130.628C62.1255 122.865 61.8561 120.33 61.684 117.878C61.5119 115.427 59.0155 106.325 54.5451 94.9435C50.4448 84.5058 52.321 76.1576 52.6606 74.8445Z" fill="#263238"/>
<path d="M59.8712 76.7208C59.8733 76.7193 59.8972 76.7491 59.9427 76.8091C59.9914 76.8746 60.0573 76.9632 60.1425 77.0778C60.3205 77.3224 60.5767 77.675 60.9085 78.1312C61.5771 79.0616 62.5485 80.4128 63.7767 82.1208L63.7872 82.1355L63.7855 82.153C63.646 83.6466 63.5931 85.3812 63.4974 87.3127C63.4025 89.2439 63.2977 91.3706 63.1856 93.6536C63.0619 95.937 62.9301 98.377 62.7917 100.934C62.6343 103.491 62.4991 106.164 62.2345 108.914C61.9591 111.202 61.7155 113.449 61.9174 115.609C61.9689 116.148 62.0372 116.68 62.1424 117.201C62.251 117.719 62.3502 118.244 62.5338 118.727C62.9084 119.697 63.3433 120.636 63.7554 121.55C65.4248 125.203 66.9884 128.468 68.2906 131.214C69.5969 133.953 70.6552 136.171 71.3904 137.712C71.7524 138.475 72.0345 139.069 72.2293 139.48C72.3215 139.678 72.3926 139.832 72.4438 139.942C72.4915 140.046 72.5118 140.101 72.5118 140.101C72.5118 140.101 72.4806 140.051 72.4277 139.949C72.3727 139.841 72.2963 139.69 72.1974 139.494C71.9956 139.087 71.7033 138.497 71.3287 137.74C70.582 136.204 69.5062 133.994 68.1784 131.264C66.8619 128.524 65.2864 125.264 63.6082 121.612C63.1926 120.696 62.7587 119.766 62.3754 118.777C62.1858 118.278 62.0873 117.757 61.9763 117.231C61.8694 116.705 61.7996 116.167 61.7471 115.623C61.541 113.442 61.786 111.18 62.0611 108.895C62.3246 106.157 62.4623 103.479 62.6224 100.924C62.7658 98.3679 62.9024 95.9286 63.0307 93.6456C63.1509 91.3629 63.263 89.2369 63.365 87.306C63.4691 85.3769 63.5321 83.6395 63.6825 82.145L63.6916 82.1772C62.4805 80.4577 61.5228 79.0977 60.8633 78.1613C60.5413 77.6988 60.2925 77.3414 60.1197 77.0933C60.0395 76.9752 59.9774 76.8844 59.9315 76.8168C59.8891 76.7547 59.8691 76.7222 59.8712 76.7208Z" fill="#455A64"/>
<path d="M56.6873 100.627C56.6901 100.626 56.6834 100.598 56.6673 100.546C56.647 100.484 56.6221 100.409 56.592 100.317C56.517 100.103 56.4154 99.8108 56.2868 99.4422C56.0187 98.6839 55.6297 97.5867 55.1665 96.2253C54.705 94.8635 54.1695 93.2372 53.647 91.4104C53.127 89.5844 52.6045 87.5575 52.2674 85.394C51.5792 81.0571 52.0887 77.0381 52.8228 74.2771C53.195 72.8915 53.6032 71.8 53.9326 71.0679C54.0819 70.6947 54.2329 70.421 54.3174 70.2269C54.3573 70.1389 54.3903 70.0668 54.4173 70.0075C54.439 69.9574 54.4484 69.9311 54.4456 69.9297C54.4428 69.9283 54.4278 69.9518 54.4008 69.9988C54.3692 70.0559 54.3314 70.1253 54.2848 70.2101C54.1895 70.3993 54.0276 70.6684 53.8678 71.0388C53.5174 71.7646 53.0881 72.8544 52.6981 74.2435C51.9275 77.0108 51.3938 81.0543 52.0866 85.422C52.4254 87.5978 52.9549 89.6292 53.4851 91.4571C54.0178 93.2852 54.5665 94.9101 55.0442 96.2677C55.5232 97.6249 55.9311 98.7158 56.2198 99.4671C56.3618 99.8305 56.4746 100.119 56.5573 100.33C56.5944 100.42 56.6246 100.493 56.6495 100.553C56.6715 100.603 56.6842 100.628 56.6873 100.627Z" fill="#455A64"/>
<path d="M55.0833 42.1082C55.0833 42.1082 53.3995 41.9806 51.9386 44.981C50.1202 48.7158 49.9499 62.4069 49.9499 62.4069L43.5284 73.4288L48.7714 78.7868C48.7714 78.7868 55.9744 71.1553 56.7723 69.0275C57.5702 66.9001 56.7723 50.38 56.7723 50.38L55.0833 42.1082Z" fill="#1C8583"/>
<path d="M51.7398 46.0141C51.7398 46.0141 52.2059 44.0773 53.8805 42.3028C54.6196 41.5199 61.325 39.2015 61.325 39.2015C67.1897 40.5489 70.025 37.8856 70.6302 37.7973C71.0496 37.736 74.9463 38.5273 74.9463 38.5273L77.79 52.354C77.79 52.354 77.2528 61.9633 77.209 62.0313C77.1652 62.0997 78.9878 68.6011 78.9878 68.6011C78.9878 68.6011 67.6452 73.151 63.1643 74.1707C58.6835 75.1905 53.9997 69.453 53.9997 69.453L55.2297 59.6908L51.7398 46.0141Z" fill="#1C8583"/>
<path d="M73.4073 38.3975C73.803 38.3975 77.8437 38.3975 80.658 41.4297C81.2919 42.1127 84.5007 51.6267 89.2812 60.7483C93.1608 68.1506 94.2667 74.1345 94.2667 74.1345L90.8585 76.7206L84.7201 66.0253L77.6559 54.7294L73.4073 38.3975Z" fill="#1C8583"/>
<path d="M54 69.5136C54.0064 69.5143 54.0218 69.4397 54.046 69.2974C54.0715 69.1355 54.1041 68.9288 54.1444 68.6733C54.2369 68.1091 54.3645 67.3315 54.5204 66.3808C54.6827 65.4133 54.8831 64.2622 55.0748 62.9775C55.1677 62.3345 55.2591 61.6585 55.324 60.9527C55.3832 60.2501 55.4357 59.503 55.2886 58.75C55.1456 58.0004 54.8428 57.3199 54.6084 56.6618C54.3645 56.0019 54.2524 55.3435 54.2215 54.6956C54.1336 53.4074 54.2387 52.2415 54.4262 51.2838C54.6136 50.3247 54.8547 49.5678 55.0278 49.0485C55.1116 48.8039 55.1792 48.6059 55.2321 48.4513C55.2788 48.3147 55.3001 48.2414 55.2945 48.2393C55.2886 48.2369 55.2556 48.3056 55.1978 48.438C55.1389 48.5701 55.0587 48.7678 54.9609 49.0246C54.7668 49.5384 54.5054 50.2932 54.2997 51.2582C54.094 52.2216 53.9738 53.4025 54.0537 54.7061C54.0789 55.354 54.1935 56.0531 54.4398 56.721C54.6767 57.3917 54.9714 58.0586 55.1098 58.7854C55.2514 59.5072 55.2031 60.2375 55.1463 60.9373C55.0843 61.6378 54.9967 62.312 54.9087 62.9537C54.7156 64.2306 54.5411 65.3839 54.3932 66.3605C54.2464 67.3308 54.1367 68.1182 54.074 68.6638C54.0403 68.9365 54.0228 69.1492 54.0095 69.2932C53.9972 69.4369 53.9937 69.5129 54 69.5136Z" fill="#263238"/>
<path d="M79.1227 46.3506C79.073 46.3432 78.7341 48.3824 78.3665 50.9044C77.9986 53.4274 77.741 55.4778 77.7908 55.4851C77.8405 55.4925 78.179 53.4537 78.547 50.9307C78.9149 48.409 79.1729 46.358 79.1227 46.3506Z" fill="#263238"/>
<path d="M63.2661 53.0352C63.2535 53.0352 63.2454 53.1462 63.2415 53.3491C63.2377 53.4508 63.2384 53.5748 63.2538 53.7181C63.2675 53.8615 63.2738 54.0265 63.3102 54.2049C63.3624 54.5648 63.4732 54.986 63.6386 55.438C63.8134 55.8866 64.0486 56.3638 64.3566 56.8275C64.6706 57.2872 65.0249 57.6849 65.3749 58.0154C65.732 58.3385 66.0807 58.5992 66.3947 58.7828C66.546 58.8838 66.6967 58.9514 66.8246 59.018C66.9518 59.0863 67.0664 59.1333 67.1621 59.1679C67.3513 59.2408 67.4575 59.2748 67.4621 59.2633C67.4761 59.231 67.0587 59.0674 66.464 58.6742C66.1651 58.4804 65.8329 58.2151 65.4906 57.8931C65.1556 57.5637 64.8146 57.1737 64.5083 56.7255C64.2084 56.2738 63.9746 55.8112 63.7956 55.377C63.626 54.939 63.5047 54.5315 63.4374 54.1817C63.2959 53.4827 63.3011 53.0345 63.2661 53.0352Z" fill="#263238"/>
<path d="M85.9128 60.686C86.656 58.6781 88.1947 56.9771 90.1182 56.0366L89.9647 55.9055C91.707 55.4987 93.6631 56.7038 94.0836 58.4426C94.2564 59.1564 94.1961 59.9024 94.2347 60.6359C94.2732 61.3693 94.4355 62.1445 94.952 62.6663C95.2274 62.9445 95.5834 63.1292 95.8743 63.3909C96.1652 63.6527 96.3968 64.0438 96.2994 64.4226C96.1746 64.9079 95.5926 65.1154 95.0914 65.1248C94.5903 65.1343 94.0672 65.0288 93.6014 65.2135C94.193 65.8005 94.1842 66.8794 93.5832 67.4566C92.9822 68.0337 91.9036 67.9987 91.3412 67.3837C91.5444 68.2398 90.9498 69.161 90.1277 69.474C89.3052 69.7869 88.344 69.5626 87.6309 69.0475C86.9174 68.532 86.4254 67.7611 86.0771 66.953C85.2294 64.9868 85.1695 62.6939 85.9128 60.686Z" fill="#263238"/>
<path d="M75.6817 55.5132C75.8478 54.9322 76.4526 54.5643 77.0522 54.4896C77.6518 54.415 78.2531 54.5751 78.8359 54.7339C78.7153 53.9374 78.5955 53.1153 78.7949 52.3349C78.9943 51.5545 79.5973 50.8186 80.397 50.7229C81.0859 50.6402 81.7426 51.0365 82.2609 51.4977C82.7792 51.9592 83.2333 52.508 83.8396 52.8458C85.4161 53.7239 87.4286 52.911 89.1688 53.3893C90.9553 53.8802 92.3356 56.0676 91.9428 57.8782C88.8959 58.7921 85.8195 59.7183 83.0487 61.2819C81.5506 62.1275 79.9302 63.1963 78.2556 62.8035C77.2144 62.5592 76.338 61.7126 76.0573 60.6806C75.777 59.6486 76.1047 58.475 76.8787 57.737C76.194 57.163 75.436 56.3721 75.6817 55.5132Z" fill="#263238"/>
<path d="M78.3355 59.8526C78.6901 57.4746 81.47 55.3069 83.8308 55.7621L90.3389 57.7367L90.4665 58.9229L88.5794 75.197H88.7788C88.7788 75.197 88.358 80.1447 84.0478 79.4813C80.1756 78.8852 81.2044 74.8505 81.2044 74.8491L81.6666 71.4387C81.6666 71.4387 77.9693 71.1941 77.6767 67.1544C77.5313 65.1451 77.9412 62.4948 78.3355 59.8526Z" fill="#FFBF9D"/>
<path d="M79.086 63.4231C79.0534 63.6923 79.2546 63.9418 79.5349 63.981C79.8149 64.0199 80.0686 63.8342 80.1012 63.5651C80.1338 63.2959 79.933 63.0464 79.653 63.0072C79.3723 62.9679 79.1186 63.154 79.086 63.4231Z" fill="#263238"/>
<path d="M78.8576 62.0328C78.9154 62.105 79.3272 61.8516 79.877 61.8996C80.4268 61.9403 80.8063 62.2574 80.8719 62.195C80.9037 62.1677 80.8494 62.0419 80.6847 61.8989C80.5225 61.7567 80.2379 61.6077 79.8952 61.5797C79.5525 61.5524 79.2536 61.654 79.077 61.7689C78.8965 61.8846 78.8289 62.0002 78.8576 62.0328Z" fill="#263238"/>
<path d="M83.549 63.8636C83.5165 64.1327 83.7176 64.3822 83.9979 64.4214C84.2779 64.4607 84.5316 64.2746 84.5642 64.0055C84.5968 63.7364 84.3957 63.4865 84.116 63.4476C83.8353 63.4084 83.5816 63.5948 83.549 63.8636Z" fill="#263238"/>
<path d="M83.9111 62.551C83.9689 62.6228 84.381 62.3695 84.9305 62.4178C85.4803 62.4585 85.8598 62.7756 85.9254 62.7136C85.9569 62.6863 85.9033 62.5605 85.7379 62.4175C85.5756 62.2752 85.2914 62.1263 84.9487 62.0982C84.606 62.0709 84.3071 62.1725 84.1301 62.2875C83.9507 62.4031 83.8827 62.5188 83.9111 62.551Z" fill="#263238"/>
<path d="M81.646 66.0929C81.6506 66.0691 81.6156 66.0449 81.0664 65.937C80.927 65.9125 80.7959 65.8781 80.7777 65.8014C80.7504 65.7194 80.8176 65.6076 80.8947 65.4871C81.0454 65.2355 81.2038 64.9719 81.3696 64.6958C81.5472 64.4085 82.041 63.4914 82.0616 63.3281C82.0014 63.3046 81.8132 63.4833 81.1516 64.611C80.9918 64.8896 80.839 65.1549 80.6939 65.4089C80.6319 65.5281 80.5303 65.6598 80.5902 65.8301C80.6221 65.9153 80.7209 65.9843 80.8096 66.0116C80.8979 66.0414 80.9767 66.0502 81.0458 66.06C81.6001 66.1364 81.646 66.0929 81.646 66.0929Z" fill="#263238"/>
<path d="M81.667 71.4381C81.667 71.4381 83.8007 71.7878 86.5933 70.418C86.5933 70.418 85.4694 73.2901 81.5128 72.5766L81.667 71.4381Z" fill="#FF9A6C"/>
<path d="M84.2504 60.7311C84.2991 60.9063 84.7834 60.8204 85.3532 60.9087C85.9244 60.9816 86.3849 61.2006 86.4595 61.0429C86.4928 60.9676 86.4118 60.8029 86.2254 60.634C86.0407 60.4654 85.746 60.306 85.404 60.2569C85.062 60.2093 84.7494 60.2829 84.5427 60.3964C84.3338 60.5092 84.2294 60.648 84.2504 60.7311Z" fill="#263238"/>
<path d="M79.0007 60.141C79.0778 60.3036 79.4965 60.2146 79.9721 60.2833C80.4504 60.333 80.832 60.5215 80.949 60.3831C81.0013 60.3151 80.9617 60.1581 80.8082 59.9913C80.6575 59.8252 80.3863 59.6661 80.0586 59.6252C79.731 59.5849 79.4271 59.6725 79.2383 59.7962C79.0469 59.9202 78.9674 60.0625 79.0007 60.141Z" fill="#263238"/>
<path d="M78.8724 57.6226C79.7068 56.3207 81.1555 55.4853 82.6731 55.1892C84.1905 54.8931 85.7716 55.096 87.2525 55.541C88.733 55.9864 90.1302 56.667 91.52 57.3443C91.8567 57.5087 92.2219 57.7025 92.3585 58.0515C92.4514 58.2884 92.4192 58.5536 92.3855 58.8059C92.1027 60.9316 91.8196 63.0569 91.5368 65.1823L90.8577 66.4487C90.1656 66.4018 89.6203 65.8498 89.21 65.2902C87.7774 63.3366 87.1383 60.8181 87.4656 58.4177C87.2395 58.6675 87.1488 59.0067 87.0132 59.3155C86.8779 59.6238 86.655 59.9364 86.3239 59.9984C85.7709 60.1018 85.3644 59.4535 85.3238 58.8925C85.2835 58.3315 85.424 57.7357 85.1902 57.2241C84.5802 57.9761 83.797 58.5866 82.9191 58.9948C82.5056 59.1872 81.9667 59.3169 81.6324 59.0064C81.3958 58.7867 81.3615 58.4117 81.4638 58.1054C81.5662 57.7992 81.7796 57.5444 81.9884 57.2981C81.2774 57.9639 80.3681 58.4156 79.4079 58.5803C79.1969 58.6164 78.952 58.6293 78.7981 58.4804C78.5735 58.2635 78.7039 57.885 78.8724 57.6226Z" fill="#263238"/>
<path d="M89.7429 64.1429C89.8059 64.1222 92.2537 63.646 91.9512 66.0706C91.6488 68.4952 89.2768 67.6916 89.2814 67.6215C89.2859 67.5511 89.7429 64.1429 89.7429 64.1429Z" fill="#FFBF9D"/>
<path d="M91.1295 66.1803C91.1414 66.1341 91.1509 66.0871 91.1583 66.0395C91.1919 65.8194 91.1719 65.6035 91.1155 65.4199C91.0636 65.2331 90.9645 65.0951 90.8383 65.0562C90.7139 65.0103 90.6126 65.0762 90.5748 65.141C90.5338 65.2048 90.5433 65.2552 90.5299 65.2577C90.5222 65.2629 90.483 65.2107 90.5149 65.113C90.531 65.066 90.5664 65.0124 90.6291 64.9731C90.6932 64.9328 90.7819 64.9195 90.8706 64.9405C91.0559 64.9766 91.2028 65.1697 91.2648 65.3716C91.337 65.5755 91.3647 65.8187 91.3268 66.0658C91.2504 66.5525 90.9431 66.9783 90.5801 67.0361C90.4038 67.0592 90.2682 66.9902 90.2016 66.9239C90.134 66.8546 90.128 66.7988 90.1371 66.7953C90.1487 66.789 90.1757 66.8304 90.2429 66.8717C90.3085 66.912 90.4255 66.9492 90.558 66.9176C90.7959 66.8616 91.0335 66.5546 91.1295 66.1803Z" fill="#FF9A6C"/>
<path d="M81.667 67.111C82.2351 66.8514 82.8031 66.5921 83.3715 66.3324C83.4192 66.3107 83.4749 66.2886 83.5222 66.3114C83.5548 66.3271 83.5744 66.3604 83.5909 66.3927C83.777 66.7592 83.7381 67.2295 83.4942 67.5606C83.2503 67.8918 82.876 68.013 82.4706 67.9436C82.0651 67.8739 81.7869 67.5042 81.667 67.111Z" fill="#FF9A6C"/>
<path d="M88.2147 56.7432C88.2137 56.7428 88.2098 56.7526 88.2035 56.7719C88.1965 56.7954 88.1877 56.8234 88.1776 56.8581C88.1541 56.9338 88.1257 57.047 88.09 57.1928C88.0237 57.4854 87.9382 57.915 87.9169 58.4539C87.8962 58.9897 87.9428 59.645 88.1968 60.3165C88.3212 60.6483 88.501 60.9973 88.8087 61.2514C88.9622 61.3761 89.1468 61.4708 89.349 61.5111C89.5505 61.5549 89.7706 61.5286 89.9619 61.4361C90.1873 61.3253 90.3537 61.1365 90.4827 60.9416C90.6123 60.745 90.7069 60.5355 90.7928 60.3319L90.7381 60.3427C90.967 60.5695 91.1422 60.834 91.3398 61.0664C91.5343 61.3001 91.7638 61.4998 92.0249 61.6064C92.2835 61.7175 92.5775 61.7073 92.7958 61.5874C93.0173 61.4739 93.1694 61.2892 93.2622 61.1067C93.3551 60.9213 93.3845 60.7342 93.3898 60.574C93.3943 60.4128 93.3744 60.2758 93.3505 60.1668C93.3264 60.0578 93.2994 59.9755 93.2791 59.9212C93.2587 59.8665 93.2458 59.8392 93.244 59.8399C93.2419 59.8406 93.251 59.8697 93.2675 59.925C93.284 59.9804 93.3071 60.0628 93.3274 60.1714C93.3474 60.2797 93.3635 60.4153 93.3558 60.5726C93.3474 60.7289 93.3151 60.9104 93.2233 61.087C93.1315 61.2612 92.9829 61.4364 92.772 61.5415C92.5642 61.6523 92.2923 61.6593 92.0466 61.5524C91.7985 61.4487 91.5781 61.2563 91.3882 61.0254C91.1947 60.7958 91.0202 60.5292 90.7851 60.2951C90.7721 60.2821 90.7507 60.2821 90.7374 60.2951C90.7343 60.2982 90.7318 60.3021 90.7301 60.3059C90.6442 60.5074 90.5506 60.7131 90.4245 60.9038C90.2994 61.0926 90.14 61.2714 89.9311 61.3737C89.7531 61.4592 89.5516 61.4841 89.3624 61.4434C89.1728 61.4063 88.9972 61.3166 88.8514 61.1988C88.5578 60.9581 88.3805 60.6199 88.2564 60.2937C88.0031 59.6345 87.9515 58.9873 87.9659 58.4554C87.9806 57.9206 88.0584 57.492 88.1162 57.1984C88.1478 57.0519 88.172 56.938 88.1909 56.8613C88.1986 56.8262 88.2049 56.7975 88.2102 56.7733C88.2144 56.754 88.2158 56.7435 88.2147 56.7432Z" fill="#455A64"/>
<path d="M81.7017 54.6641C81.6965 54.6651 81.7112 54.6977 81.7101 54.7604C81.7115 54.8232 81.681 54.9139 81.6085 55.0103C81.5388 55.1088 81.4284 55.2097 81.3236 55.3516C81.2728 55.4227 81.2223 55.5079 81.208 55.6113C81.1898 55.7143 81.2237 55.8292 81.2917 55.92C81.3587 56.0122 81.4596 56.0861 81.5759 56.1278C81.6919 56.1709 81.8195 56.1863 81.9488 56.1909C82.207 56.1958 82.4825 56.1839 82.7702 56.1457C83.3442 56.0696 83.9669 55.8941 84.5626 55.5864C84.804 55.4627 85.0315 55.3236 85.2389 55.1757L85.1853 55.1529C85.227 55.4357 85.2712 55.7139 85.3633 55.9694C85.4527 56.2249 85.6002 56.4533 85.7936 56.611C85.9836 56.7719 86.2243 56.8556 86.4458 56.8374C86.6676 56.8202 86.8558 56.7239 87.0016 56.6149C87.1484 56.5038 87.2549 56.3755 87.3376 56.2589C87.4203 56.1415 87.4802 56.0342 87.5275 55.9463C87.5745 55.8583 87.6081 55.7889 87.6302 55.7416C87.6526 55.6943 87.6632 55.6694 87.6611 55.6684C87.659 55.6673 87.6449 55.6905 87.619 55.736C87.5899 55.7868 87.5528 55.8527 87.5062 55.9347C87.4038 56.1019 87.2602 56.364 86.9746 56.5788C86.8319 56.6822 86.6501 56.7708 86.4423 56.7845C86.2352 56.7989 86.012 56.7193 85.8325 56.5651C85.65 56.4134 85.5105 56.1961 85.4253 55.948C85.337 55.7003 85.2943 55.4262 85.2536 55.1435C85.2508 55.1249 85.2337 55.1119 85.2147 55.1144C85.2091 55.1151 85.2039 55.1175 85.1997 55.1203C84.9947 55.2654 84.77 55.4028 84.5314 55.5251C83.9434 55.8285 83.3291 56.0041 82.7621 56.0826C82.4783 56.1222 82.2053 56.1359 81.9512 56.1338C81.8251 56.1303 81.7031 56.1166 81.5948 56.0777C81.4862 56.0402 81.3948 55.9743 81.332 55.8909C81.2693 55.8086 81.2378 55.7087 81.2525 55.6169C81.2637 55.5244 81.3085 55.4434 81.3562 55.374C81.4543 55.2346 81.5633 55.1294 81.6316 55.0261C81.7028 54.9248 81.7312 54.826 81.7249 54.7604C81.7259 54.7275 81.7157 54.7037 81.7115 54.6876C81.7059 54.6714 81.7028 54.6637 81.7017 54.6641Z" fill="#455A64"/>
<path d="M82.0157 67.7037C82.0076 67.7128 82.0535 67.7703 82.1611 67.8453C82.268 67.9174 82.4418 68.0145 82.686 68.0341C82.9285 68.0601 83.2359 67.9549 83.4612 67.7268C83.6995 67.5095 83.8456 67.1332 83.7934 66.7638C83.7832 66.672 83.7643 66.5827 83.7391 66.4972C83.7275 66.4607 83.7124 66.4008 83.6732 66.3528C83.6364 66.3058 83.5863 66.2711 83.5309 66.2529C83.4181 66.2081 83.2909 66.2711 83.2369 66.3002C83.1665 66.3335 83.0967 66.3665 83.0281 66.3987C82.7751 66.5217 82.5354 66.638 82.3093 66.7477C81.9025 66.9513 81.6561 67.0887 81.6667 67.1115C81.6772 67.1342 81.9424 67.0386 82.363 66.8651C82.5942 66.7666 82.8392 66.6622 83.0978 66.5518C83.1672 66.5214 83.2376 66.4902 83.3091 66.459C83.3929 66.4204 83.4254 66.4054 83.4741 66.4225C83.5236 66.4453 83.5439 66.4639 83.5649 66.5483C83.587 66.6247 83.6035 66.7039 83.6122 66.7845C83.655 67.1083 83.5411 67.4114 83.342 67.6084C83.1483 67.8141 82.9026 67.9108 82.6913 67.9055C82.2596 67.8866 82.0301 67.6714 82.0157 67.7037Z" fill="#263238"/>
<path d="M67.6987 75.1221L68.9017 81.9631L71.6491 78.586L75.5339 81.2871C75.5339 81.2871 70.5953 89.1222 68.798 89.2459C67.0007 89.37 65.2654 89.432 64.7695 86.5189C64.2737 83.6059 64.7022 76.3261 64.7022 76.3261L67.6987 75.1221Z" fill="#FFBF9D"/>
<path d="M67.4752 68.4575L68.0366 71.0706L68.3113 71.5924C68.3113 71.5924 68.3526 73.1952 68.3152 73.5313C68.2777 73.8674 67.7145 75.1997 67.7145 75.1997L68.1879 77.9053L64.622 78.0024L64.6977 76.1539C64.5102 75.9622 64.2698 75.4642 64.2723 75.1464C64.2748 74.8286 64.1626 72.9286 64.1626 72.9286C64.1626 72.9286 63.3773 71.0422 63.9233 71.0159C64.0477 71.01 64.3189 71.0804 64.3189 71.0804C64.3189 71.0804 64.7194 72.1997 64.9185 72.2572L65.2339 72.1419C65.2339 72.1419 64.9409 70.4756 64.9759 70.0894C65.011 69.7033 65.1413 69.4464 65.4623 69.4474C65.4623 69.4474 65.6824 69.5708 65.687 69.6707C65.6919 69.7709 65.9424 71.673 66.084 71.6495C66.2256 71.626 66.1975 71.4102 66.1975 71.4102C66.1975 71.4102 65.9014 69.0178 65.9652 68.8643C66.0293 68.7109 66.2147 68.4845 66.5034 68.5542L66.8279 69.6749C66.8279 69.6749 66.7375 68.694 66.9954 68.4978C67.2537 68.3009 67.4752 68.4575 67.4752 68.4575Z" fill="#FFBF9D"/>
<path d="M65.7103 74.2416C65.7331 74.2454 65.7552 74.0043 65.9052 73.6381C66.0551 73.281 66.3835 72.788 66.94 72.4807L66.981 72.4579L66.9778 72.4144C66.9634 72.2042 66.948 71.9841 66.9323 71.7574L66.9312 71.7434L66.9245 71.7297C66.8881 71.6568 66.852 71.572 66.8198 71.4876C66.7101 71.2002 66.641 70.9069 66.6386 70.6318C66.6382 70.4955 66.653 70.3613 66.7034 70.2548C66.7483 70.1468 66.8503 70.0796 66.9393 70.0803L66.8965 70.0561C67.1684 70.4128 67.3969 70.7072 67.5602 70.9101C67.7232 71.113 67.8209 71.2251 67.8311 71.2177C67.8413 71.21 67.7628 71.0839 67.6163 70.8687C67.4698 70.6532 67.255 70.3487 66.9932 69.9846L66.9768 69.9618L66.9501 69.9604C66.7893 69.952 66.6498 70.061 66.5864 70.1977C66.5195 70.3333 66.5033 70.4833 66.5012 70.6318C66.5002 70.9307 66.5717 71.2391 66.6859 71.5387C66.7202 71.6281 66.7563 71.7132 66.7977 71.7956L66.79 71.7683C66.8075 71.995 66.8247 72.2151 66.8411 72.425L66.8793 72.3587C66.2784 72.7014 65.9612 73.2264 65.8249 73.6073C65.7573 73.8004 65.7257 73.9609 65.7145 74.0709C65.7044 74.1809 65.7023 74.2405 65.7103 74.2416Z" fill="#FF9A6C"/>
<path d="M66.0688 71.9754C66.0625 71.9386 65.6367 71.9933 65.1598 72.212C64.6818 72.4282 64.3612 72.7138 64.3847 72.7425C64.4092 72.7761 64.7572 72.5501 65.2187 72.3416C65.6795 72.1303 66.0779 72.0161 66.0688 71.9754Z" fill="#FF9A6C"/>
<path d="M68.4783 85.6263C68.4352 85.6294 68.3613 84.7972 68.4909 83.7799C68.6167 82.7616 68.8943 81.9738 68.9353 81.9875C68.9833 82.0011 68.7818 82.7984 68.6584 83.8009C68.5302 84.8024 68.5281 85.6252 68.4783 85.6263Z" fill="#FF9A6C"/>
<path d="M78.9675 134.031L79.2889 141.234L77.9001 147.005C77.7999 147.421 78.0732 147.834 78.4948 147.906C78.731 147.946 78.9703 147.871 79.1392 147.701C80.2164 146.623 84.0522 142.581 84.0687 142.195C84.0946 141.584 84.2719 134.488 84.2719 134.488L78.9675 134.031Z" fill="#455A64"/>
<path d="M78.495 147.905L84.0958 141.621L84.1025 141.927C84.0825 142.238 84.0212 142.448 83.8544 142.653C83.4083 143.201 82.1436 144.687 79.1611 147.701C78.9877 147.876 78.7368 147.953 78.495 147.905Z" fill="#263238"/>
<g opacity="0.6">
<path d="M82.5664 139.329C82.3883 139.458 82.3354 139.732 82.4567 139.915C82.5783 140.098 82.8568 140.155 83.037 140.029C83.2171 139.903 83.291 139.576 83.1498 139.407C83.0086 139.239 82.6778 139.191 82.5331 139.356" fill="white"/>
</g>
<path d="M80.0741 144.721C80.0338 144.741 79.8631 144.368 79.43 144.174C79.0028 143.967 78.6065 144.077 78.5967 144.033C78.59 144.015 78.6801 143.958 78.8483 143.93C79.0151 143.901 79.2594 143.92 79.4969 144.03C79.7342 144.141 79.9055 144.316 79.9914 144.462C80.0783 144.608 80.092 144.714 80.0741 144.721Z" fill="white"/>
<path d="M79.5816 145.697C79.548 145.728 79.3114 145.499 78.9365 145.4C78.5636 145.293 78.2433 145.37 78.2307 145.325C78.209 145.289 78.5528 145.128 78.9785 145.248C79.4053 145.363 79.6188 145.676 79.5816 145.697Z" fill="white"/>
<path d="M81.0031 143.463C80.9701 143.498 80.6082 143.143 80.0384 142.939C79.4714 142.725 78.9664 142.761 78.9636 142.713C78.951 142.674 79.4843 142.563 80.093 142.79C80.7035 143.011 81.0374 143.442 81.0031 143.463Z" fill="white"/>
<path d="M81.0885 141.265C81.0703 141.309 80.6684 141.151 80.1498 141.143C79.6311 141.129 79.2232 141.269 79.2068 141.225C79.1861 141.19 79.5961 140.971 80.1533 140.985C80.7104 140.994 81.1106 141.231 81.0885 141.265Z" fill="white"/>
<path d="M81.0479 139.148C81.0265 139.19 80.6207 138.959 80.0741 138.995C79.5264 139.02 79.1497 139.296 79.1234 139.256C79.1111 139.241 79.1878 139.149 79.3522 139.049C79.5148 138.95 79.7706 138.854 80.0653 138.837C80.36 138.821 80.6246 138.888 80.7977 138.968C80.9715 139.049 81.0581 139.132 81.0479 139.148Z" fill="white"/>
<path d="M80.0778 138.592C80.0687 138.593 80.0502 138.496 80.0621 138.32C80.0743 138.145 80.1192 137.887 80.2632 137.601C80.3382 137.465 80.4156 137.292 80.6147 137.192C80.7135 137.142 80.8631 137.157 80.9507 137.251C81.0377 137.342 81.0667 137.46 81.0716 137.574C81.0741 138.032 80.6907 138.483 80.1777 138.56C79.6622 138.628 79.1878 138.343 78.9743 137.953C78.9274 137.851 78.8938 137.727 78.947 137.604C78.9992 137.479 79.1447 137.427 79.2484 137.443C79.4632 137.47 79.6009 137.59 79.7285 137.679C79.9811 137.874 80.1395 138.08 80.2327 138.229C80.3259 138.378 80.3571 138.471 80.3487 138.475C80.3238 138.495 80.1588 138.125 79.6626 137.77C79.5375 137.688 79.3931 137.585 79.2389 137.574C79.1636 137.568 79.0994 137.599 79.0742 137.66C79.0479 137.719 79.0648 137.809 79.1058 137.889C79.2859 138.208 79.7201 138.468 80.1549 138.404C80.5881 138.343 80.9241 137.946 80.9259 137.578C80.9248 137.489 80.8992 137.4 80.8509 137.349C80.8032 137.298 80.7317 137.285 80.6658 137.314C80.5267 137.373 80.436 137.527 80.362 137.654C80.0698 138.19 80.1101 138.599 80.0778 138.592Z" fill="white"/>
<path d="M91.2663 134.184L90.945 141.387L92.3337 147.157C92.4339 147.573 92.1606 147.986 91.739 148.058C91.5028 148.098 91.2638 148.023 91.0946 147.854C90.0174 146.775 86.1816 142.733 86.1655 142.348C86.1396 141.736 85.9623 134.64 85.9623 134.64L91.2663 134.184Z" fill="#455A64"/>
<path d="M91.7396 148.059L86.1388 141.774L86.1321 142.08C86.1524 142.392 86.2134 142.602 86.3802 142.806C86.8263 143.354 88.091 144.84 91.0735 147.854C91.2469 148.029 91.4978 148.106 91.7396 148.059Z" fill="#263238"/>
<g opacity="0.6">
<path d="M87.6683 139.481C87.8464 139.61 87.8993 139.885 87.778 140.068C87.6564 140.25 87.3778 140.307 87.1977 140.181C87.0176 140.056 86.9437 139.728 87.0849 139.56C87.2261 139.392 87.5569 139.343 87.7016 139.508" fill="white"/>
</g>
<path d="M90.1603 144.873C90.2006 144.894 90.3712 144.52 90.8043 144.326C91.2315 144.119 91.6278 144.23 91.6377 144.185C91.6443 144.168 91.5543 144.11 91.3861 144.082C91.2196 144.054 90.975 144.072 90.7374 144.182C90.5002 144.293 90.3288 144.468 90.243 144.614C90.1561 144.761 90.1427 144.867 90.1603 144.873Z" fill="white"/>
<path d="M90.653 145.85C90.6866 145.882 90.9232 145.652 91.2981 145.554C91.671 145.446 91.9916 145.523 92.0042 145.478C92.0256 145.442 91.6822 145.281 91.2561 145.401C90.8289 145.516 90.6159 145.829 90.653 145.85Z" fill="white"/>
<path d="M89.2317 143.615C89.2646 143.65 89.6266 143.296 90.1964 143.091C90.7634 142.878 91.2683 142.913 91.2711 142.865C91.2838 142.827 90.7504 142.715 90.1417 142.942C89.5309 143.164 89.1973 143.594 89.2317 143.615Z" fill="white"/>
<path d="M89.1461 141.417C89.1643 141.461 89.5663 141.303 90.0849 141.296C90.6035 141.281 91.0114 141.422 91.0279 141.377C91.0486 141.343 90.6386 141.123 90.0814 141.137C89.5242 141.147 89.124 141.384 89.1461 141.417Z" fill="white"/>
<path d="M89.1867 139.3C89.2081 139.343 89.6139 139.111 90.1605 139.148C90.7082 139.173 91.0849 139.448 91.1112 139.409C91.1235 139.394 91.0467 139.302 90.8824 139.202C90.7198 139.102 90.464 139.007 90.1693 138.99C89.8746 138.974 89.61 139.04 89.4369 139.121C89.2631 139.201 89.1765 139.284 89.1867 139.3Z" fill="white"/>
<path d="M90.1563 138.744C90.1654 138.745 90.184 138.648 90.1721 138.472C90.1598 138.297 90.115 138.039 89.971 137.753C89.896 137.618 89.8185 137.444 89.6195 137.344C89.5207 137.294 89.371 137.31 89.2834 137.403C89.1965 137.494 89.1674 137.612 89.1625 137.726C89.1601 138.184 89.5434 138.635 90.0565 138.712C90.5719 138.78 91.0464 138.495 91.2598 138.105C91.3068 138.003 91.3404 137.879 91.2872 137.756C91.2349 137.631 91.0895 137.579 90.9858 137.595C90.771 137.622 90.6333 137.743 90.5057 137.831C90.2531 138.026 90.0947 138.232 90.0018 138.381C89.9082 138.53 89.8774 138.623 89.8858 138.627C89.9107 138.647 90.0757 138.277 90.5719 137.922C90.697 137.84 90.8411 137.737 90.9956 137.726C91.0709 137.72 91.1347 137.751 91.1603 137.813C91.1866 137.872 91.1694 137.962 91.1288 138.041C90.9487 138.361 90.5145 138.62 90.0796 138.556C89.6465 138.495 89.3104 138.098 89.3087 137.73C89.3097 137.641 89.3349 137.553 89.3836 137.501C89.4313 137.45 89.5028 137.437 89.5687 137.466C89.7078 137.525 89.7986 137.679 89.8725 137.806C90.1644 138.342 90.1244 138.751 90.1563 138.744Z" fill="white"/>
<path d="M93.0591 96.8906L84.0812 98.5113L74.6145 96.8906L73.928 103.739C74.1288 104.24 78.4471 141.667 78.4471 141.667L85.2555 140.873L84.5308 136.036L83.5612 108.402C83.5461 107.969 83.9995 107.677 84.3871 107.871L84.5308 107.943L85.4338 131.622V140.923L91.266 141.435C91.266 141.435 92.3568 135.435 92.7581 130.117C93.1593 124.799 93.9425 106.63 94.0708 104.733C94.1994 102.835 93.0591 96.8906 93.0591 96.8906Z" fill="#455A64"/>
<path d="M96.7066 84.7198C96.7066 84.7198 97.5942 91.3741 97.5284 94.0208C97.4628 96.6672 97.1895 102.281 97.1895 102.281L94.7628 101.804L93.1214 83.7334L96.7066 84.7198Z" fill="#FFBF9D"/>
<path d="M97.1895 102.281C97.1895 102.281 97.5827 106.939 97.522 107.635C97.4614 108.33 95.4955 110.024 94.9814 109.994C94.4674 109.964 94.3766 109.873 94.4975 109.389C94.4975 109.389 94.0374 109.298 94.1615 108.784C94.2855 108.27 95.1931 107.665 95.1931 107.665L95.8344 107.242L96.0702 105.125C96.0702 105.125 95.6308 107.307 95.1468 107.428C94.6629 107.549 94.4148 107.405 94.4607 106.547C94.501 105.792 94.7092 103.885 94.7092 102.887C94.7092 101.889 94.8605 101.042 94.8605 101.042H97.1593L97.1895 102.281Z" fill="#FFBF9D"/>
<path d="M75.3668 78.5012L73.9276 99.8862C73.9276 99.8862 79.1591 104.349 85.3567 103.42C91.5543 102.49 94.1401 100.232 94.1401 100.232C94.1401 100.232 93.6078 89.0104 93.6698 85.23C93.7319 81.4496 94.7141 75.2808 94.7141 75.2808L88.9731 73.3215C88.9731 73.3215 87.2893 75.668 84.8104 75.2962C82.3311 74.9244 81.4666 72.915 81.4666 72.915L76.3603 73.2024L75.3668 78.5012Z" fill="#E0E0E0"/>
<path d="M76.3598 73.2021C76.3598 73.2021 74.997 73.5035 73.5659 75.298C72.8314 76.2193 69.8647 79.5427 69.8647 79.5427C69.8647 79.5427 74.2282 84.502 74.2282 84.3712C74.2282 84.2405 76.4741 80.6171 76.4741 80.6171L76.3598 73.2021Z" fill="#E0E0E0"/>
<path d="M94.714 75.2803C94.714 75.2803 96.2818 75.7775 96.6782 77.5304C96.8684 78.371 97.8188 85.1342 97.8188 85.1342L92.9395 85.6413V78.2655L94.714 75.2803Z" fill="#E0E0E0"/>
<path d="M93.7513 87.0335C93.5414 84.0822 93.3311 81.131 93.1212 78.1797L93.7513 87.0335Z" fill="#FF725E"/>
<path d="M93.1211 78.1797C93.1678 78.1765 93.3465 80.1557 93.5203 82.6003C93.6944 85.0456 93.7978 87.03 93.7512 87.0335C93.705 87.0367 93.5262 85.0578 93.3521 82.6126C93.1779 80.1677 93.0745 78.1828 93.1211 78.1797Z" fill="#263238"/>
<path d="M75.3668 76.9258C75.4135 76.9282 75.3717 78.5115 75.2736 80.4619C75.1755 82.4131 75.0585 83.9921 75.0122 83.99C74.9656 83.9875 75.0073 82.4047 75.1054 80.4535C75.2035 78.5031 75.3206 76.9233 75.3668 76.9258Z" fill="#263238"/>
<path d="M87.9404 87.8916H81.5122V81.4634H87.9404V87.8916Z" fill="white"/>
<path d="M91.5475 74.2303C91.5475 74.2303 93.2887 73.5473 94.169 73.8203C95.0493 74.0936 97.7581 76.1962 98.5721 76.8395C99.6998 77.731 99.1647 78.6365 98.2946 78.2805C97.2471 77.8519 96.0066 77.0431 96.0066 77.0431C96.0066 77.0431 94.7532 77.8456 93.4279 77.1346C92.1026 76.4236 91.5475 74.2303 91.5475 74.2303Z" fill="#FFBF9D"/>
<path d="M94.1689 73.8203C94.1689 73.8203 95.4694 73.9212 96.6279 74.1795C97.786 74.4378 98.4529 74.7784 98.551 75.2767C98.6491 75.775 98.4645 78.0931 98.0411 78.3576C97.6178 78.6222 94.1013 79.1342 93.677 78.9821C93.2529 78.8296 93.0385 78.4964 93.4758 78.0787C93.9128 77.661 96.0066 77.0432 96.0066 77.0432L96.3174 75.7172L94.1689 73.8203Z" fill="#FFBF9D"/>
<path d="M98.5536 75.5938C98.5536 75.5938 98.3742 79.5294 98.2785 79.8104C98.1828 80.0918 97.114 80.3452 96.368 80.3648C95.6216 80.3848 93.5103 80.0441 93.463 79.6391C93.4157 79.234 93.5877 78.9466 93.5877 78.9466L97.1974 78.5969L98.5536 75.5938Z" fill="#FFBF9D"/>
<path d="M98.0639 79.7773C98.0639 79.7773 97.2937 81.2379 97.2008 81.4695C97.1079 81.7015 96.4264 82.1918 96.1054 81.8249C95.7847 81.4583 95.8313 81.4657 95.9985 81.0389C96.1657 80.6117 96.514 80.0279 96.514 80.0279L97.8908 79.867" fill="#FFBF9D"/>
<path d="M93.2189 77.0172C93.2063 77.0295 93.4379 77.2485 93.9271 77.3802C94.4019 77.5137 95.1687 77.5127 95.8432 77.0659L95.7297 77.0649C95.7963 77.1122 95.8671 77.1623 95.9389 77.2131C96.6037 77.6911 97.2506 78.0916 97.7716 78.2658C98.2896 78.4473 98.633 78.4501 98.6344 78.4287C98.6403 78.3954 98.3095 78.3425 97.8231 78.134C97.3329 77.9325 96.7197 77.5278 96.0542 77.0494C95.9824 76.999 95.9116 76.9489 95.8446 76.9019L95.7886 76.8623L95.7311 76.9009C95.121 77.3109 94.4139 77.3406 93.9566 77.2478C93.4884 77.1584 93.2357 76.9867 93.2189 77.0172Z" fill="#FF9A6C"/>
<path d="M94.8846 74.137C94.8516 74.1815 95.7214 74.8775 96.8266 75.6911C97.9322 76.5052 98.8549 77.1286 98.8878 77.0841C98.9204 77.0396 98.051 76.344 96.9454 75.5299C95.8402 74.7163 94.9175 74.0925 94.8846 74.137Z" fill="#FF9A6C"/>
<path d="M97.8866 78.2526C97.8579 78.2302 97.7023 78.4432 97.3463 78.6416C96.9958 78.8473 96.4415 79.0046 95.8166 79.0624C94.5541 79.1861 93.5462 78.8844 93.5333 78.9408C93.5059 78.9874 94.5246 79.3887 95.8356 79.2615C96.4832 79.2019 97.0652 79.0137 97.4209 78.7618C97.7832 78.5158 97.9041 78.2593 97.8866 78.2526Z" fill="#FF9A6C"/>
<path d="M96.1237 80.4388C96.1174 80.4904 96.6361 80.5646 97.2454 80.3894C97.8562 80.2184 98.2585 79.8831 98.2263 79.8424C98.1944 79.793 97.7662 80.0369 97.1908 80.1971C96.6175 80.3628 96.1251 80.3803 96.1237 80.4388Z" fill="#FF9A6C"/>
<path d="M73.5243 38.3902C73.5243 38.3902 74.7648 36.9906 75.6735 36.8339C76.5818 36.6773 79.9504 37.3196 80.9677 37.5232C82.3775 37.8053 82.3119 38.8548 81.3749 38.933C80.2472 39.0269 78.7747 38.8702 78.7747 38.8702C78.7747 38.8702 78.0227 40.1546 76.519 40.1234C75.0154 40.0918 73.5243 38.3902 73.5243 38.3902Z" fill="#FFBF9D"/>
<path d="M75.6732 36.8338C75.6732 36.8338 76.8776 36.3331 78.027 36.0366C79.176 35.7405 79.9249 35.7409 80.2385 36.1403C80.5525 36.5398 81.4408 38.6886 81.1843 39.1165C80.9275 39.5444 78.0274 41.5986 77.5802 41.6557C77.1331 41.7128 76.7911 41.5131 76.9904 40.9426C77.1902 40.3721 78.7745 38.8705 78.7745 38.8705L78.4489 37.548L75.6732 36.8338Z" fill="#FFBF9D"/>
<path d="M80.3849 36.4209C80.3849 36.4209 82.013 40.0082 82.0558 40.3022C82.0982 40.5962 81.2613 41.3076 80.6057 41.6643C79.9497 42.021 77.9144 42.677 77.6881 42.3378C77.462 41.9986 77.4845 41.6643 77.4845 41.6643L80.5412 39.7128L80.3849 36.4209Z" fill="#FFBF9D"/>
<path d="M81.8497 40.3711C81.8497 40.3711 81.827 42.0223 81.8497 42.2707C81.8725 42.5196 81.4878 43.266 81.0357 43.0851C80.5833 42.9043 80.6285 42.8896 80.5833 42.4333C80.5381 41.9771 80.5833 41.2983 80.5833 41.2983L81.7369 40.5295" fill="#FFBF9D"/>
<path d="M76.2798 40.1139C76.2742 40.1304 76.5801 40.2205 77.0756 40.1157C77.5592 40.019 78.2418 39.6696 78.6396 38.9652L78.5379 39.0157C78.6189 39.0276 78.7047 39.0402 78.7916 39.0528C79.6011 39.1765 80.3591 39.2396 80.9026 39.158C81.4465 39.0844 81.7538 38.9309 81.7454 38.9113C81.7356 38.879 81.417 38.9821 80.8889 39.0171C80.3605 39.0602 79.6306 38.9782 78.8204 38.8549C78.7335 38.8426 78.6476 38.83 78.5667 38.8184L78.4987 38.8086L78.4651 38.8689C78.1076 39.5112 77.4916 39.8592 77.042 39.9843C76.584 40.1174 76.2808 40.0792 76.2798 40.1139Z" fill="#FF9A6C"/>
<path d="M76.4546 36.7903C76.4455 36.8449 77.5364 37.0696 78.8908 37.2921C80.2455 37.5149 81.3508 37.6513 81.3599 37.5966C81.369 37.5419 80.2781 37.3173 78.9234 37.0944C77.569 36.8719 76.4637 36.736 76.4546 36.7903Z" fill="#FF9A6C"/>
<path d="M80.999 39.0929C80.9633 39.0859 80.9216 39.3463 80.6941 39.6848C80.4755 40.0271 80.0532 40.4193 79.5227 40.7546C78.4542 41.4383 77.4194 41.6275 77.4334 41.684C77.4303 41.7379 78.5201 41.6324 79.6299 40.9239C80.1797 40.5766 80.6128 40.1445 80.815 39.7584C81.0263 39.3743 81.0176 39.0912 80.999 39.0929Z" fill="#FF9A6C"/>
<path d="M80.4218 41.8415C80.4397 41.8902 80.9352 41.721 81.3988 41.2878C81.8656 40.8579 82.0713 40.3764 82.024 40.355C81.9731 40.3256 81.7023 40.7373 81.2628 41.1414C80.8273 41.5493 80.3966 41.7882 80.4218 41.8415Z" fill="#FF9A6C"/>
</svg>
