<svg width="90" height="148" viewBox="0 0 90 148" fill="none" xmlns="http://www.w3.org/2000/svg">
<path d="M25.0675 120.045C25.9625 120.045 18.2307 140.814 16.2405 146.119C16.0201 146.707 15.866 147.224 15.866 147.224L69.9891 147.318L69.3512 96.9591C69.3506 96.926 69.3486 96.8928 69.3441 96.8597L64.8174 60.8379C64.7727 60.4805 64.5182 60.1858 64.1704 60.0914C62.0275 59.5102 54.3053 57.5174 48.3972 57.2985C41.4706 57.042 31.455 58.4159 31.455 58.4159C31.455 58.4159 22.4678 59.343 17.5215 61.127C17.1244 61.27 16.883 61.6696 16.9412 62.0877L25.0675 120.045Z" fill="#249F9A"/>
<path d="M50.0628 97.7232C50.0794 97.7307 49.9825 97.9626 49.7918 98.3772C49.6999 98.5866 49.5789 98.838 49.4113 99.1161C49.2472 99.3957 49.0775 99.7255 48.837 100.056C48.6102 100.396 48.3567 100.766 48.0465 101.134C47.7573 101.519 47.3989 101.888 47.032 102.285C46.268 103.051 45.3594 103.826 44.3179 104.517C43.2678 105.196 42.1931 105.719 41.1861 106.113C40.6751 106.291 40.1937 106.472 39.7249 106.583C39.2636 106.72 38.8234 106.805 38.4213 106.877C38.0217 106.966 37.6518 106.989 37.33 107.028C37.0083 107.071 36.7292 107.081 36.5008 107.082C36.0445 107.091 35.7935 107.087 35.793 107.069C35.79 107.011 36.802 107.018 38.3862 106.696C38.7817 106.613 39.2134 106.52 39.6657 106.375C40.1255 106.257 40.5978 106.07 41.0988 105.889C42.0861 105.488 43.1403 104.967 44.1743 104.299C45.1998 103.618 46.0983 102.861 46.8603 102.116C47.2267 101.729 47.5862 101.371 47.8783 100.996C48.1915 100.64 48.4505 100.281 48.6839 99.9519C49.6126 98.6277 50.0111 97.6976 50.0628 97.7232Z" fill="#263238"/>
<g opacity="0.2">
<path d="M17.7037 142.195C22.8258 144.369 28.7283 143.522 33.2315 140.253C35.1831 138.836 36.821 136.983 38.9267 135.808C41.8471 134.178 45.3288 134.024 48.6648 133.786C53.1303 133.467 57.6299 132.92 61.8278 131.364C62.6786 131.049 63.548 130.669 64.1293 129.973C64.7106 129.277 64.9053 128.178 64.3376 127.47C63.7578 126.746 62.6907 126.706 61.764 126.733C47.7673 127.146 34.9778 128.268 21.354 131.506" fill="black"/>
</g>
<path d="M32.7884 5.48885C37.1143 1.08462 43.9415 -1.51555 49.5971 0.959132C53.3995 2.62314 55.979 6.1916 59.3166 8.65874C61.7471 10.4558 64.7503 11.8442 66.0243 14.5859C67.1472 17.0029 66.6056 19.8154 66.3345 22.4667C66.0635 25.1176 66.2532 28.1756 68.3068 29.8747C69.385 30.7667 70.8025 31.1191 72.0168 31.8148C74.4608 33.2153 75.913 35.9404 76.4365 38.7082C76.9601 41.4761 76.6775 44.3252 76.3934 47.1277L64.7438 49.3474L62.8303 46.1288L62.1632 51.1886L47.2961 52.5303L32.7884 5.48885Z" fill="#263238"/>
<path d="M30.8667 10.2975L30.8416 13.5387L29.925 62.1312C29.8452 67.7638 35.2343 72.5595 41.2659 72.5987C47.3572 72.6383 49.8419 68.0619 50.0166 62.3737C50.1998 56.4028 50.502 50.1208 50.502 50.1208C50.502 50.1208 58.2297 49.0556 60.1 39.0635C61.0301 34.0946 61.005 25.9041 60.7681 19.2029C60.5548 13.1718 55.368 8.53114 49.351 9.00047L30.8667 10.2975Z" fill="#FFBE9D"/>
<path d="M58.1203 25.6581C58.1258 26.3383 57.5536 26.904 56.8433 26.9226C56.134 26.9412 55.5538 26.4061 55.5487 25.7254C55.5437 25.0452 56.115 24.479 56.8242 24.4605C57.5345 24.4414 58.1153 24.9775 58.1203 25.6581Z" fill="#263238"/>
<path d="M58.8746 23.4111C58.7105 23.5743 57.7552 22.8258 56.3698 22.7917C54.9869 22.7375 53.9509 23.4217 53.8053 23.248C53.7335 23.1707 53.9042 22.8725 54.356 22.5623C54.8007 22.2536 55.5521 21.962 56.415 21.9891C57.2774 22.0177 57.9947 22.355 58.4028 22.6918C58.8194 23.0306 58.9554 23.3378 58.8746 23.4111Z" fill="#263238"/>
<path d="M44.4766 25.6576C44.4821 26.3378 43.9099 26.9035 43.1996 26.9221C42.4903 26.9407 41.9101 26.4056 41.905 25.7249C41.8995 25.0447 42.4713 24.478 43.1805 24.4595C43.8908 24.4409 44.4711 24.977 44.4766 25.6576Z" fill="#263238"/>
<path d="M45.2532 23.2939C45.0885 23.4571 44.1323 22.7091 42.7484 22.6745C41.3655 22.6203 40.3289 23.3045 40.1833 23.1308C40.1121 23.054 40.2812 22.7553 40.7345 22.4451C41.1787 22.1359 41.9307 21.8448 42.793 21.8719C43.6559 21.9005 44.3727 22.2383 44.7813 22.5746C45.1964 22.9135 45.3335 23.2207 45.2532 23.2939Z" fill="#263238"/>
<path d="M49.9963 33.7043C49.9918 33.6255 50.8572 33.5005 52.2572 33.3605C52.6115 33.3339 52.9484 33.2727 53.0146 33.0327C53.105 32.7792 52.9674 32.3942 52.8073 31.9781C52.4986 31.1132 52.1753 30.2067 51.8355 29.2564C50.4887 25.3818 49.5245 22.1999 49.6806 22.1471C49.8372 22.0944 51.056 25.1916 52.4027 29.0662C52.726 30.0214 53.0357 30.932 53.3298 31.8029C53.4528 32.2085 53.6702 32.6708 53.4754 33.1959C53.373 33.4574 53.108 33.6421 52.8796 33.6968C52.6507 33.7596 52.4519 33.758 52.2767 33.7636C50.8707 33.8007 49.9993 33.7831 49.9963 33.7043Z" fill="#263238"/>
<path d="M50.5012 50.1205C50.5012 50.1205 43.7373 50.3695 37.1591 46.1641C37.1591 46.1641 40.2296 53.1484 50.3004 52.4863L50.5012 50.1205Z" fill="#EB996E"/>
<path d="M49.3187 37.0257C48.8388 36.3536 47.976 35.9676 47.1071 36.0374C46.5042 36.0856 45.8888 36.3586 45.5103 36.838C45.1318 37.3174 45.036 38.0101 45.3552 38.486C45.7141 39.0216 46.4922 39.1646 47.1583 38.9949C47.8249 38.8253 48.4056 38.4056 48.9578 37.987C49.1104 37.8711 49.267 37.7501 49.3649 37.5884C49.4628 37.4268 49.4884 37.212 49.3769 37.0729" fill="#EB996E"/>
<path d="M45.8937 34.5501C46.1195 34.543 46.0809 36.0464 47.3383 37.1492C48.5932 38.2551 50.2005 38.1306 50.2065 38.3414C50.2251 38.4358 49.8416 38.6235 49.165 38.623C48.5009 38.6275 47.5376 38.3876 46.7686 37.7134C46.0016 37.0373 45.6879 36.1548 45.6537 35.5364C45.6131 34.906 45.7913 34.5385 45.8937 34.5501Z" fill="#263238"/>
<path d="M45.6931 19.2658C45.546 19.6387 44.1681 19.4219 42.5377 19.573C40.9044 19.6914 39.5807 20.1307 39.3744 19.7873C39.2825 19.6232 39.5209 19.2753 40.0606 18.925C40.5957 18.5756 41.4435 18.2528 42.4218 18.1705C43.4001 18.0907 44.2891 18.2704 44.8744 18.5274C45.4647 18.7844 45.7568 19.0886 45.6931 19.2658Z" fill="#263238"/>
<path d="M58.9264 20.6129C58.6212 20.9191 57.4687 20.5607 56.0727 20.507C54.6788 20.4127 53.4881 20.6471 53.2246 20.3108C53.1101 20.1476 53.3049 19.8374 53.8299 19.5543C54.347 19.2712 55.2053 19.0523 56.1646 19.103C57.1233 19.1547 57.947 19.4624 58.4239 19.7983C58.9083 20.1346 59.0614 20.4629 58.9264 20.6129Z" fill="#263238"/>
<path d="M20.5088 60.208C20.5088 60.208 4.36612 63.9958 1.23538 79.3037C-0.203245 86.3377 -2.21913 126.727 7.18966 133.001C19.3337 141.099 34.77 133.729 34.77 133.729L32.7878 114.194H22.7651L21.4128 92.7914C21.7903 94.4333 20.5088 60.208 20.5088 60.208Z" fill="#249F9A"/>
<path d="M77.9352 127.444C81.0645 127.123 84.0501 125.568 86.1067 123.188C88.1632 120.807 89.2691 117.628 89.133 114.485L82.5402 86.4645C82.5402 86.4645 78.2645 62.4175 64.7437 60.25L69.3502 96.9093L68.9109 104.635C68.9109 104.635 69.1203 109.746 69.6398 119.321L77.9352 127.444Z" fill="#249F9A"/>
<path d="M79.6846 109.909C79.6856 109.966 78.7318 109.864 77.2506 110.176C75.7843 110.475 73.775 111.299 72.1581 112.946C70.5438 114.596 69.7623 116.622 69.4937 118.095C69.2121 119.582 69.3336 120.533 69.2769 120.533C69.2623 120.535 69.2222 120.301 69.2001 119.873C69.1765 119.445 69.192 118.822 69.312 118.062C69.5379 116.555 70.3109 114.461 71.9719 112.762C73.6354 111.067 75.713 110.252 77.2149 109.994C77.9719 109.859 78.5953 109.83 79.023 109.845C79.4512 109.859 79.6856 109.895 79.6846 109.909Z" fill="#263238"/>
<path d="M38.0349 4.36854C39.853 6.80909 40.7169 8.68393 41.8066 13.0239C42.3402 15.1497 40.612 16.6506 38.8953 17.9486C38.0906 18.557 36.9271 18.1319 36.7072 17.1475C36.7072 17.1475 37.3035 23.7985 34.8986 26.7802C33.7712 28.1782 33.7235 29.9712 33.9911 31.4821C34.2641 33.0251 35.0593 34.4135 36.139 35.5495C38.9269 38.4809 39.7014 43.2621 37.7779 46.8572C37.2855 47.7778 36.6424 48.6206 36.2494 49.5879C36.0245 50.1415 35.893 50.7605 35.9292 51.3533C35.9733 52.0851 35.4694 52.7332 34.7435 52.8386C26.4918 54.0358 18.1035 54.2882 9.79496 53.5885C9.21018 53.5393 8.70872 53.1252 8.57369 52.5545C7.92264 49.7987 9.00839 46.7934 10.4013 44.2555C11.9569 41.4214 13.9372 38.7023 14.4723 35.5143C14.9762 32.5141 14.157 29.279 15.3622 26.4855C16.8415 23.0571 20.8627 21.4363 22.8761 18.2915C24.7755 15.3244 24.6229 11.4337 26.3246 8.34911C28.5101 4.38863 33.8892 2.55997 38.0349 4.36854Z" fill="#263238"/>
<path d="M38.4982 8.05245C41.655 9.6753 43.1137 13.5359 46.1802 15.3234C48.9732 16.9513 52.4583 16.5216 55.6553 16.0412C55.5368 15.3319 55.4179 14.6231 55.2994 13.9139C55.6232 14.5358 55.958 15.1723 56.484 15.6361C57.0101 16.0994 57.7766 16.3579 58.4271 16.0959C59.4993 15.6637 59.6419 14.1884 59.3668 13.0656C58.9256 11.267 57.8755 9.65824 56.5764 8.33858C54.2152 5.9407 50.974 4.42878 47.6194 4.16073C44.2647 3.89268 40.8248 4.87051 38.1122 6.8628" fill="#263238"/>
<path d="M68.0994 79.5078C68.1084 79.5078 68.1184 79.6438 68.129 79.9024C68.1375 80.1855 68.1491 80.5619 68.1636 81.0333C68.1832 82.0151 68.2324 83.4357 68.3072 85.1895C68.4512 88.6983 68.779 93.5392 69.1746 98.8846C69.5701 104.232 69.8688 109.08 69.9657 112.594C70.0169 114.351 70.0379 115.773 70.0264 116.756C70.0204 117.228 70.0154 117.604 70.0118 117.887C70.0058 118.146 69.9978 118.282 69.9887 118.282C69.9797 118.282 69.9697 118.146 69.9586 117.887C69.9501 117.604 69.9386 117.228 69.924 116.757C69.9044 115.775 69.8552 114.355 69.7804 112.601C69.6364 109.092 69.3086 104.251 68.913 98.9032C68.518 93.5578 68.2188 88.7103 68.122 85.1961C68.0708 83.4392 68.0497 82.0171 68.0612 81.0338C68.0672 80.5619 68.0723 80.1855 68.0758 79.9019C68.0828 79.6433 68.0903 79.5078 68.0994 79.5078Z" fill="#263238"/>
<path d="M22.7656 114.194C22.7566 114.194 22.7445 114.097 22.7295 113.913C22.7154 113.7 22.6984 113.433 22.6773 113.107C22.6361 112.371 22.5804 111.367 22.5121 110.143C22.3696 107.64 22.1497 104.185 21.8892 100.369C21.6252 96.5686 21.3857 93.1297 21.2095 90.5958C21.1292 89.3725 21.063 88.3691 21.0148 87.6332C20.9982 87.3069 20.9842 87.0404 20.9731 86.8265C20.9666 86.6418 20.9671 86.5444 20.9761 86.5439C20.9852 86.5434 21.0022 86.6388 21.0258 86.822C21.0499 87.0344 21.0795 87.2999 21.1162 87.6247C21.185 88.3595 21.2793 89.3605 21.3938 90.5812C21.6136 93.079 21.8897 96.5325 22.1497 100.351C22.4107 104.168 22.601 107.628 22.6964 110.135C22.7405 111.388 22.7737 112.403 22.7787 113.104C22.7802 113.431 22.7812 113.698 22.7822 113.911C22.7802 114.096 22.7747 114.194 22.7656 114.194Z" fill="#263238"/>
<path d="M22.7655 114.194C22.77 114.241 22.2414 114.264 21.4513 114.53C20.6672 114.789 19.6202 115.349 18.8035 116.317C17.9878 117.286 17.6133 118.413 17.4908 119.23C17.3618 120.053 17.4286 120.578 17.3819 120.582C17.3658 120.584 17.3317 120.456 17.3041 120.218C17.276 119.981 17.2649 119.633 17.3076 119.206C17.3859 118.357 17.7473 117.166 18.6037 116.149C19.461 115.133 20.5739 114.575 21.3966 114.354C21.8107 114.24 22.1551 114.192 22.394 114.179C22.6324 114.166 22.7644 114.178 22.7655 114.194Z" fill="#263238"/>
<path d="M34.7706 133.73C34.7615 133.731 34.742 133.625 34.7128 133.421C34.6827 133.19 34.6446 132.894 34.5979 132.53C34.5055 131.721 34.3785 130.608 34.2229 129.247C33.9283 126.442 33.5277 122.624 33.0845 118.406C32.9374 116.94 32.7953 115.523 32.6633 114.207L32.7883 114.32C29.5702 114.301 26.7823 114.285 24.7604 114.274C23.7906 114.259 23.0061 114.246 22.4298 114.237C22.1788 114.228 21.973 114.222 21.8069 114.216C21.6653 114.209 21.5915 114.202 21.5915 114.194C21.5915 114.187 21.6653 114.18 21.8069 114.172C21.9735 114.167 22.1788 114.16 22.4298 114.152C23.0066 114.143 23.7911 114.13 24.7604 114.115C26.7823 114.103 29.5702 114.087 32.7883 114.069L32.9017 114.068L32.9133 114.182C33.0483 115.497 33.1939 116.914 33.3445 118.38C33.7576 122.602 34.1321 126.423 34.4066 129.229C34.5276 130.593 34.627 131.709 34.6988 132.52C34.7259 132.886 34.748 133.184 34.765 133.416C34.7776 133.621 34.7796 133.729 34.7706 133.73Z" fill="#263238"/>
<path d="M34.7706 133.73C34.7731 133.739 34.6426 133.787 34.3916 133.87C34.1165 133.958 33.7501 134.075 33.2898 134.222C32.3305 134.519 30.9406 134.943 29.2043 135.406C27.4685 135.866 25.3808 136.364 23.0221 136.69C20.6609 137.055 17.9934 136.913 15.3095 136.325C13.9642 136.035 12.6721 135.662 11.4479 135.236C10.8375 135.019 10.2411 134.795 9.66538 134.555C9.37826 134.433 9.09164 134.322 8.81807 134.174L8.40646 133.967L8.02396 133.72C7.01401 133.057 6.22744 132.204 5.603 131.346C4.97755 130.484 4.5037 129.611 4.11217 128.8C3.34366 127.168 2.8939 125.78 2.59423 124.822C2.44766 124.341 2.33773 123.967 2.26996 123.711C2.20069 123.456 2.16856 123.321 2.1771 123.318C2.18563 123.316 2.23483 123.446 2.32016 123.696C2.41252 123.969 2.536 124.333 2.69061 124.79C3.01939 125.736 3.49475 127.112 4.27832 128.72C4.67738 129.518 5.15575 130.375 5.77768 131.217C6.39911 132.056 7.17414 132.882 8.15548 133.518L8.52693 133.754L8.92549 133.952C9.18701 134.093 9.47514 134.203 9.76025 134.323C10.3325 134.559 10.9253 134.779 11.5317 134.993C12.7479 135.412 14.0305 135.781 15.3637 136.068C18.0276 136.65 20.6518 136.798 22.9895 136.45C25.3357 136.14 27.4198 135.662 29.1576 135.226C30.8959 134.786 32.2929 134.39 33.2607 134.123C33.7265 133.996 34.0974 133.894 34.376 133.818C34.6325 133.753 34.768 133.722 34.7706 133.73Z" fill="#263238"/>
<path d="M26.2526 16.2626C27.2841 13.9344 26.621 11.007 24.7854 9.24209C22.9497 7.47719 20.099 6.91349 17.6776 7.70258C16.5943 8.05546 15.5713 8.67739 14.9032 9.6C13.6724 11.3001 13.9123 13.7999 15.1848 15.4684C16.4573 17.137 18.5771 18.0189 20.6723 18.1354C22.7675 18.2513 24.8471 17.6766 26.7852 16.8704" fill="#263238"/>
<path d="M42.9452 95.8755C46.456 98.7724 54.7178 105.629 54.7178 105.629L59.3439 104.805L45.3296 93.0154C44.5766 92.3819 43.4612 92.4436 42.7826 93.1559C42.0377 93.939 42.112 95.1884 42.9452 95.8755Z" fill="#455A64"/>
<path d="M42.5744 94.3697L40.7548 92.7273C40.3989 92.406 40.3617 91.8609 40.671 91.4945C40.9967 91.1085 41.5785 91.0708 41.951 91.4122L43.7013 93.0159L42.5744 94.3697Z" fill="#455A64"/>
<path d="M47.9889 95.2521C48.0416 95.3018 47.5366 95.9203 46.8615 96.6331C46.1863 97.3463 45.5965 97.8839 45.5438 97.8343C45.4916 97.7846 45.9961 97.1661 46.6712 96.4533C47.3469 95.7406 47.9367 95.203 47.9889 95.2521Z" fill="#263238"/>
<path d="M48.1293 101.026C48.1092 101.054 47.5681 100.715 46.7308 100.112C45.894 99.5083 44.7656 98.6349 43.578 97.6003C42.9897 97.0908 42.3934 96.5678 42.1027 95.9017C41.8111 95.2401 41.8608 94.5524 42.0555 94.0575C42.2508 93.5545 42.5675 93.2377 42.7979 93.0601C43.0339 92.8824 43.19 92.8297 43.1965 92.8427C43.207 92.8608 43.0695 92.9441 42.8637 93.1374C42.6624 93.3306 42.3873 93.6484 42.2292 94.1202C42.0706 94.5835 42.048 95.213 42.3221 95.8023C42.5931 96.3976 43.1578 96.892 43.7497 97.403C44.9318 98.4331 46.0366 99.325 46.8423 99.964C47.6484 100.604 48.1514 100.995 48.1293 101.026Z" fill="#263238"/>
<path d="M32.9471 115.759C36.2757 114.64 39.8125 115.393 43.141 114.275C44.2569 113.901 45.4064 113.507 46.2863 112.725C47.3434 111.785 47.8815 110.405 48.7243 109.27C51.2437 105.878 55.9506 105.174 60.1545 104.744C61.1359 104.643 62.1413 104.544 63.098 104.786C64.0548 105.027 64.9689 105.682 65.2374 106.632C65.506 107.581 64.8926 108.766 63.9107 108.864C64.8318 108.905 65.4768 109.841 65.646 110.747C65.8152 111.653 65.6651 112.592 65.7866 113.505C65.9577 114.789 66.66 115.991 66.6193 117.286C66.5636 119.058 65.0949 120.517 63.4585 121.199C61.8221 121.881 60.0115 121.97 58.2556 122.217C49.6364 123.429 43.0803 128.323 34.7698 132.02" fill="#FFBE9D"/>
<path d="M65.7281 111.936C66.0122 112.528 66.8866 112.661 67.4262 112.285C67.9653 111.91 68.1726 111.181 68.0777 110.531C67.9824 109.881 67.6335 109.296 67.2465 108.765C66.5397 107.797 65.6849 106.947 64.8346 106.102L62.1641 108.337L65.7281 111.936Z" fill="#FFBE9D"/>
<path d="M64.7442 109.017C64.7397 109.099 63.1083 108.965 61.1336 109.271C59.1558 109.562 57.6374 110.171 57.6088 110.094C57.5962 110.064 57.9601 109.873 58.5831 109.645C59.205 109.416 60.0915 109.165 61.0949 109.012C62.0978 108.862 63.0189 108.84 63.681 108.875C64.3431 108.909 64.7472 108.985 64.7442 109.017Z" fill="#EB996E"/>
<path d="M65.9198 114.247C65.9043 114.327 64.5469 114.048 62.8558 114.096C61.1642 114.132 59.822 114.477 59.8029 114.399C59.7793 114.34 61.118 113.872 62.8493 113.835C64.5801 113.786 65.9404 114.187 65.9198 114.247Z" fill="#EB996E"/>
<path d="M65.6368 112.7C65.5946 112.696 65.6358 112.308 65.5635 111.695C65.4897 111.087 65.2693 110.246 64.7548 109.465C64.6479 109.298 64.5289 109.145 64.412 109.001L64.3362 108.907L64.42 108.825C64.9757 108.279 65.1318 107.545 65.1142 107.059C65.1017 106.56 64.9641 106.273 65.0028 106.258C65.0209 106.245 65.2211 106.514 65.2834 107.048C65.3486 107.565 65.2201 108.382 64.6007 109.009L64.6087 108.834C64.7342 108.985 64.8612 109.147 64.9742 109.323C65.5178 110.149 65.7196 111.045 65.7482 111.68C65.7738 112.321 65.6654 112.706 65.6368 112.7Z" fill="#EB996E"/>
<path d="M65.7306 111.649L70.1097 115.758L70.6694 118.199L66.6201 117.285C66.0403 115.224 65.6121 113.261 65.7306 111.649Z" fill="#455A64"/>
<path d="M59.8023 116.884C59.713 117.044 36.1739 128.65 36.1739 128.65V131.146L60.1949 118.651L89.9999 117.526V115.759L59.8023 116.884Z" fill="#F5F5F5"/>
<path d="M36.1739 131.505C36.3386 131.393 62.163 129.064 62.163 129.064L89.9999 117.526L60.1949 118.651L36.1739 131.146V131.505Z" fill="#263238"/>
<path d="M60.9008 125.323C60.6915 123.971 61.987 122.812 63.3067 122.451C64.6263 122.089 66.0389 122.232 67.3731 121.928C68.2299 121.734 69.0336 121.359 69.8538 121.045C73.9704 119.465 78.4871 119.383 82.8958 119.321C83.4419 120.498 82.9892 122.045 81.8959 122.743C82.299 123.797 82.176 124.999 81.7593 126.049C81.3427 127.098 80.6535 128.015 79.9202 128.874C79.3002 129.599 78.6176 130.312 77.7441 130.697C76.8768 131.08 75.8999 131.106 74.9517 131.126C71.9942 131.189 68.8213 131.191 66.3752 129.528C64.4743 128.236 63.1551 126.019 60.952 125.363C61.1262 125.37 61.3003 125.377 61.4745 125.384" fill="#FFBE9D"/>
<path d="M80.6289 123.683C80.6289 123.701 80.4277 123.719 80.0627 123.736C79.6416 123.75 79.1261 123.766 78.5182 123.785C77.2141 123.816 75.4125 123.839 73.4223 123.849C72.4294 123.85 71.4842 123.85 70.6138 123.85C70.1786 123.842 69.7514 123.798 69.3729 123.66C68.9939 123.521 68.6787 123.289 68.4754 123.006C68.2696 122.727 68.1918 122.391 68.241 122.117C68.2852 121.843 68.4162 121.634 68.5527 121.499C68.8424 121.228 69.0923 121.273 69.0818 121.279C69.0918 121.306 68.8614 121.305 68.6265 121.569C68.3966 121.813 68.2194 122.4 68.6235 122.895C68.8097 123.137 69.1004 123.339 69.4437 123.455C69.7916 123.572 70.1916 123.607 70.6168 123.609C71.4852 123.602 72.4294 123.595 73.4203 123.587C75.41 123.577 77.2121 123.583 78.5162 123.6C79.1241 123.613 79.6401 123.625 80.0612 123.634C80.4272 123.648 80.6289 123.664 80.6289 123.683Z" fill="#EB996E"/>
<path d="M79.112 126.161C79.114 126.179 78.861 126.229 78.4012 126.3C77.9409 126.371 77.2733 126.467 76.4431 126.547C75.6128 126.623 74.6159 126.685 73.5086 126.617C72.3977 126.558 71.2006 126.302 69.9652 126.021C67.5016 125.419 65.2116 125.232 63.5537 125.234C62.7249 125.23 62.0538 125.263 61.59 125.289C61.1262 125.314 60.8692 125.331 60.8667 125.311C60.8646 125.295 61.1181 125.244 61.5809 125.188C62.0437 125.131 62.7169 125.07 63.5516 125.05C65.2177 124.999 67.5458 125.161 70.0224 125.766C71.2598 126.048 72.4359 126.307 73.5246 126.377C74.6129 126.457 75.6013 126.415 76.428 126.363C77.2557 126.308 77.9254 126.24 78.3887 126.2C78.8525 126.159 79.11 126.143 79.112 126.161Z" fill="#EB996E"/>
<path d="M76.6545 128.812C76.656 128.83 76.4587 128.866 76.1003 128.915C75.7419 128.963 75.2224 129.027 74.5774 129.082C73.2923 129.186 71.4802 129.3 69.5171 128.918C67.5353 128.54 65.9943 127.531 64.8127 127.061C63.631 126.551 62.8239 126.498 62.8304 126.452C62.8309 126.44 63.0342 126.427 63.3946 126.482C63.755 126.534 64.2726 126.657 64.8809 126.89C66.1072 127.329 67.6427 128.298 69.5678 128.662C71.4868 129.036 73.2808 128.955 74.5643 128.898C75.1641 128.865 75.6736 128.837 76.0908 128.815C76.4522 128.796 76.6525 128.794 76.6545 128.812Z" fill="#EB996E"/>
<g opacity="0.2">
<path d="M69.9782 115.338C70.2272 113.512 70.6218 111.682 71.4455 110.032C72.2687 108.383 73.5577 106.916 75.2363 106.154C76.9144 105.392 79 105.423 80.5119 106.478C80.9667 106.795 81.3733 107.212 81.5635 107.733C81.7538 108.254 81.6905 108.889 81.3101 109.293C80.7549 109.882 79.8182 109.788 79.0101 109.753C75.3231 109.591 71.6412 111.81 70.0606 115.145" fill="black"/>
</g>
<g opacity="0.2">
<path d="M26.3881 113.81C28.3824 110.213 27.6757 105.7 26.1452 101.882C24.6147 98.0645 22.3277 94.5528 21.1597 90.6094C20.9393 98.5871 22.1079 106.601 24.5971 114.184" fill="black"/>
</g>
<path d="M29.9241 58.7582C29.9241 58.7582 32.3586 64.4967 41.1409 64.1317C49.9228 63.7668 50.2079 56.9521 50.2079 56.9521L56.0834 63.1991L50.502 74.7036L43.0042 80.3005L32.7893 76.103L24.3739 69.5735L29.9241 58.7582Z" fill="#249F9A"/>
<g opacity="0.5">
<path d="M9.35505 83.285C9.4454 83.3974 8.29641 84.4696 6.78901 85.6788C5.28112 86.8886 3.98605 87.7775 3.8957 87.6651C3.80535 87.5527 4.95434 86.481 6.46173 85.2713C7.96913 84.0615 9.2647 83.1725 9.35505 83.285Z" fill="#FAFAFA"/>
</g>
<path d="M13.4691 77.095C13.4239 77.2255 12.037 76.834 10.5367 75.9083C9.03177 74.9893 8.05545 73.9296 8.15082 73.8302C8.25172 73.7183 9.35303 74.5741 10.8102 75.4626C12.2619 76.3591 13.5238 76.9544 13.4691 77.095Z" fill="#FAFAFA"/>
<path d="M21.0142 77.7663C21.1327 77.8576 20.0233 79.4704 18.7604 81.5184C17.4909 83.5634 16.5427 85.2751 16.4082 85.2099C16.2822 85.1511 17.0301 83.315 18.3157 81.2434C19.5957 79.1688 20.9053 77.6799 21.0142 77.7663Z" fill="#FAFAFA"/>
<path d="M14.568 95.2094C14.4651 95.3007 13.3065 94.1196 12.2926 92.3642C11.2706 90.6124 10.8198 89.0212 10.9498 88.977C11.0914 88.9238 11.7484 90.3955 12.7443 92.1017C13.7317 93.8119 14.6844 95.1125 14.568 95.2094Z" fill="#FAFAFA"/>
<path d="M7.83229 103.65C7.68923 103.67 7.39709 102.392 7.18024 100.797C6.96289 99.2015 6.90316 97.8928 7.04621 97.8733C7.18927 97.8537 7.48141 99.1312 7.69826 100.726C7.91511 102.322 7.97535 103.631 7.83229 103.65Z" fill="#FAFAFA"/>
<g opacity="0.5">
<path d="M14.1761 105.95C14.0511 105.877 14.6961 104.532 15.6167 102.945C16.5373 101.358 17.3846 100.131 17.5096 100.203C17.6346 100.276 16.9896 101.621 16.069 103.207C15.1484 104.794 14.3006 106.022 14.1761 105.95Z" fill="#FAFAFA"/>
</g>
<path d="M6.80627 114.689C6.70186 114.783 5.58248 113.686 4.49624 112.098C3.40497 110.512 2.78454 109.073 2.90953 109.01C3.04104 108.94 3.85573 110.245 4.92742 111.802C5.99359 113.362 6.91871 114.592 6.80627 114.689Z" fill="#FAFAFA"/>
<path d="M16.8198 113.247C16.9222 113.349 15.7702 114.678 14.2462 116.216C12.7223 117.754 11.4036 118.919 11.3012 118.817C11.1988 118.715 12.3508 117.386 13.8748 115.848C15.3987 114.31 16.7169 113.146 16.8198 113.247Z" fill="#FAFAFA"/>
<g opacity="0.5">
<path d="M11.1277 131.285C11.0328 131.386 9.92196 130.458 8.9085 129.005C7.88851 127.556 7.39608 126.195 7.52308 126.14C7.65911 126.076 8.3473 127.3 9.33667 128.705C10.319 130.115 11.2346 131.179 11.1277 131.285Z" fill="#FAFAFA"/>
</g>
<path d="M24.0491 127.634C24.1209 127.759 22.8865 128.598 21.2933 129.506C19.6996 130.415 18.3498 131.05 18.278 130.925C18.2067 130.799 19.4401 129.961 21.0343 129.052C22.6275 128.144 23.9773 127.509 24.0491 127.634Z" fill="#FAFAFA"/>
<path d="M29.0858 123.477C28.997 123.581 27.8229 122.687 26.7622 121.228C25.6945 119.774 25.2011 118.383 25.3276 118.33C25.4646 118.267 26.1523 119.516 27.1844 120.92C28.2079 122.33 29.1882 123.365 29.0858 123.477Z" fill="#FAFAFA"/>
<path d="M37.9666 94.57C38.0529 94.6855 36.7242 95.8269 34.9985 97.119C33.2722 98.4115 31.803 99.3653 31.7166 99.2498C31.6303 99.1344 32.959 97.9929 34.6852 96.7009C36.411 95.4083 37.8802 94.4546 37.9666 94.57Z" fill="#FAFAFA"/>
<path d="M28.6063 93.9659C28.4627 93.9514 28.4858 92.576 28.6585 90.8944C28.8307 89.2123 29.0872 87.861 29.2308 87.8761C29.3743 87.8907 29.3512 89.266 29.1785 90.9481C29.0059 92.6292 28.7499 93.9805 28.6063 93.9659Z" fill="#FAFAFA"/>
<g opacity="0.5">
<path d="M37.2376 82.2062C37.1573 82.3212 35.6017 81.3634 33.894 79.9037C32.1829 78.4475 30.9917 77.0626 31.0926 76.9652C31.1985 76.8613 32.5418 78.0671 34.2334 79.5062C35.9205 80.9488 37.3235 82.0858 37.2376 82.2062Z" fill="#FAFAFA"/>
</g>
<path d="M30.7568 67.5408C30.8667 67.6341 29.7689 69.1094 28.3047 70.8357C26.84 72.5624 25.564 73.8861 25.4535 73.7922C25.3436 73.6989 26.4414 72.2241 27.9056 70.4974C29.3704 68.7711 30.6468 67.4474 30.7568 67.5408Z" fill="#FAFAFA"/>
<g opacity="0.5">
<path d="M23.3313 65.9697C23.2519 66.0987 22.1306 65.5214 20.6729 65.033C19.2182 64.534 17.9773 64.3102 17.9929 64.1596C18.0004 64.0226 19.3191 64.0175 20.841 64.5381C22.365 65.0506 23.4091 65.8567 23.3313 65.9697Z" fill="#FAFAFA"/>
</g>
<path d="M42.2022 72.7312C42.0637 72.6905 42.3011 71.4688 42.7318 70.003C43.163 68.5368 43.6248 67.3813 43.7633 67.4219C43.9019 67.4626 43.6649 68.6839 43.2337 70.1506C42.8025 71.6163 42.3407 72.7719 42.2022 72.7312Z" fill="#FAFAFA"/>
<path d="M46.7118 84.2844C46.5677 84.2764 46.519 83.0807 46.6033 81.6145C46.6877 80.1482 46.8729 78.9661 47.017 78.9747C47.161 78.9832 47.2097 80.1778 47.1254 81.6446C47.0411 83.1108 46.8558 84.2929 46.7118 84.2844Z" fill="#FAFAFA"/>
<path d="M54.1277 92.9545C54.0374 93.067 52.9386 92.3341 51.6736 91.3171C50.4087 90.3002 49.4565 89.3846 49.5468 89.2721C49.6372 89.1597 50.736 89.8926 52.0009 90.91C53.2664 91.926 54.2186 92.8421 54.1277 92.9545Z" fill="#FAFAFA"/>
<path d="M62.0292 80.8482C62.1246 80.9566 61.1442 81.9776 59.8391 83.1291C58.534 84.2806 57.3986 85.1259 57.3032 85.0179C57.2078 84.9095 58.1882 83.8885 59.4933 82.737C60.7984 81.5855 61.9338 80.7402 62.0292 80.8482Z" fill="#FAFAFA"/>
<g opacity="0.5">
<path d="M58.3973 75.1334C58.3205 75.2514 57.0786 74.5707 55.7424 73.4598C54.4027 72.352 53.5047 71.2577 53.6061 71.1604C53.712 71.0569 54.7606 71.9695 56.0762 73.0573C57.3878 74.148 58.4791 75.0099 58.3973 75.1334Z" fill="#FAFAFA"/>
</g>
<path d="M67.5262 64.9458C67.6401 65.0251 67.0322 66.0642 65.958 67.0696C64.8879 68.0796 63.8137 68.6222 63.7409 68.5032C63.6596 68.3777 64.5706 67.6609 65.5996 66.6886C66.6342 65.7218 67.4057 64.8565 67.5262 64.9458Z" fill="#FAFAFA"/>
<g opacity="0.5">
<path d="M61.2491 63.9904C61.23 64.1294 59.6273 64.015 57.7138 63.5286C55.7988 63.0467 54.3346 62.3856 54.3838 62.2541C54.4345 62.1145 55.9564 62.5478 57.8423 63.0216C59.7257 63.501 61.2712 63.8438 61.2491 63.9904Z" fill="#FAFAFA"/>
</g>
<g opacity="0.5">
<path d="M72.9077 80.2128C72.7701 80.1832 73.0834 78.2221 73.7997 75.8864C74.5115 73.5483 75.3477 71.7477 75.4782 71.7999C75.6163 71.8541 75.0049 73.7235 74.2996 76.039C73.5899 78.3526 73.0522 80.245 72.9077 80.2128Z" fill="#FAFAFA"/>
</g>
<path d="M75.4899 91.2852C75.3849 91.3841 74.1456 90.2416 72.722 88.7332C71.298 87.2243 70.2288 85.9213 70.3342 85.8224C70.4391 85.7235 71.6785 86.8654 73.1025 88.3743C74.5256 89.8827 75.5948 91.1858 75.4899 91.2852Z" fill="#FAFAFA"/>
<g opacity="0.5">
<path d="M79.4904 97.558C79.3458 97.5555 79.257 95.91 79.2916 93.8836C79.3263 91.8562 79.4713 90.2153 79.6154 90.2178C79.76 90.2203 79.8488 91.8652 79.8142 93.8921C79.7795 95.9191 79.6345 97.5605 79.4904 97.558Z" fill="#FAFAFA"/>
</g>
<path d="M75.4294 107.886C75.3165 107.968 74.2393 106.652 73.2474 104.814C72.2495 102.978 71.7365 101.357 71.8665 101.307C72.005 101.251 72.7259 102.76 73.7072 104.565C74.682 106.372 75.5514 107.801 75.4294 107.886Z" fill="#FAFAFA"/>
<path d="M85.7987 109.772C85.8996 109.876 85.2033 110.719 84.2436 111.656C83.2838 112.593 82.424 113.269 82.3231 113.166C82.2222 113.063 82.9184 112.219 83.8782 111.282C84.8379 110.345 85.6978 109.669 85.7987 109.772Z" fill="#FAFAFA"/>
<g opacity="0.5">
<path d="M60.5568 98.0006C60.4278 97.9614 60.8891 96.3145 62.0787 94.6018C63.2583 92.8811 64.6342 91.8656 64.7165 91.9725C64.8194 92.0875 63.6438 93.241 62.5089 94.899C61.3619 96.5474 60.7008 98.0563 60.5568 98.0006Z" fill="#FAFAFA"/>
</g>
<path d="M31.2859 111.773C31.1459 111.739 31.3928 110.245 31.8376 108.438C32.2828 106.63 32.7572 105.193 32.8972 105.227C33.0373 105.262 32.7903 106.755 32.3456 108.563C31.9003 110.37 31.426 111.808 31.2859 111.773Z" fill="#FAFAFA"/>
<path d="M43.616 113C43.5372 113.121 42.2873 112.446 40.8246 111.492C39.3614 110.539 38.2395 109.668 38.3183 109.546C38.3971 109.425 39.647 110.1 41.1097 111.054C42.5729 112.008 43.6948 112.879 43.616 113Z" fill="#FAFAFA"/>
<path d="M42.9977 104.106C42.8777 104.186 42.2899 103.517 41.6856 102.613C41.0807 101.708 40.6877 100.909 40.8081 100.829C40.9281 100.748 41.5154 101.417 42.1203 102.322C42.7246 103.227 43.1177 104.025 42.9977 104.106Z" fill="#FAFAFA"/>
<path d="M48.4345 106.133C48.5174 106.251 47.9893 106.765 47.2554 107.28C46.5211 107.796 45.8585 108.118 45.7756 108C45.6928 107.882 46.2209 107.368 46.9553 106.853C47.6891 106.337 48.3517 106.014 48.4345 106.133Z" fill="#FAFAFA"/>
<g opacity="0.5">
<path d="M34.2385 142.22C34.096 142.176 34.3279 141.036 34.5347 139.629C34.7475 138.222 34.8579 137.065 35.0065 137.065C35.1466 137.063 35.2705 138.255 35.0517 139.707C34.8379 141.158 34.3715 142.263 34.2385 142.22Z" fill="#FAFAFA"/>
</g>
<g opacity="0.5">
<path d="M46.7479 138.148C46.6224 138.219 45.6692 136.781 44.6191 134.936C43.5685 133.09 42.819 131.536 42.9445 131.464C43.07 131.393 44.0228 132.831 45.0734 134.677C46.124 136.522 46.8734 138.076 46.7479 138.148Z" fill="#FAFAFA"/>
</g>
<g opacity="0.5">
<path d="M60.0173 132.55C60.1322 132.638 58.8743 134.475 57.2083 136.653C55.5418 138.831 54.0986 140.526 53.9837 140.438C53.8692 140.35 55.1266 138.514 56.7932 136.335C58.4592 134.157 59.9028 132.463 60.0173 132.55Z" fill="#FAFAFA"/>
</g>
<g opacity="0.5">
<path d="M63.7558 143.208C63.7764 143.351 62.1149 143.71 60.0448 144.009C57.9742 144.309 56.2796 144.435 56.259 144.292C56.2384 144.149 57.8994 143.791 59.97 143.492C62.0401 143.192 63.7352 143.065 63.7558 143.208Z" fill="#FAFAFA"/>
</g>
<path d="M64.3307 137.838C64.1852 137.805 64.3162 136.734 64.3699 135.418C64.4306 134.103 64.3935 133.024 64.5411 133.004C64.6786 132.982 64.9547 134.07 64.8919 135.441C64.8357 136.811 64.4663 137.872 64.3307 137.838Z" fill="#FAFAFA"/>
<path d="M46.4152 144.093C46.365 144.221 45.0087 143.77 43.5931 142.748C42.1726 141.732 41.3132 140.59 41.4181 140.502C41.5295 140.399 42.5295 141.346 43.8983 142.323C45.2606 143.309 46.4769 143.955 46.4152 144.093Z" fill="#FAFAFA"/>
<path d="M25.1272 143.3C24.9872 143.264 25.1548 142.117 25.5022 140.739C25.8495 139.359 26.2441 138.269 26.3841 138.305C26.5242 138.34 26.356 139.486 26.0092 140.866C25.6623 142.245 25.2673 143.335 25.1272 143.3Z" fill="#FAFAFA"/>
<path d="M22.8142 16.3344C22.8469 16.2933 23.4171 16.7842 24.4677 17.361C24.9903 17.6541 25.6448 17.9412 26.3907 18.2002C27.1422 18.4437 27.989 18.6485 28.8945 18.7589C29.8016 18.8573 30.673 18.8498 31.4606 18.784C32.2461 18.7012 32.9489 18.5702 33.5241 18.4035C34.6786 18.0803 35.3452 17.7324 35.3673 17.7796C35.3754 17.7957 35.2132 17.889 34.911 18.0441C34.761 18.1249 34.5742 18.2163 34.3478 18.3001C34.1225 18.387 33.8705 18.5009 33.5763 18.5802C32.9981 18.7725 32.2853 18.9256 31.4847 19.023C30.6825 19.1038 29.791 19.1188 28.8644 19.0179C27.9388 18.9055 27.0749 18.6881 26.3119 18.4276C25.5545 18.151 24.8954 17.8393 24.3759 17.5211C24.1073 17.377 23.8879 17.2084 23.6882 17.0728C23.4864 16.9393 23.3252 16.8078 23.1977 16.6954C22.9392 16.4755 22.8027 16.348 22.8142 16.3344Z" fill="#455A64"/>
<path d="M35.7825 22.1089C35.786 22.1259 35.5917 22.1877 35.2353 22.278C34.8789 22.3689 34.3594 22.4864 33.7099 22.5993C32.4198 22.8192 30.5666 23.038 28.5678 22.6299C26.5664 22.2153 24.9667 21.1245 24.1254 20.097C23.6977 19.586 23.4282 19.1142 23.2841 18.7733C23.1375 18.433 23.0873 18.2337 23.1004 18.2292C23.1536 18.2016 23.391 19.0088 24.2644 19.9755C25.1168 20.9423 26.6784 21.9713 28.6215 22.3744C30.5671 22.773 32.3927 22.5893 33.6818 22.4171C34.3298 22.3277 34.8523 22.2384 35.2142 22.1787C35.5767 22.1184 35.7785 22.0903 35.7825 22.1089Z" fill="#455A64"/>
<path d="M17.908 52.8292C17.9045 52.8322 17.8824 52.8086 17.8417 52.7599C17.8031 52.7102 17.7383 52.64 17.6711 52.536C17.5375 52.3282 17.3639 51.9969 17.271 51.5311C17.0732 50.616 17.279 49.1227 18.3743 47.802C18.9184 47.152 19.6483 46.5682 20.474 46.0306C21.2967 45.4875 22.2229 44.988 23.1294 44.3766C24.0269 43.7632 24.933 43.0178 25.5479 42.0154C25.8526 41.517 26.0694 40.9532 26.1487 40.3564C26.2325 39.7601 26.1859 39.1402 26.0518 38.5308C25.7778 37.3065 25.2286 36.1846 24.7809 35.0687C24.3196 33.9619 23.9597 32.8154 23.932 31.6895C23.8402 29.4317 24.682 27.4811 25.6538 26.1258C26.6361 24.7469 27.7861 23.9432 28.6144 23.5161C28.8222 23.4167 29.0099 23.3268 29.1766 23.247C29.3402 23.1893 29.4833 23.1396 29.6072 23.0959C29.8407 23.0171 29.9641 22.98 29.9666 22.9885C29.9692 22.997 29.8512 23.0507 29.6253 23.1451C29.5048 23.1948 29.3663 23.252 29.2077 23.3178C29.046 23.4031 28.8643 23.499 28.6625 23.6054C27.8594 24.0547 26.7481 24.8673 25.8044 26.2322C24.8707 27.5739 24.0696 29.4889 24.1725 31.6785C24.2066 32.7698 24.556 33.8701 25.0178 34.9719C25.4645 36.0782 26.0222 37.2066 26.3068 38.4751C26.4459 39.1065 26.4961 39.7601 26.4057 40.3926C26.3209 41.0255 26.0875 41.6264 25.7657 42.1484C25.1152 43.2 24.1785 43.9575 23.2634 44.5764C22.3368 45.1923 21.4102 45.6822 20.591 46.2123C19.7698 46.7359 19.0515 47.2981 18.5139 47.922C17.4397 49.1794 17.2077 50.6226 17.3704 51.512C17.533 52.4281 17.9481 52.8111 17.908 52.8292Z" fill="#455A64"/>
<path d="M31.278 53.0121C31.2734 53.0202 31.1746 52.964 30.9873 52.8485C30.8146 52.717 30.5536 52.5082 30.3398 52.1437C30.1194 51.7874 29.9432 51.2904 29.888 50.6971C29.8328 50.1043 29.9001 49.4201 30.1069 48.7013C30.5145 47.2275 31.7463 45.8868 32.6704 44.2037C33.1297 43.3614 33.458 42.3856 33.4249 41.344C33.4073 40.305 33.0921 39.2478 32.6187 38.2454C31.665 36.227 30.1992 34.6227 29.1868 32.9427C28.6748 32.1074 28.2551 31.2616 28.0027 30.4198C27.7351 29.579 27.6859 28.7417 27.7562 27.9998C27.8972 26.499 28.5899 25.4027 29.2179 24.8611C29.5392 24.593 29.8223 24.4304 30.023 24.3445C30.2263 24.2627 30.3333 24.2241 30.3363 24.2326C30.3548 24.2662 29.892 24.3877 29.2867 24.9364C28.6979 25.486 28.0549 26.5582 27.9404 28.0169C27.8842 28.7392 27.9414 29.5444 28.2095 30.3561C28.464 31.1727 28.8811 31.996 29.3916 32.8167C29.9046 33.6374 30.513 34.4571 31.1314 35.32C31.7513 36.1803 32.3712 37.1049 32.8551 38.1345C33.339 39.1595 33.6658 40.2533 33.6808 41.3405C33.713 42.4318 33.3586 43.4623 32.8822 44.3187C31.9215 46.0324 30.6927 47.3465 30.2836 48.756C30.0717 49.4492 29.9939 50.1123 30.0336 50.686C30.0732 51.2608 30.2284 51.7417 30.4271 52.0926C30.8322 52.8063 31.3121 52.9765 31.278 53.0121Z" fill="#455A64"/>
<path d="M51.0873 15.3303C51.0827 15.3383 51.018 15.3107 50.8975 15.2505C50.7781 15.1882 50.6074 15.0863 50.4006 14.9337C49.989 14.6296 49.4499 14.0985 48.9569 13.3235C48.4525 12.5549 48.0233 11.547 47.567 10.4412C47.3356 9.88902 47.0891 9.31277 46.7859 8.74254C46.4697 8.18185 46.1203 7.61011 45.6781 7.08757C43.9408 4.94519 41.6022 3.7957 39.8764 3.34795C38.1276 2.89166 36.9861 2.99506 36.9896 2.93433C36.9891 2.91776 37.2692 2.89718 37.7797 2.88965C38.2877 2.91073 39.0311 2.94988 39.9221 3.16874C40.8091 3.38659 41.8501 3.75303 42.8942 4.37295C43.9333 4.99087 45.0045 5.82412 45.8809 6.92242C46.3342 7.45801 46.6916 8.04632 47.0123 8.62257C47.3195 9.20736 47.564 9.79264 47.7899 10.3488C48.2351 11.4637 48.6397 12.4601 49.1135 13.2251C49.5764 13.9961 50.0798 14.5312 50.4638 14.8539C50.8493 15.1772 51.0993 15.3097 51.0873 15.3303Z" fill="#455A64"/>
<path d="M58.0878 15.2882C58.0863 15.2972 57.9939 15.2872 57.8177 15.2596C57.641 15.237 57.3845 15.1737 57.0638 15.0638C56.4233 14.8459 55.5363 14.3651 54.6709 13.5087C53.7955 12.6659 52.9517 11.4743 52.1877 10.0778C51.4016 8.6984 50.6391 7.11119 49.4585 5.7308C48.2905 4.33333 46.7038 3.50108 45.1994 3.07391C43.6839 2.64272 42.2488 2.55538 41.0552 2.52074C39.858 2.49414 38.8867 2.54433 38.2156 2.57044C37.9043 2.58248 37.6488 2.59202 37.4425 2.60005C37.2653 2.60457 37.172 2.60256 37.1715 2.59353C37.171 2.58449 37.2628 2.56893 37.4385 2.54735C37.6142 2.52627 37.8737 2.49665 38.209 2.46904C38.8792 2.41182 39.851 2.33301 41.0572 2.33602C42.2599 2.34757 43.7126 2.41483 45.2646 2.842C46.8031 3.26314 48.4541 4.121 49.6563 5.56013C50.868 6.97868 51.6265 8.58144 52.3985 9.96084C53.1474 11.3563 53.9596 12.5339 54.8014 13.3777C55.6337 14.2336 56.4825 14.7255 57.0999 14.9684C57.7203 15.2134 58.0938 15.2591 58.0878 15.2882Z" fill="#455A64"/>
<path d="M69.941 47.8687C69.9118 47.8576 70.0695 47.5123 70.2361 46.8552C70.4028 46.2017 70.5915 45.2284 70.5378 44.0201C70.4951 42.8189 70.2085 41.3758 69.4711 39.9638C69.1067 39.257 68.6193 38.5758 68.036 37.9328C67.4547 37.2873 66.7896 36.6739 66.117 36.0314C65.4444 35.3894 64.7943 34.7409 64.2567 34.0351C63.7151 33.3343 63.2729 32.599 62.918 31.8681C62.5606 31.1378 62.2956 30.4089 62.1088 29.7117C61.9156 29.016 61.7941 28.3524 61.7313 27.7425C61.5968 26.5217 61.6656 25.5248 61.76 24.8487C61.7996 24.5088 61.8594 24.2498 61.898 24.0741C61.9372 23.8985 61.9618 23.8076 61.9708 23.8096C61.9974 23.8146 61.9206 24.1846 61.8609 24.8602C61.7981 25.5338 61.7585 26.5202 61.9146 27.7204C61.9884 28.3202 62.1179 28.9713 62.3171 29.653C62.5099 30.3361 62.7774 31.0489 63.1343 31.7627C63.4882 32.477 63.9259 33.1943 64.4585 33.8785C64.9861 34.5662 65.6266 35.2032 66.2972 35.8432C66.9673 36.4837 67.6364 37.1031 68.2257 37.7627C68.8171 38.4192 69.3165 39.126 69.6845 39.8543C70.4299 41.311 70.7019 42.7913 70.722 44.0161C70.7526 45.2479 70.5318 46.2318 70.3335 46.8843C70.2326 47.2121 70.1382 47.4601 70.0614 47.6237C69.9906 47.7874 69.9495 47.8722 69.941 47.8687Z" fill="#455A64"/>
<path d="M14.9519 14.8913C14.9374 14.8893 14.9474 14.7121 15.0157 14.3994C15.0829 14.0867 15.232 13.6419 15.5086 13.137C16.0412 12.1371 17.2394 10.8806 18.9882 10.453C20.7421 10.0424 22.3795 10.6206 23.3066 11.2717C23.7819 11.5969 24.1163 11.9262 24.3175 12.1747C24.5203 12.4227 24.6092 12.5763 24.5971 12.5848C24.556 12.623 24.1564 12.0206 23.2062 11.4273C22.2831 10.836 20.7099 10.318 19.0489 10.708C17.392 11.1121 16.2239 12.2856 15.6682 13.2303C15.0895 14.1886 15.0056 14.9069 14.9519 14.8913Z" fill="#455A64"/>
<path d="M19.816 17.0047C19.7844 16.9987 19.8175 16.5625 19.9561 15.8653C20.1032 15.1846 20.3572 14.1691 21.1427 13.3484C21.9619 12.5267 23.1195 12.4248 23.8036 12.6748C24.152 12.8023 24.3934 12.9975 24.5149 13.1617C24.6404 13.3223 24.6796 13.4297 24.668 13.4363C24.6274 13.4774 24.4085 13.0407 23.7479 12.851C23.117 12.6652 22.0593 12.7947 21.33 13.5311C20.6051 14.2846 20.3255 15.2448 20.1363 15.9084C19.9531 16.5851 19.8552 17.0127 19.816 17.0047Z" fill="#455A64"/>
<path d="M26.1915 9.65187C26.2593 9.69906 25.421 10.7999 24.8729 12.3861C24.3086 13.9672 24.274 15.3502 24.1917 15.3446C24.1299 15.3547 24.0456 13.9301 24.6264 12.2997C25.1931 10.6648 26.1498 9.60519 26.1915 9.65187Z" fill="#E8505B"/>
</svg>
