<svg width="15" height="16" viewBox="0 0 15 16" fill="none" xmlns="http://www.w3.org/2000/svg">
<path d="M9.53977 2.98035L12.5642 6.00473L3.4245 15.1475L0.368451 15.5402C0.318771 15.5485 0.267845 15.5447 0.219898 15.5293C0.17195 15.514 0.128364 15.4873 0.092756 15.4517C0.0571481 15.4161 0.0305452 15.3725 0.0151542 15.3246C-0.000236793 15.2767 -0.0039719 15.2257 0.00425888 15.176L0.387453 12.12L9.53977 2.98035ZM14.9235 3.13236L12.333 0.551339C12.3035 0.521175 12.2683 0.497209 12.2294 0.480846C12.1905 0.464483 12.1487 0.456055 12.1065 0.456055C12.0643 0.456055 12.0226 0.464483 11.9837 0.480846C11.9448 0.497209 11.9096 0.521175 11.8801 0.551339L10.436 2.07778L13.4604 5.10216L14.9172 3.56622C14.9715 3.50668 15.0011 3.42865 15 3.34803C14.9988 3.26741 14.9669 3.19028 14.9108 3.13236H14.9235Z" fill="black"/>
</svg>
