<svg width="145" height="153" viewBox="0 0 145 153" fill="none" xmlns="http://www.w3.org/2000/svg">
<path d="M129.11 108.593L140.487 147.329H137.289L121.6 108.322L129.11 108.593Z" fill="#6F4439"/>
<path d="M101.191 108.593L112.568 146.959H109.37L93.6812 108.322L101.191 108.593Z" fill="#6F4439"/>
<path d="M66.528 108.593L56.2135 146.959H59.4117L74.0375 108.322L66.528 108.593Z" fill="#AE7461"/>
<path d="M99.9359 108.593L90.1584 146.959H93.3562L107.446 108.322L99.9359 108.593Z" fill="#AE7461"/>
<path d="M60.362 91.794C60.362 91.794 59.4713 80.1157 61.2526 76.7824C63.0336 73.4491 80.1315 66.6812 80.1315 66.6812C80.1315 66.6812 91.8703 48.1586 99.7147 44.24C107.559 40.3215 138.193 40.8559 142.646 46.9116C147.098 52.9674 142.111 68.8184 139.796 78.436L131.425 101.946L129.11 108.594H65.3489L60.362 91.794Z" fill="#249F9A"/>
<path d="M139.778 46.7217C139.782 46.7204 139.799 46.7612 139.827 46.8425C139.855 46.9237 139.896 47.0454 139.942 47.2075C140.037 47.5303 140.163 48.0117 140.289 48.6417C140.536 49.8986 140.797 51.7621 140.686 54.0852C140.63 55.247 140.451 56.5092 140.247 57.8634C140.04 59.2177 139.793 60.6645 139.517 62.1895C138.965 65.2396 138.306 68.6046 137.567 72.1634L137.557 72.2164L137.508 72.2407C136.552 72.7221 135.543 73.2331 134.51 73.7327C127.273 77.2668 120.486 79.9518 115.516 81.7119C113.03 82.5935 111 83.2526 109.594 83.6949C108.898 83.906 108.354 84.0711 107.969 84.188C107.792 84.2388 107.652 84.2792 107.545 84.3101C107.449 84.3362 107.399 84.3479 107.398 84.3444C107.396 84.3405 107.444 84.3218 107.538 84.2879C107.643 84.2519 107.781 84.2045 107.955 84.1446C108.337 84.0181 108.877 83.8391 109.566 83.611C110.964 83.1431 112.985 82.4618 115.461 81.5616C120.414 79.7646 127.183 77.0595 134.41 73.5294C135.442 73.0302 136.451 72.5205 137.406 72.0404L137.347 72.1173C138.088 68.5616 138.754 65.1992 139.319 62.1535C139.601 60.6306 139.855 59.1864 140.07 57.8361C140.282 56.4853 140.469 55.2283 140.534 54.0774C140.665 51.7712 140.429 49.9142 140.207 48.6569C140.094 48.0273 139.981 47.5442 139.901 47.2188C139.861 47.0654 139.83 46.9433 139.806 46.849C139.785 46.7656 139.775 46.723 139.778 46.7217Z" fill="#263238"/>
<path d="M68.592 101.341C68.6537 101.33 68.9748 102.946 69.3089 104.948C69.643 106.952 69.8642 108.583 69.8025 108.594C69.7408 108.604 69.4201 106.989 69.0856 104.986C68.7515 102.983 68.5307 101.351 68.592 101.341Z" fill="#263238"/>
<path d="M101.6 108.323C101.538 108.312 102.25 103.85 103.189 98.357C104.129 92.8626 104.94 88.4183 105.001 88.4287C105.063 88.4392 104.351 92.9004 103.412 98.3952C102.473 103.888 101.662 108.333 101.6 108.323Z" fill="#263238"/>
<path d="M24.8008 111.518L16.0366 122.609C16.0366 122.609 1.81916 117.426 0 119.318L20.8953 137.084L35.2604 120.362L24.8008 111.518Z" fill="#263238"/>
<path d="M23.2676 127.197C23.5782 127.651 23.4709 128.344 23.0295 128.672C22.5885 129.001 21.8833 128.898 21.5653 128.449C21.2468 128 21.3498 127.166 21.8255 126.888C22.3009 126.611 23.122 126.777 23.3232 127.289" fill="#E0E0E0"/>
<path d="M20.8953 137.084L22.2774 135.341L1.72661 118.96C1.72661 118.96 0.452284 118.573 0.000427246 119.318L20.8953 137.084Z" fill="#455A64"/>
<path d="M15.788 122.215C15.7046 122.32 16.1756 122.8 16.3985 123.555C16.6414 124.304 16.5245 124.966 16.6527 125.005C16.7634 125.065 17.1301 124.326 16.8438 123.417C16.5662 122.505 15.8458 122.103 15.788 122.215Z" fill="white"/>
<path d="M12.8257 121.258C12.7184 121.337 13.0129 121.886 12.9925 122.612C12.9934 123.339 12.684 123.88 12.7896 123.962C12.8717 124.059 13.4504 123.522 13.4583 122.618C13.4748 121.715 12.9108 121.162 12.8257 121.258Z" fill="white"/>
<path d="M9.35083 122.823C9.42512 122.923 10.0004 122.534 10.2137 121.753C10.4327 120.972 10.139 120.343 10.0234 120.391C9.89436 120.426 9.9491 120.989 9.76445 121.628C9.59501 122.271 9.25785 122.726 9.35083 122.823Z" fill="white"/>
<path d="M18.0659 119.909C18.0299 120.038 18.6173 120.295 19.1608 120.825C19.7152 121.343 19.9993 121.919 20.1271 121.876C20.2492 121.853 20.1319 121.103 19.4827 120.488C18.8388 119.868 18.0842 119.786 18.0659 119.909Z" fill="white"/>
<path d="M43.8483 92.6705C43.8483 93.675 39.3567 139.865 39.3567 139.865L54.5295 141.624C54.5295 141.624 58.3064 118.329 58.8921 114.036C59.4778 109.742 61.4447 102.048 61.4447 102.048L93.815 98.8462C93.815 98.8462 77.9383 76.6348 76.3946 76.5414C74.85 76.4484 43.8483 92.6705 43.8483 92.6705Z" fill="#263238"/>
<path d="M17.6204 118.192C17.6204 118.192 44.7913 81.3613 46.3585 79.4323C47.9257 77.5032 49.7344 75.4538 55.4008 75.4538C61.0673 75.4538 76.3944 76.5417 76.3944 76.5417L84.4926 72.8525L113.89 77.3854C113.89 77.3854 114.975 91.3708 113.046 94.6264C111.117 97.8815 99.6637 98.7257 97.2523 98.846C94.841 98.9664 57.4963 93.8969 57.4963 93.8969C57.4963 93.8969 50.1776 104.055 46.6639 107.96C44.1587 110.744 30.7903 127.899 30.7903 127.899L17.6204 118.192Z" fill="#263238"/>
<path d="M30.8314 128.2L17.3165 118.238L17.4456 118.063C17.7171 117.695 44.6373 81.2058 46.1902 79.2954C47.6596 77.4871 49.4878 75.2361 55.4011 75.2361C60.8403 75.2361 75.3384 76.2497 76.3546 76.321L84.462 72.6279L84.5258 72.6375L114.093 77.1969L114.106 77.3685C114.151 77.9424 115.175 91.4608 113.233 94.7372C111.139 98.2708 98.6768 98.9924 97.263 99.0628C94.9133 99.2006 60.3893 94.5086 57.5961 94.1302C56.8049 95.2238 50.1139 104.45 46.8254 108.105C44.3541 110.852 31.0951 127.862 30.9617 128.033L30.8314 128.2ZM17.9239 118.147L30.7488 127.599C32.1387 125.817 44.1533 110.426 46.5025 107.815C49.9679 103.963 57.2467 93.8717 57.3197 93.7705L57.3962 93.6645L57.5252 93.6823C57.8985 93.7331 94.872 98.7487 97.2412 98.6297C97.7956 98.6018 110.847 97.9119 112.859 94.516C114.618 91.549 113.801 79.182 113.686 77.5744L84.5232 73.0772L76.4337 76.7624L76.3785 76.7585C76.2251 76.7476 60.995 75.6706 55.4006 75.6706C49.6942 75.6706 47.9381 77.8325 46.5269 79.5696C45.0362 81.4039 19.9595 115.388 17.9239 118.147Z" fill="#455A64"/>
<path d="M54.4934 89.0154C54.546 88.9815 55.3315 90.1038 56.2479 91.5215C57.1646 92.9396 57.865 94.1166 57.8124 94.1505C57.7598 94.1844 56.9743 93.0625 56.0576 91.644C55.1417 90.2267 54.4409 89.0493 54.4934 89.0154Z" fill="#455A64"/>
<path d="M40.5822 130.735L41.3556 144.85C41.3556 144.85 27.2681 150.377 27.1573 152.999L54.5793 152.483L54.2765 130.44L40.5822 130.735Z" fill="#263238"/>
<path d="M49.8121 143.502C50.3457 143.637 50.7237 144.227 50.6107 144.765C50.4977 145.304 49.9012 145.693 49.3655 145.567C48.8298 145.442 48.3545 144.748 48.5269 144.225C48.6994 143.703 49.425 143.284 49.9147 143.535" fill="#E0E0E0"/>
<path d="M54.5789 152.482L54.4611 150.262L28.213 151.588C28.213 151.588 27.0022 152.142 27.1564 152.999L54.5789 152.482Z" fill="#455A64"/>
<path d="M40.9085 144.719C40.9154 144.853 41.5863 144.901 42.2532 145.319C42.931 145.72 43.2816 146.294 43.4037 146.238C43.5266 146.21 43.3116 145.413 42.4952 144.921C41.6836 144.422 40.8772 144.597 40.9085 144.719Z" fill="white"/>
<path d="M38.0543 145.963C38.0261 146.093 38.6105 146.31 39.0758 146.868C39.5576 147.412 39.6841 148.022 39.817 148.013C39.943 148.032 40.0212 147.246 39.429 146.564C38.8438 145.876 38.0548 145.834 38.0543 145.963Z" fill="white"/>
<path d="M36.486 149.436C36.6081 149.462 36.7819 148.79 36.4243 148.063C36.0715 147.334 35.435 147.056 35.3803 147.169C35.3064 147.281 35.7205 147.666 36.005 148.267C36.304 148.862 36.3526 149.426 36.486 149.436Z" fill="white"/>
<path d="M41.0889 141.482C41.1475 141.604 41.758 141.407 42.5161 141.444C43.2747 141.466 43.8686 141.709 43.936 141.592C44.0116 141.494 43.4272 141.009 42.5339 140.978C41.6415 140.94 41.0215 141.378 41.0889 141.482Z" fill="white"/>
<path d="M95.9954 40.9961L96.9482 49.8038L85.8925 71.9834C85.8925 71.9834 79.3532 74.1593 77.0391 76.5415L82.3354 76.7723C89.9296 77.1029 97.2836 79.7454 103.352 84.4799C105.968 86.5211 108.077 88.7282 108.468 90.7337C109.621 96.6448 111.382 95.7333 111.382 95.7333L118.085 87.1072L122.781 77.7737L132.205 41.2172L123.11 36.2233L121.068 33.252L107.613 35.1258L104.932 37.7736L95.9954 40.9961Z" fill="#455A64"/>
<path d="M73.6629 64.6229L79.3115 62.2581L88.1879 49.8072C88.1879 49.8072 92.3042 41.5761 95.9955 40.9965C99.6868 40.4169 96.9483 49.8042 96.9483 49.8042L91.2571 65.9659L82.0783 72.3909L75.7475 71.8409L71.6495 68.3507L73.6629 64.6229Z" fill="#455A64"/>
<path d="M96.8784 44.0606C96.8853 44.0637 96.8519 44.1636 96.7815 44.3508C96.7007 44.5581 96.5946 44.8288 96.4634 45.1655C96.1741 45.8959 95.7722 46.9108 95.2795 48.1543C94.2837 50.6794 92.9533 54.1852 91.4917 58.0616C90.0297 61.9394 88.6741 65.4386 87.6401 67.9504C87.1239 69.2064 86.6968 70.2192 86.3888 70.9135C86.241 71.2433 86.1224 71.5083 86.0312 71.7116C85.9473 71.8932 85.8995 71.9871 85.8926 71.984C85.8852 71.981 85.9191 71.8811 85.9895 71.6938C86.0703 71.4866 86.1763 71.2159 86.3075 70.8796C86.5969 70.1497 86.9988 69.1347 87.4915 67.8908C88.4869 65.3656 89.8181 61.8594 91.2801 57.9817C92.7417 54.1053 94.0968 50.6065 95.1313 48.0947C95.6475 46.8387 96.0746 45.8259 96.3826 45.1316C96.5303 44.8014 96.649 44.5364 96.7402 44.333C96.8236 44.1514 96.8714 44.0576 96.8784 44.0606Z" fill="#263238"/>
<path d="M107.963 43.6955C107.948 43.7024 107.828 43.4891 107.623 43.0972C107.404 42.6649 107.12 42.1031 106.778 41.4275L106.926 41.4266C106.63 42.0792 106.285 42.8534 105.827 43.675C105.368 44.4932 104.785 45.3643 103.983 46.1059L103.772 46.3015L103.794 46.0147C103.795 46.0004 103.796 45.9851 103.797 45.9695C103.96 43.7267 104.225 41.7069 104.463 40.2535C104.582 39.5266 104.691 38.941 104.774 38.5378C104.858 38.1346 104.913 37.9134 104.928 37.916C104.944 37.9191 104.918 38.1454 104.861 38.5525C104.799 39.0014 104.718 39.581 104.622 40.277C104.424 41.7334 104.186 43.7498 104.023 45.9856C104.022 46.0008 104.021 46.0164 104.019 46.0308L103.83 45.9395C104.606 45.2213 105.183 44.3741 105.644 43.5716C106.105 42.7657 106.464 42.001 106.777 41.3571L106.854 41.1994L106.925 41.3562C107.241 42.0449 107.504 42.6175 107.705 43.0581C107.885 43.4617 107.977 43.6885 107.963 43.6955Z" fill="#263238"/>
<path d="M122.235 36.9095C122.241 36.9148 122.198 36.9756 122.11 37.0868C122.004 37.2167 121.875 37.3749 121.718 37.566C121.371 37.9762 120.862 38.5649 120.208 39.2709C118.908 40.6873 117.033 42.576 114.817 44.5033C113.812 45.3797 112.825 46.1891 111.904 46.9069L111.736 47.0376L111.733 46.8261C111.704 45.1629 111.39 43.7308 111.057 42.6672L111.165 42.7076C110.482 43.1 109.927 43.418 109.512 43.6565C109.125 43.8738 108.911 43.9854 108.904 43.9733C108.897 43.9611 109.097 43.8264 109.471 43.5879C109.877 43.3355 110.421 42.9974 111.089 42.5812L111.167 42.533L111.197 42.6216C111.562 43.687 111.903 45.1338 111.945 46.8217L111.774 46.7409C112.686 46.0175 113.667 45.2068 114.669 44.333C116.878 42.4113 118.765 40.547 120.092 39.1614C120.759 38.4706 121.285 37.8997 121.652 37.5078C121.821 37.3279 121.961 37.1789 122.076 37.0568C122.175 36.9552 122.23 36.9043 122.235 36.9095Z" fill="#263238"/>
<path d="M121.42 34.4055L122.335 15.7199C122.917 9.8697 119.996 4.65467 114.132 4.23583L113.588 4.22844C108.111 4.15719 103.496 8.30167 102.985 13.7548C102.51 18.8286 102.049 24.4403 102.047 27.1658C102.044 32.8075 107.674 33.7581 107.674 33.7581C107.687 33.759 107.523 37.184 107.43 38.8372L108.611 43.1402L121.42 34.4055Z" fill="#FFBF9D"/>
<path d="M107.685 33.7732C107.685 33.7732 111.237 34.0282 115.058 31.6973C115.058 31.6973 113.236 35.9152 107.614 35.3338L107.685 33.7732Z" fill="#FF9A6C"/>
<path d="M104.666 18.9103C104.646 19.3356 104.989 19.7036 105.432 19.7332C105.875 19.7627 106.252 19.443 106.272 19.0176C106.293 18.5923 105.95 18.2238 105.507 18.1943C105.064 18.1647 104.687 18.4849 104.666 18.9103Z" fill="#263238"/>
<path d="M104.163 16.0681C104.262 16.1745 104.878 15.7305 105.744 15.7444C106.61 15.7453 107.241 16.1997 107.336 16.0946C107.383 16.0485 107.284 15.8574 107.01 15.6519C106.739 15.4476 106.277 15.246 105.737 15.2413C105.197 15.2374 104.74 15.4298 104.477 15.6301C104.207 15.8317 104.114 16.0207 104.163 16.0681Z" fill="#263238"/>
<path d="M112.227 19.0773C112.206 19.5027 112.549 19.8707 112.993 19.9002C113.436 19.9298 113.812 19.61 113.833 19.1846C113.853 18.7593 113.51 18.3913 113.067 18.3613C112.623 18.3313 112.247 18.652 112.227 19.0773Z" fill="#263238"/>
<path d="M112.657 16.3801C112.756 16.4866 113.373 16.043 114.239 16.0565C115.105 16.0578 115.736 16.5118 115.831 16.4066C115.878 16.3602 115.78 16.1694 115.504 15.9644C115.234 15.7597 114.772 15.5585 114.232 15.5538C113.692 15.5499 113.235 15.7428 112.971 15.9426C112.702 16.1438 112.609 16.3328 112.657 16.3801Z" fill="#263238"/>
<path d="M109.461 23.0003C109.466 22.9508 108.928 22.8508 108.056 22.7279C107.835 22.7022 107.626 22.6558 107.591 22.5041C107.541 22.3438 107.636 22.1061 107.747 21.8498C107.962 21.3167 108.187 20.7584 108.424 20.1727C109.364 17.7848 110.048 15.8201 109.951 15.7828C109.854 15.7458 109.014 17.6514 108.074 20.0393C107.848 20.6285 107.631 21.1898 107.425 21.7268C107.338 21.9775 107.19 22.2608 107.299 22.5941C107.356 22.7605 107.517 22.8825 107.659 22.9225C107.8 22.9677 107.925 22.9716 108.034 22.9799C108.912 23.0385 109.457 23.0494 109.461 23.0003Z" fill="#263238"/>
<path d="M112.412 13.665C112.527 13.8879 113.371 13.6663 114.395 13.6572C115.42 13.6281 116.271 13.8179 116.378 13.5911C116.424 13.483 116.254 13.2814 115.896 13.0976C115.541 12.9138 114.993 12.7661 114.379 12.7769C113.765 12.7891 113.223 12.9568 112.875 13.1536C112.523 13.3509 112.361 13.559 112.412 13.665Z" fill="#263238"/>
<path d="M104.156 13.5193C104.33 13.7214 105.042 13.5367 105.891 13.5506C106.74 13.5397 107.454 13.7266 107.625 13.5254C107.7 13.4277 107.593 13.2269 107.284 13.0318C106.98 12.8376 106.466 12.6712 105.883 12.6699C105.3 12.6691 104.79 12.8333 104.489 13.0266C104.183 13.2208 104.079 13.4211 104.156 13.5193Z" fill="#263238"/>
<path d="M121.831 19.6971C121.927 19.6567 125.722 18.6009 125.548 22.456C125.375 26.3107 121.541 25.3418 121.539 25.231C121.537 25.1198 121.831 19.6971 121.831 19.6971Z" fill="#FFBF9D"/>
<path d="M122.782 23.8237C122.799 23.812 122.847 23.8737 122.958 23.931C123.067 23.9866 123.255 24.0301 123.46 23.9636C123.874 23.8324 124.246 23.2016 124.296 22.5073C124.321 22.1571 124.263 21.8195 124.151 21.5375C124.046 21.2503 123.872 21.0448 123.669 20.9992C123.467 20.9427 123.317 21.0591 123.265 21.1656C123.208 21.2712 123.229 21.3489 123.209 21.355C123.197 21.3641 123.129 21.2868 123.167 21.1287C123.186 21.0526 123.236 20.964 123.329 20.894C123.425 20.8228 123.563 20.7906 123.705 20.8124C124.001 20.8462 124.257 21.1317 124.38 21.4415C124.519 21.7534 124.593 22.1327 124.564 22.5264C124.505 23.3019 124.074 24.011 123.51 24.147C123.235 24.2056 123.013 24.1135 122.9 24.0175C122.785 23.9171 122.768 23.8302 122.782 23.8237Z" fill="#FF9A6C"/>
<path d="M95.4947 8.07007C95.5655 7.84588 95.7389 7.66601 95.9465 7.55522C96.3993 7.31322 96.9067 7.3697 97.3986 7.38316C98.6229 7.41618 99.8494 7.15506 100.964 6.6489C100.592 6.43991 100.247 6.19052 99.9581 5.8764C99.3615 5.22772 99.0444 4.26058 99.3654 3.44028C99.4258 3.28648 99.5236 3.12659 99.6839 3.08445C99.9376 3.01841 100.146 3.27344 100.313 3.47635C100.859 4.1424 101.378 4.44088 102.238 4.39092C102.772 4.36007 103.292 4.26275 103.722 4.02031C103.739 4.0038 103.755 3.98512 103.773 3.96861C103.982 3.77048 104.186 3.58105 104.388 3.39814C104.388 3.39727 104.389 3.3964 104.389 3.3964L104.388 3.39727C105.9 2.02128 107.191 1.07803 108.497 0.616181C110.412 -0.0607348 113.572 -0.232355 115.513 0.366354C117.454 0.965499 119.148 2.63346 119.334 4.65595C120.475 3.77266 122.127 3.8513 123.444 4.44784L123.478 4.43437C124.948 5.03047 125.729 6.64412 126.104 8.18564C126.124 8.26993 126.142 8.35509 126.161 8.43981C126.631 9.26141 127.288 9.97656 128.086 10.4879C128.226 10.5783 128.387 10.6882 128.398 10.8551C128.408 11.0202 128.263 11.151 128.124 11.2413C127.755 11.4825 127.331 11.6328 126.895 11.6914C127.016 12.059 127.161 12.4175 127.344 12.7616C127.501 13.054 127.686 13.4046 127.527 13.6953C127.403 13.9199 127.107 14.002 126.855 13.9542C126.603 13.906 126.385 13.7561 126.174 13.6097C126.323 14.0155 126.473 14.4213 126.622 14.8271C126.078 14.8979 125.521 14.8305 125.003 14.6489C124.624 16.0588 124.273 18.6852 123.865 19.6346C122.841 19.6085 122.597 19.4864 122.073 19.6359C121.396 19.8288 121.6 21.0214 120.746 20.6482C120.311 20.4583 119.704 18.7526 119.576 18.2959C118.722 15.2641 118.534 12.0482 119.022 8.93686C118.432 8.25125 117.709 7.68035 116.905 7.26586L116.97 7.32886C115.417 6.71363 113.657 6.09841 112.13 6.77446C110.945 7.29888 110.211 8.47327 109.302 9.39653C107.58 11.1466 105.678 12.0386 103.223 12.0386C102.929 13.7313 102.744 16.5115 102.592 18.0965L101.373 14.8592L101.371 14.8723C101.269 14.6815 101.187 14.4895 101.108 14.2979L101.08 14.2397L101.08 14.2323C100.954 13.9242 100.835 13.6162 100.672 13.3094C100.667 13.3138 100.662 13.3181 100.657 13.3225C99.7634 14.0446 98.5456 12.8298 99.2638 11.9334C99.4063 11.7557 99.5744 11.5989 99.7643 11.472C99.355 11.8244 98.7611 11.976 98.2523 11.7953C97.7435 11.6145 97.3655 11.0758 97.4338 10.5401C97.4802 10.1742 97.7566 9.85752 98.0942 9.72674C97.3968 9.75063 96.6925 9.56859 96.1012 9.19667C95.7124 8.9538 95.3387 8.56407 95.4947 8.07007Z" fill="#263238"/>
<path d="M117.53 5.22754C117.518 5.24144 117.76 5.38699 118.074 5.76933C118.385 6.14994 118.724 6.80382 118.86 7.67973C118.93 8.11507 118.965 8.60039 118.942 9.11959C118.922 9.63922 118.857 10.194 118.791 10.7784C118.728 11.3632 118.66 11.9811 118.67 12.6271C118.675 12.9495 118.699 13.2784 118.755 13.6086C118.813 13.9332 118.882 14.2855 119.113 14.5723C119.297 14.806 119.616 14.9194 119.898 14.8742C120.182 14.8364 120.439 14.697 120.631 14.5002C121.013 14.0922 121.126 13.5586 121.237 13.089L121.118 13.0981C121.293 13.5321 121.473 13.961 121.753 14.3094C122.028 14.6596 122.419 14.9003 122.825 14.9542C123.028 14.9811 123.233 14.9577 123.412 14.8773C123.593 14.7986 123.729 14.6566 123.824 14.5049C123.915 14.3503 123.966 14.1782 123.965 14.0101C123.963 13.8424 123.904 13.6807 123.803 13.5634L123.74 13.6143C124.155 14.1287 124.602 14.4146 124.914 14.5758C125.071 14.6566 125.197 14.7061 125.283 14.7378C125.369 14.7674 125.415 14.7804 125.416 14.7769C125.418 14.773 125.375 14.7535 125.292 14.717C125.209 14.6787 125.087 14.6231 124.934 14.5375C124.633 14.3668 124.2 14.0744 123.804 13.5647L123.742 13.6156C123.923 13.825 123.919 14.1786 123.744 14.4554C123.656 14.5918 123.532 14.7183 123.372 14.7847C123.213 14.8543 123.025 14.8747 122.841 14.8482C122.468 14.7952 122.103 14.5692 121.846 14.2364C121.582 13.9036 121.408 13.4861 121.235 13.0516L121.161 12.8674L121.116 13.0612C121.005 13.5304 120.887 14.0418 120.539 14.4094C120.367 14.5857 120.131 14.7113 119.883 14.7439C119.633 14.7813 119.376 14.6883 119.215 14.488C119.013 14.2399 118.941 13.9058 118.886 13.5865C118.831 13.2645 118.806 12.9421 118.8 12.6249C118.789 11.9897 118.854 11.3758 118.913 10.7915C118.975 10.2071 119.037 9.64965 119.052 9.12306C119.07 8.59691 119.029 8.10465 118.953 7.66322C118.803 6.77558 118.443 6.113 118.114 5.73588C117.782 5.35745 117.53 5.22754 117.53 5.22754Z" fill="#455A64"/>
<path d="M99.8398 9.96829C99.8385 9.97003 99.8533 9.9835 99.8837 10.0087C99.9206 10.0382 99.9654 10.0739 100.02 10.1173C100.08 10.166 100.156 10.2233 100.253 10.2807C100.348 10.3406 100.455 10.4136 100.588 10.4762C101.101 10.7477 101.931 11.031 102.985 11.0145C104.028 11.0006 105.293 10.6856 106.444 9.90355C107.606 9.14148 108.647 7.98968 109.514 6.65714C109.954 5.99152 110.319 5.30548 110.715 4.67462C111.109 4.04289 111.539 3.46199 112.049 3.01101C112.554 2.55698 113.131 2.23025 113.717 2.09383C114.01 2.0204 114.302 2.01344 114.579 2.03169C114.857 2.0582 115.118 2.12598 115.358 2.21591C115.837 2.40013 116.218 2.68558 116.504 2.97495C116.79 3.26648 116.978 3.56974 117.105 3.82826C117.339 4.35789 117.339 4.69156 117.36 4.68678C117.362 4.68678 117.361 4.66636 117.358 4.62726C117.353 4.5799 117.346 4.52299 117.339 4.45347C117.318 4.30097 117.262 4.07938 117.152 3.80697C117.03 3.54063 116.845 3.22694 116.557 2.92368C116.27 2.62302 115.884 2.32453 115.392 2.12945C115.146 2.03343 114.877 1.96087 114.589 1.93046C114.303 1.9083 113.996 1.91352 113.694 1.98738C113.084 2.1238 112.487 2.45792 111.969 2.9202C111.444 3.37988 111.004 3.97033 110.606 4.60597C110.205 5.24118 109.84 5.92592 109.404 6.58502C108.543 7.90757 107.517 9.04633 106.377 9.80189C105.247 10.5779 104.011 10.8946 102.983 10.9211C101.947 10.9493 101.126 10.6847 100.612 10.4301C100.093 10.1725 99.8507 9.95308 99.8398 9.96829Z" fill="#455A64"/>
<path d="M99.4327 7.46639C99.4275 7.47421 99.4974 7.52678 99.6287 7.61585C99.7586 7.70753 99.9589 7.82223 100.215 7.94605C100.47 8.07205 100.788 8.19327 101.151 8.29842C101.514 8.39704 101.923 8.47655 102.357 8.51131C102.791 8.54129 103.207 8.52391 103.582 8.4809C103.955 8.4305 104.288 8.35881 104.559 8.27235C104.831 8.18806 105.046 8.10464 105.188 8.03338C105.331 7.96474 105.408 7.92303 105.404 7.91477C105.394 7.89174 105.076 8.03903 104.533 8.18241C104.263 8.25627 103.935 8.31753 103.568 8.36011C103.2 8.39574 102.793 8.40921 102.367 8.37966C101.941 8.34534 101.541 8.27148 101.182 8.18111C100.826 8.08422 100.51 7.97429 100.254 7.86133C99.739 7.63844 99.4462 7.44554 99.4327 7.46639Z" fill="#455A64"/>
<path d="M109.399 25.6373C109.451 25.5004 110.341 25.901 111.317 25.4248C112.294 24.9508 112.624 23.9571 112.751 24.0067C112.812 24.0197 112.828 24.296 112.658 24.7014C112.494 25.1002 112.109 25.6168 111.512 25.9079C110.914 26.1973 110.308 26.1634 109.929 26.0287C109.542 25.8949 109.366 25.6959 109.399 25.6373Z" fill="#263238"/>
<path d="M101.6 108.323C101.6 108.049 104.621 88.4296 105.788 85.9275C106.713 83.9445 114.126 82.3973 122.066 79.1931C130.615 75.7437 140.527 75.5039 140.527 75.5039L127.98 104.467L101.6 108.323Z" fill="#249F9A"/>
<path d="M106.042 66.7139L98.8016 67.2513V74.1786L106.984 75.1553L106.042 66.7139Z" fill="#FFBF9D"/>
<path d="M129.004 39.5703C132.578 41.0419 135.895 44.2127 135.679 48.322C135.358 54.4142 133.929 67.4863 133.598 70.8553C133.165 75.2505 131.676 78.9553 125.208 79.1981C118.74 79.441 109.218 77.8695 109.218 77.8695C109.218 77.8695 105.79 79.6044 104.845 77.6966C104.594 77.1904 102.893 66.948 102.893 66.948C102.893 66.8116 103.732 65.8375 104.932 65.2366C106.291 64.5562 107.947 65.0767 108.698 66.3984L121.311 65.9865L123.81 54.1227" fill="#455A64"/>
<path d="M123.81 54.1214C123.81 54.1214 123.802 54.1913 123.777 54.3269C123.749 54.4694 123.711 54.6688 123.66 54.9287C123.551 55.4661 123.393 56.2477 123.188 57.2601C122.766 59.3017 122.152 62.2678 121.381 65.9996L121.369 66.0534L121.314 66.0552C118.727 66.1451 115.75 66.2481 112.452 66.3628C111.628 66.391 110.783 66.4197 109.919 66.4493C109.704 66.4566 109.486 66.464 109.268 66.4714L108.94 66.4827L108.775 66.4884L108.734 66.4897L108.713 66.4905L108.702 66.491C108.719 66.5023 108.54 66.3993 108.614 66.4406L108.612 66.4362L108.569 66.3689C108.344 66.007 108.039 65.685 107.667 65.4587C106.931 64.9951 105.946 64.8904 105.118 65.2618C104.702 65.4452 104.306 65.7028 103.939 65.9904C103.755 66.1351 103.577 66.2907 103.41 66.4562C103.327 66.5396 103.245 66.6248 103.169 66.7139C103.131 66.7582 103.096 66.8034 103.061 66.849C103.032 66.8829 102.99 66.9676 102.995 66.9467L102.993 66.9302C103.394 69.3103 103.819 71.8124 104.287 74.4041C104.408 75.051 104.53 75.7036 104.653 76.3619C104.719 76.689 104.783 77.0205 104.86 77.3446C104.9 77.515 104.927 77.6466 105.03 77.7791C105.077 77.8421 105.107 77.9195 105.166 77.9712L105.338 78.1323C105.849 78.5195 106.57 78.5286 107.226 78.4117C107.891 78.2983 108.55 78.0607 109.168 77.7691L109.202 77.7531L109.236 77.7587C111.8 78.1636 114.507 78.5064 117.267 78.7667C119.178 78.9422 121.071 79.0678 122.938 79.1004C124.799 79.1225 126.659 79.1108 128.379 78.5851C129.232 78.3148 130.031 77.9099 130.712 77.3642C131.393 76.8181 131.945 76.1281 132.334 75.3626C133.114 73.8219 133.379 72.114 133.532 70.4669C134.222 63.845 134.849 57.884 135.275 52.8684C135.382 51.6149 135.475 50.4201 135.55 49.2896C135.589 48.7234 135.623 48.1743 135.612 47.6468C135.602 47.3831 135.563 47.1246 135.54 46.8695C135.495 46.618 135.438 46.3721 135.389 46.1292C135.134 45.1694 134.704 44.3348 134.215 43.6392C133.726 42.9414 133.186 42.3744 132.672 41.8987C131.622 40.9667 130.67 40.4128 130.018 40.0682C129.693 39.891 129.434 39.7771 129.262 39.6972C129.09 39.6168 129.004 39.5703 129.004 39.5703C129.004 39.5703 129.096 39.6025 129.272 39.6763C129.447 39.7493 129.709 39.8566 130.038 40.0283C130.699 40.3611 131.662 40.905 132.73 41.8335C133.253 42.308 133.803 42.8754 134.303 43.5779C134.803 44.2779 135.245 45.1221 135.51 46.097C135.562 46.3438 135.621 46.5936 135.669 46.85C135.693 47.1098 135.734 47.3727 135.746 47.6416C135.76 48.183 135.729 48.733 135.692 49.2987C135.623 50.4309 135.535 51.6271 135.433 52.8818C135.028 57.9009 134.417 63.8663 133.738 70.4877C133.587 72.1396 133.325 73.8766 132.525 75.4621C132.126 76.2506 131.554 76.968 130.85 77.5345C130.144 78.1006 129.318 78.519 128.444 78.7967C126.682 79.3363 124.799 79.3467 122.933 79.3254C121.059 79.2933 119.161 79.1677 117.246 78.9917C114.479 78.7311 111.771 78.387 109.2 77.9794L109.268 77.969C108.623 78.2723 107.959 78.5117 107.262 78.6307C106.583 78.7484 105.801 78.7567 105.201 78.3057L105.001 78.1176C104.933 78.0559 104.896 77.9699 104.843 77.8969C104.733 77.7604 104.68 77.5536 104.646 77.3959C104.567 77.0631 104.504 76.7329 104.438 76.4036C104.316 75.744 104.194 75.0901 104.074 74.4423C103.609 71.8485 103.188 69.3455 102.792 66.9637L102.79 66.9506L102.791 66.9467C102.819 66.8055 102.86 66.7951 102.897 66.7286C102.935 66.6782 102.974 66.6283 103.015 66.5818C103.095 66.4871 103.181 66.3989 103.267 66.3124C103.441 66.1408 103.624 65.9813 103.814 65.8323C104.196 65.5355 104.598 65.274 105.039 65.0798C105.93 64.6835 106.984 64.7982 107.768 65.2957C108.165 65.5395 108.49 65.884 108.729 66.2707L108.775 66.3428L108.778 66.3471C108.855 66.3906 108.676 66.2933 108.696 66.3028L108.707 66.3024L108.727 66.302L108.769 66.3007L108.933 66.2955L109.261 66.285C109.479 66.2781 109.697 66.2715 109.912 66.2646C110.776 66.2377 111.621 66.2116 112.445 66.186C115.743 66.0852 118.721 65.9939 121.308 65.9148L121.242 65.9705C122.041 62.2444 122.676 59.2826 123.113 57.2444C123.333 56.2351 123.504 55.4561 123.621 54.9204C123.68 54.6623 123.725 54.4642 123.757 54.3226C123.789 54.1887 123.81 54.1214 123.81 54.1214Z" fill="#263238"/>
<path d="M128.243 40.5633C128.27 40.5916 127.797 41.0395 127.157 41.8668C126.843 42.2847 126.483 42.7918 126.131 43.3853C125.783 43.9805 125.437 44.6566 125.128 45.3899C124.517 46.8628 124.183 48.2757 124.016 49.3076C123.845 50.34 123.81 50.9904 123.766 50.9878C123.75 50.9869 123.748 50.824 123.758 50.5294C123.76 50.2339 123.796 49.809 123.858 49.2846C123.986 48.2379 124.299 46.7977 124.919 45.3031C125.233 44.5588 125.589 43.8754 125.953 43.2775C126.32 42.6814 126.699 42.1766 127.032 41.7668C127.374 41.3632 127.671 41.0556 127.887 40.854C128.106 40.6554 128.232 40.552 128.243 40.5633Z" fill="#263238"/>
<path d="M126.747 71.2895C126.706 71.2986 126.612 70.8559 126.32 70.1989C126.031 69.5425 125.503 68.6861 124.71 67.9297C123.914 67.1767 123.031 66.6945 122.36 66.4407C121.688 66.1835 121.242 66.1123 121.248 66.0714C121.251 66.0562 121.364 66.0632 121.567 66.0897C121.772 66.1114 122.063 66.1783 122.413 66.2904C122.766 66.3994 123.169 66.578 123.595 66.8174C124.015 67.0655 124.454 67.3801 124.866 67.7663C125.273 68.1573 125.61 68.5792 125.88 68.9859C126.141 69.3986 126.34 69.7923 126.467 70.1381C126.598 70.4822 126.679 70.7699 126.712 70.9728C126.749 71.1739 126.762 71.2864 126.747 71.2895Z" fill="#263238"/>
<path d="M109.318 77.5061C109.282 77.4952 109.456 76.8844 109.599 75.8703C109.749 74.8588 109.86 73.4446 109.823 71.8853C109.803 71.105 109.734 70.3655 109.648 69.6959C109.542 69.0303 109.429 68.4316 109.278 67.9454C108.997 66.9639 108.659 66.42 108.698 66.3978C108.711 66.3896 108.799 66.5221 108.947 66.7719C109.027 66.894 109.097 67.0565 109.18 67.245C109.27 67.4314 109.353 67.6504 109.43 67.8976C109.604 68.3869 109.735 68.9912 109.853 69.6651C109.953 70.3416 110.029 71.0906 110.049 71.8792C110.086 73.4555 109.949 74.8819 109.757 75.8964C109.664 76.4043 109.56 76.8101 109.477 77.0864C109.389 77.3614 109.333 77.5109 109.318 77.5061Z" fill="#263238"/>
<path d="M60.139 51.3846C60.139 51.3846 60.6326 50.2089 61.6084 49.9652C61.6084 49.9652 66.4568 51.2543 67.8719 52.8158C67.8719 52.8158 68.1543 51.7113 70.7594 49.4951C74.018 46.7227 77.6537 46.7227 77.6537 46.7227L80.2319 48.3424L69.9017 55.5764L66.83 56.65L60.139 51.3846Z" fill="#FAFAFA"/>
<path d="M60.1389 51.3842C60.1432 51.3829 60.1876 51.4137 60.2701 51.4741C60.3622 51.5432 60.4808 51.6323 60.6299 51.7444C60.9536 51.9924 61.408 52.3405 61.9859 52.7832C63.1598 53.6939 64.8321 54.9912 66.8829 56.5818L66.8012 56.5688C67.7401 56.2369 68.775 55.8715 69.8695 55.4848L69.846 55.4969C72.8004 53.4223 76.3036 50.9623 80.0493 48.332L80.167 48.2499L80.1718 48.4384C79.2963 47.8879 78.4343 47.3457 77.5945 46.8178L77.654 46.8352C75.4234 46.9473 73.3414 47.7698 71.7086 48.902C70.8935 49.4751 70.1688 50.1246 69.5154 50.7742C69.1882 51.0992 68.8867 51.4346 68.6143 51.7761C68.3484 52.115 68.0911 52.4795 67.9573 52.8379L67.9052 52.9774L67.8066 52.8753C67.2995 52.3505 66.6687 51.9994 66.0817 51.6944C65.4882 51.3924 64.9099 51.1496 64.3677 50.9401C63.2832 50.5204 62.3426 50.2254 61.5966 50.0099H61.6196C60.9679 50.1898 60.6268 50.6534 60.4235 50.9267C60.3214 51.0714 60.2532 51.1878 60.2089 51.2669C60.1641 51.3459 60.1432 51.3842 60.1389 51.3842C60.1346 51.3842 60.1498 51.3368 60.1871 51.2547C60.2249 51.1717 60.2866 51.0501 60.384 50.8989C60.579 50.6143 60.9084 50.1272 61.597 49.92L61.6074 49.9169L61.62 49.9204C62.3743 50.1211 63.321 50.4018 64.4163 50.8102C64.9642 51.014 65.5486 51.2521 66.1521 51.5519C66.7504 51.8569 67.3916 52.2014 67.9365 52.7558L67.7861 52.7932C67.9417 52.3644 68.1959 52.0181 68.4678 51.6609C68.7437 51.3099 69.0479 50.9679 69.3768 50.6373C70.035 49.9765 70.7584 49.3204 71.5891 48.7308C73.2536 47.5712 75.3495 46.7292 77.6531 46.6101L77.6831 46.6084L77.7131 46.6271C78.5534 47.1545 79.4158 47.6959 80.2917 48.2459L80.436 48.3367L80.2961 48.4345L80.1783 48.5171C76.4257 51.1378 72.916 53.5887 69.9564 55.6555L69.9451 55.6633L69.9325 55.6677C68.8354 56.047 67.7983 56.4054 66.8572 56.7309L66.812 56.7465L66.7756 56.7174C64.7326 55.0868 63.0669 53.7569 61.8972 52.8232C61.3368 52.37 60.8953 52.0133 60.5812 51.7591C60.4417 51.644 60.3305 51.5523 60.2445 51.4811C60.1711 51.4181 60.135 51.3855 60.1389 51.3842Z" fill="#263238"/>
<path d="M58.4365 51.1844L58.7294 50.5987L65.9999 54.6489C65.9999 54.6489 68.3908 54.5025 68.4395 52.8923C68.4395 52.8923 80.3455 47.9153 80.6383 48.0618C80.9312 48.2082 100.01 64.0666 100.01 64.0666L82.7851 67.7388L74.7824 64.213L58.4365 51.1844Z" fill="#249F9A"/>
<path d="M80.5823 66.7684C80.5423 66.8166 77.2455 64.1424 73.2192 60.7961C69.1916 57.4489 65.96 54.6973 65.9999 54.6491C66.0399 54.6009 69.3363 57.2746 73.3639 60.6218C77.3902 63.9682 80.6223 66.7206 80.5823 66.7684Z" fill="#263238"/>
<path d="M85.212 67.1412C85.1716 67.1885 81.4177 64.0564 76.8288 60.1461C72.2381 56.234 68.5511 53.0254 68.5915 52.9781C68.6319 52.9307 72.3849 56.062 76.9756 59.974C81.5646 63.8839 85.2529 67.0934 85.212 67.1412Z" fill="#263238"/>
<path d="M68.5394 57.8991C68.489 57.8973 66.8667 57.7435 66.477 58.4504C66.0877 59.1569 66.0442 59.5466 66.2028 59.9646C66.3614 60.383 67.1404 61.2767 67.1404 61.2767L67.4002 61.7672C67.4002 61.7672 66.881 62.82 67.1404 63.6855C67.4002 64.5509 68.1931 65.0701 68.1931 65.0701C68.1931 65.0701 68.323 67.1899 69.6065 67.2043C69.6065 67.2043 69.938 68.4013 71.1206 68.3726C72.3033 68.3439 72.8946 68.6468 74.2067 67.969C75.5193 67.2912 77.0395 66.6134 77.3754 65.9356C77.7112 65.2578 76.5421 65.1857 76.5421 65.1857C76.5421 65.1857 77.1781 63.4408 75.13 63.6715C75.13 63.6715 75.3607 61.8689 74.0482 61.6525C72.7356 61.4362 70.0679 61.5947 70.0679 61.5947L69.0152 60.3256C69.0152 60.3256 69.7794 60.1093 69.8229 59.4315C69.8659 58.7533 69.1473 57.9208 68.5394 57.8991Z" fill="#FFBF9D"/>
<path d="M95.3075 64.7854C95.1763 64.8293 93.5987 65.5301 92.5473 65.3989C91.4958 65.2677 83.3464 60.7982 82.1633 60.448C80.9802 60.0974 78.9646 60.448 80.4106 61.9817C81.8565 63.5154 86.3256 66.0128 86.4133 66.144C86.5011 66.2757 86.6762 66.9921 86.6762 66.9921L82.1194 65.2677C82.1194 65.2677 78.7896 63.6028 78.2638 64.6103C77.7381 65.6179 78.5267 66.1875 79.3592 66.4508C80.1916 66.7136 81.1118 66.9921 81.1118 66.9921C81.1118 66.9921 82.0759 68.7731 83.0396 69.4739C84.0037 70.1751 88.385 72.9792 89.1301 73.286C89.8748 73.5927 98.8572 74.2935 99.0323 74.1623C99.2074 74.0307 99.0323 67.4588 99.0323 67.4588L95.8775 64.6108L95.3075 64.7854Z" fill="#FFBF9D"/>
</svg>
