<svg width="96" height="126" viewBox="0 0 96 126" fill="none" xmlns="http://www.w3.org/2000/svg">
<path d="M82.7345 75.0313C85.9961 74.6263 89.2104 73.9275 92.3345 72.9442C92.6388 72.8424 92.9162 72.6781 93.1471 72.4629C93.378 72.2477 93.5569 71.9868 93.6713 71.6984C93.7856 71.4101 93.8326 71.1013 93.809 70.7937C93.7854 70.4862 93.6917 70.1873 93.5345 69.918L89.4109 63.0098C86.8582 58.7522 85.0909 49.6527 85.0909 40.8661V27.7594C85.1344 23.2495 83.5295 18.8667 80.5537 15.3684C77.5778 11.8701 73.4178 9.47618 68.7927 8.60023C65.9882 8.15311 63.116 8.28835 60.3709 8.99677C57.6894 6.12988 54.3983 3.8442 50.7183 2.29285C47.0382 0.741503 43.0541 -0.0397056 39.0327 0.00155312C31.4507 0.179993 24.2474 3.20873 18.9834 8.43166C13.7193 13.6546 10.8184 20.6511 10.9091 27.9055V39.7183C10.9045 50.261 8.02417 60.6201 2.55273 69.7719L2.44364 69.9597C2.29195 70.2263 2.20353 70.5217 2.18468 70.8247C2.16582 71.1277 2.21699 71.4309 2.33455 71.7129C2.45048 71.9977 2.62944 72.2553 2.85916 72.4678C3.08888 72.6804 3.36393 72.8429 3.66546 72.9442C6.78963 73.9275 10.0039 74.6263 13.2655 75.0313C9.15078 77.9374 5.80685 81.7271 3.5028 86.0951C1.19876 90.4632 -0.00103255 95.2877 6.66756e-07 100.18V123.138C6.66756e-07 123.691 0.229871 124.222 0.639041 124.614C1.04821 125.005 1.60316 125.225 2.18182 125.225H93.8182C94.3968 125.225 94.9518 125.005 95.361 124.614C95.7701 124.222 96 123.691 96 123.138V100.18C96.001 95.2877 94.8012 90.4632 92.4972 86.0951C90.1932 81.7271 86.8492 77.9374 82.7345 75.0313ZM7.57091 69.7093C12.624 60.4509 15.2661 50.1625 15.2727 39.7183V27.9055C15.1809 21.7506 17.6276 15.8088 22.083 11.3672C26.5384 6.92565 32.6436 4.34191 39.0764 4.17567C42.692 4.14173 46.2686 4.8922 49.5374 6.37067C52.8062 7.84914 55.6822 10.0172 57.9491 12.7117C58.2352 13.0496 58.6245 13.2936 59.0626 13.4096C59.5007 13.5256 59.9657 13.5078 60.3927 13.3587C62.8535 12.5203 65.4991 12.3046 68.0727 12.7326C71.6844 13.4297 74.9272 15.314 77.2386 18.0587C79.55 20.8034 80.7842 24.2354 80.7273 27.7594V40.8661C80.7273 48.8387 82.2327 59.4201 85.6145 65.0969L88.3854 69.7302C84.3162 70.7802 80.1202 71.3135 75.9054 71.3163C73.2801 70.2621 70.5223 69.5395 67.7018 69.1666C66.6028 69.0177 65.4952 68.9341 64.3854 68.9162C68.1189 65.5655 70.6406 61.1651 71.5854 56.3521H72C74.3146 56.3521 76.5344 55.4726 78.1711 53.907C79.8078 52.3414 80.7273 50.218 80.7273 48.0039C80.7273 45.7898 79.8078 43.6664 78.1711 42.1008C76.5344 40.5352 74.3146 39.6557 72 39.6557V35.4815C72 34.928 71.7701 34.3972 71.361 34.0058C70.9518 33.6144 70.3968 33.3945 69.8182 33.3945H68.0945C66.2975 33.396 64.5281 32.9717 62.9443 32.1596C61.3605 31.3475 60.0116 30.1727 59.0182 28.7403L58.5382 28.0725C58.3691 27.8265 58.1476 27.6175 57.8881 27.4593C57.6287 27.301 57.3372 27.197 57.0327 27.1542C56.7262 27.1105 56.4135 27.1307 56.1159 27.2136C55.8184 27.2964 55.5431 27.4399 55.3091 27.6342L50.7273 31.3909C47.7158 33.8626 44.1107 35.5815 40.2346 36.3937C36.3584 37.2059 32.3322 37.0861 28.5164 36.045L26.7927 35.565C26.4679 35.4718 26.1245 35.4535 25.7908 35.5115C25.4571 35.5695 25.1425 35.7023 24.8727 35.8989C24.6035 36.0949 24.3848 36.3473 24.2335 36.6367C24.0822 36.9262 24.0023 37.245 24 37.5686V39.6557C21.6854 39.6557 19.4656 40.5352 17.8289 42.1008C16.1922 43.6664 15.2727 45.7898 15.2727 48.0039C15.2727 50.218 16.1922 52.3414 17.8289 53.907C19.4656 55.4726 21.6854 56.3521 24 56.3521H24.4145C25.3594 61.1651 27.8811 65.5655 31.6145 68.9162C30.512 68.9341 29.4117 69.0177 28.32 69.1666C25.5027 69.5215 22.7497 70.2449 20.1382 71.3163C15.8934 71.3127 11.6677 70.7723 7.57091 69.7093ZM48 70.9615C42.7946 70.9538 37.8047 68.9723 34.1239 65.4514C30.4431 61.9305 28.3717 57.1573 28.3636 52.178V40.3235C32.74 41.3536 37.3103 41.3683 41.6938 40.3663C46.0773 39.3643 50.1469 37.3747 53.5636 34.5632L56.3345 32.2883C57.7189 33.8851 59.4427 35.1817 61.3913 36.0921C63.3399 37.0025 65.4687 37.5058 67.6364 37.5686V52.178C67.6283 57.1573 65.5569 61.9305 61.8761 65.4514C58.1953 68.9723 53.2054 70.9538 48 70.9615ZM63.0327 73.0486L48 90.6216L32.9673 73.0486H38.0509C41.1708 74.4232 44.565 75.135 48 75.135C51.435 75.135 54.8292 74.4232 57.9491 73.0486H63.0327ZM72 52.178V43.8298C73.1573 43.8298 74.2672 44.2695 75.0856 45.0523C75.9039 45.8351 76.3636 46.8968 76.3636 48.0039C76.3636 49.1109 75.9039 50.1726 75.0856 50.9554C74.2672 51.7382 73.1573 52.178 72 52.178ZM24 43.8298V52.178C22.8427 52.178 21.7328 51.7382 20.9144 50.9554C20.0961 50.1726 19.6364 49.1109 19.6364 48.0039C19.6364 46.8968 20.0961 45.8351 20.9144 45.0523C21.7328 44.2695 22.8427 43.8298 24 43.8298ZM19.6364 121.051H4.36364V108.529H19.6364V121.051ZM91.6364 121.051H76.3636V108.529H91.6364V121.051ZM91.6364 104.354H74.1818C73.6032 104.354 73.0482 104.574 72.639 104.966C72.2299 105.357 72 105.888 72 106.442V121.051H24V106.442C24 105.888 23.7701 105.357 23.361 104.966C22.9518 104.574 22.3968 104.354 21.8182 104.354H4.36364V100.18C4.36281 94.9291 5.95615 89.7907 8.9501 85.3892C11.9441 80.9878 16.2098 77.5127 21.2291 75.3861C21.2886 75.3687 21.3469 75.3478 21.4036 75.3235C23.4212 74.4726 25.5381 73.856 27.7091 73.4869L46.32 95.234C46.5215 95.475 46.7772 95.6696 47.068 95.8033C47.3588 95.9371 47.6773 96.0065 48 96.0065C48.3227 96.0065 48.6412 95.9371 48.932 95.8033C49.2228 95.6696 49.4785 95.475 49.68 95.234L68.2909 73.4869C70.4618 73.856 72.5787 74.4726 74.5964 75.3235C74.6531 75.3478 74.7114 75.3687 74.7709 75.3861C79.7919 77.5105 84.0591 80.9851 87.0534 85.387C90.0477 89.789 91.6399 94.9286 91.6364 100.18V104.354Z" fill="black"/>
<path d="M56.7274 50.0913C57.3061 50.0913 57.861 49.8714 58.2702 49.48C58.6794 49.0886 58.9092 48.5577 58.9092 48.0042V45.9171C58.9092 45.3636 58.6794 44.8328 58.2702 44.4414C57.861 44.05 57.3061 43.8301 56.7274 43.8301C56.1488 43.8301 55.5938 44.05 55.1846 44.4414C54.7755 44.8328 54.5456 45.3636 54.5456 45.9171V48.0042C54.5456 48.5577 54.7755 49.0886 55.1846 49.48C55.5938 49.8714 56.1488 50.0913 56.7274 50.0913Z" fill="black"/>
<path d="M38.401 57.8133C38.0538 58.2562 37.9047 58.8128 37.9865 59.3607C38.0684 59.9087 38.3744 60.4031 38.8373 60.7352C41.4861 62.6204 44.6995 63.6385 48.001 63.6385C51.3024 63.6385 54.5159 62.6204 57.1646 60.7352C57.3938 60.5708 57.5869 60.3648 57.7329 60.1289C57.8789 59.8931 57.9749 59.6321 58.0154 59.3607C58.0559 59.0894 58.0402 58.8131 57.9691 58.5476C57.898 58.2821 57.7729 58.0326 57.601 57.8133C57.4291 57.5941 57.2137 57.4094 56.9671 57.2697C56.7206 57.1301 56.4477 57.0383 56.1641 56.9995C55.8804 56.9607 55.5916 56.9758 55.314 57.0438C55.0365 57.1118 54.7756 57.2315 54.5464 57.3959C52.655 58.7436 50.3595 59.4716 48.001 59.4716C45.6425 59.4716 43.3469 58.7436 41.4555 57.3959C40.9926 57.0638 40.4107 56.9212 39.8379 56.9995C39.265 57.0778 38.7482 57.3705 38.401 57.8133Z" fill="black"/>
<path d="M39.273 50.0913C39.8517 50.0913 40.4066 49.8714 40.8158 49.48C41.225 49.0886 41.4549 48.5577 41.4549 48.0042V45.9171C41.4549 45.3636 41.225 44.8328 40.8158 44.4414C40.4066 44.05 39.8517 43.8301 39.273 43.8301C38.6944 43.8301 38.1394 44.05 37.7303 44.4414C37.3211 44.8328 37.0912 45.3636 37.0912 45.9171V48.0042C37.0912 48.5577 37.3211 49.0886 37.7303 49.48C38.1394 49.8714 38.6944 50.0913 39.273 50.0913Z" fill="black"/>
</svg>
