<svg width="24" height="24" viewBox="0 0 24 24" fill="none" xmlns="http://www.w3.org/2000/svg">
<path id="Vector" d="M3.26916 23.3654C2.37033 23.0265 1.13261 21.7887 0.661094 20.7278C0.336926 20.0058 0.277976 19.6374 0.263241 18.4439C0.248506 17.0588 0.263244 17.0146 0.690556 16.5578C1.53045 15.6737 3.84382 14.2003 5.03735 13.7877C5.28784 13.6993 5.46466 13.5519 5.42045 13.4783C5.36152 13.3898 4.6395 13.1246 3.81435 12.8594C2.98919 12.6089 2.19351 12.2847 2.03143 12.1521C1.63359 11.7985 1.1326 10.7228 0.867368 9.63244C0.410586 7.70217 0.322184 7.06857 0.322184 5.433C0.322184 3.41432 0.5432 2.78072 1.67779 1.58719C3.12181 0.0547602 2.59136 0.128436 11.7417 0.128436C19.5807 0.128436 19.7133 0.128435 20.3911 0.452603C21.9677 1.17461 23.1318 2.83966 23.2792 4.5489C23.3676 5.66876 23.0286 6.49391 22.1151 7.49588C21.4225 8.24736 19.5512 9.5293 18.785 9.79453C18.5198 9.88294 18.2988 10.0156 18.2988 10.0745C18.2988 10.1482 18.1809 10.1776 18.0483 10.1187C17.2379 9.85347 18.564 10.546 19.8165 11.047C22.6456 12.1816 23.2349 13.3309 23.2349 17.7366C23.2349 20.109 23.2202 20.1826 22.8224 20.9488C22.2477 22.0245 21.511 22.8054 20.6121 23.2475L19.8607 23.6306L11.9038 23.6159C4.83108 23.6159 3.85856 23.5864 3.26916 23.3654ZM13.9667 16.381C14.0257 16.2779 14.0109 16.2631 13.893 16.3221C13.8046 16.381 13.6278 16.3221 13.4952 16.2042C13.3773 16.0716 13.1857 15.9684 13.0679 15.9684C12.9647 15.9684 12.6847 15.8653 12.4637 15.7474C12.228 15.6295 11.9333 15.5264 11.8007 15.5264C11.668 15.5264 11.5207 15.4822 11.4765 15.4233C11.3439 15.3054 9.88514 14.7897 9.64938 14.7897C9.41362 14.7897 9.39888 15.6295 9.60517 16.1747L9.75252 16.5578H11.8007C13.2005 16.5578 13.893 16.4989 13.9667 16.381ZM13.8046 8.20316C13.7457 7.73164 13.672 7.30433 13.6278 7.24539C13.5983 7.17172 12.67 7.12751 11.5649 7.12751C9.94408 7.12751 9.60518 7.15698 9.72306 7.31907C9.81147 7.42221 10.1356 7.59903 10.4303 7.71691C10.7398 7.83479 11.5502 8.17369 12.2427 8.46839C13.9667 9.20513 13.9372 9.21987 13.8046 8.20316Z" fill="white"/>
</svg>
